<ttFont>
    <TTGlyph name="A" xMin="2" yMin="0" xMax="617" yMax="647">
      <contour>
        <pt x="414" y="0" on="1"/>
        <pt x="396" y="107" on="1"/>
        <pt x="395" y="110" on="1"/>
        <pt x="297" y="112" on="1"/>
        <pt x="215" y="108" on="1"/>
        <pt x="198" y="0" on="1"/>
        <pt x="2" y="0" on="1"/>
        <pt x="198" y="647" on="1"/>
        <pt x="440" y="647" on="1"/>
        <pt x="617" y="0" on="1"/>
      </contour>
      <contour>
        <pt x="321" y="468" on="1"/>
        <pt x="309" y="468" on="1"/>
        <pt x="253" y="256" on="1"/>
        <pt x="309" y="255" on="1"/>
        <pt x="365" y="256" on="1"/>
      </contour>
    </TTGlyph>
    <TTGlyph name="AE" xMin="-20" yMin="0" xMax="840" yMax="647">
      <contour>
        <pt x="828" y="0" on="1"/>
        <pt x="392" y="0" on="1"/>
        <pt x="387" y="107" on="1"/>
        <pt x="382" y="173" on="1"/>
        <pt x="211" y="121" on="1"/>
        <pt x="210" y="119" on="1"/>
        <pt x="176" y="0" on="1"/>
        <pt x="-20" y="0" on="1"/>
        <pt x="256" y="647" on="1"/>
        <pt x="776" y="647" on="1"/>
        <pt x="787" y="633" on="1"/>
        <pt x="774" y="487" on="1"/>
        <pt x="625" y="493" on="1"/>
        <pt x="549" y="493" on="1"/>
        <pt x="557" y="379" on="1"/>
        <pt x="726" y="433" on="1"/>
        <pt x="740" y="422" on="1"/>
        <pt x="758" y="284" on="1"/>
        <pt x="568" y="229" on="1"/>
        <pt x="573" y="154" on="1"/>
        <pt x="664" y="154" on="1"/>
        <pt x="829" y="160" on="1"/>
        <pt x="840" y="146" on="1"/>
      </contour>
      <contour>
        <pt x="357" y="468" on="1"/>
        <pt x="345" y="468" on="1"/>
        <pt x="278" y="294" on="1"/>
        <pt x="369" y="322" on="1"/>
      </contour>
    </TTGlyph>
    <TTGlyph name="AEacute" xMin="-20" yMin="0" xMax="840" yMax="918">
      <component glyphName="AE" x="0" y="0" flags="0x1000"/>
      <component glyphName="acute.cap" x="332" y="175" flags="0x1000"/>
    </TTGlyph>
    <TTGlyph name="Aacute" xMin="2" yMin="0" xMax="617" yMax="918">
      <component glyphName="A" x="0" y="0" flags="0x1000"/>
      <component glyphName="acute.cap" x="140" y="175" flags="0x1000"/>
    </TTGlyph>
    <TTGlyph name="Abreve" xMin="2" yMin="0" xMax="617" yMax="900">
      <component glyphName="A" x="0" y="0" flags="0x1000"/>
      <component glyphName="breve.cap" x="121" y="175" flags="0x1000"/>
    </TTGlyph>
    <TTGlyph name="Abreveacute" xMin="2" yMin="0" xMax="617" yMax="1056">
      <component glyphName="A" x="0" y="0" flags="0x1000"/>
      <component glyphName="breveacute" x="121" y="175" flags="0x1000"/>
    </TTGlyph>
    <TTGlyph name="Abrevedotbelow" xMin="2" yMin="-231" xMax="617" yMax="900">
      <contour>
        <pt x="248" y="716" on="0"/>
        <pt x="158" y="780" on="0"/>
        <pt x="137" y="840" on="1"/>
        <pt x="177" y="900" on="1"/>
        <pt x="204" y="900" on="1"/>
        <pt x="238" y="850" on="0"/>
        <pt x="319" y="850" on="1"/>
        <pt x="393" y="850" on="0"/>
        <pt x="426" y="900" on="1"/>
        <pt x="453" y="900" on="1"/>
        <pt x="493" y="840" on="1"/>
        <pt x="470" y="780" on="0"/>
        <pt x="377" y="716" on="0"/>
        <pt x="312" y="716" on="1"/>
      </contour>
      <contour>
        <pt x="414" y="0" on="1"/>
        <pt x="396" y="107" on="1"/>
        <pt x="395" y="110" on="1"/>
        <pt x="297" y="112" on="1"/>
        <pt x="215" y="108" on="1"/>
        <pt x="198" y="0" on="1"/>
        <pt x="2" y="0" on="1"/>
        <pt x="198" y="647" on="1"/>
        <pt x="440" y="647" on="1"/>
        <pt x="617" y="0" on="1"/>
      </contour>
      <contour>
        <pt x="321" y="468" on="1"/>
        <pt x="309" y="468" on="1"/>
        <pt x="253" y="256" on="1"/>
        <pt x="309" y="255" on="1"/>
        <pt x="365" y="256" on="1"/>
      </contour>
      <contour>
        <pt x="356" y="-32" on="0"/>
        <pt x="405" y="-82" on="0"/>
        <pt x="405" y="-127" on="1"/>
        <pt x="405" y="-175" on="0"/>
        <pt x="351" y="-231" on="0"/>
        <pt x="304" y="-231" on="1"/>
        <pt x="258" y="-231" on="0"/>
        <pt x="210" y="-182" on="0"/>
        <pt x="210" y="-136" on="1"/>
        <pt x="210" y="-88" on="0"/>
        <pt x="265" y="-32" on="0"/>
        <pt x="312" y="-32" on="1"/>
      </contour>
    </TTGlyph>
    <TTGlyph name="Abrevegrave" xMin="2" yMin="0" xMax="617" yMax="1056">
      <component glyphName="A" x="0" y="0" flags="0x1000"/>
      <component glyphName="brevegrave" x="121" y="175" flags="0x1000"/>
    </TTGlyph>
    <TTGlyph name="Abrevehookabove" xMin="2" yMin="0" xMax="617" yMax="1117">
      <contour>
        <pt x="241" y="1035" on="0"/>
        <pt x="207" y="1009" on="1"/>
        <pt x="178" y="1056" on="1"/>
        <pt x="204" y="1084" on="0"/>
        <pt x="271" y="1117" on="0"/>
        <pt x="305" y="1117" on="1"/>
        <pt x="348" y="1117" on="0"/>
        <pt x="405" y="1068" on="0"/>
        <pt x="405" y="1029" on="1"/>
        <pt x="405" y="1007" on="0"/>
        <pt x="379" y="969" on="0"/>
        <pt x="344" y="937" on="1"/>
        <pt x="371" y="894" on="1"/>
        <pt x="307" y="855" on="1"/>
        <pt x="253" y="935" on="1"/>
        <pt x="278" y="953" on="0"/>
        <pt x="307" y="995" on="0"/>
        <pt x="307" y="1011" on="1"/>
        <pt x="307" y="1035" on="0"/>
        <pt x="277" y="1035" on="1"/>
      </contour>
      <contour>
        <pt x="248" y="696" on="0"/>
        <pt x="158" y="760" on="0"/>
        <pt x="137" y="820" on="1"/>
        <pt x="177" y="880" on="1"/>
        <pt x="204" y="880" on="1"/>
        <pt x="238" y="830" on="0"/>
        <pt x="319" y="830" on="1"/>
        <pt x="393" y="830" on="0"/>
        <pt x="426" y="880" on="1"/>
        <pt x="453" y="880" on="1"/>
        <pt x="493" y="820" on="1"/>
        <pt x="470" y="760" on="0"/>
        <pt x="377" y="696" on="0"/>
        <pt x="312" y="696" on="1"/>
      </contour>
      <contour>
        <pt x="414" y="0" on="1"/>
        <pt x="396" y="107" on="1"/>
        <pt x="395" y="110" on="1"/>
        <pt x="297" y="112" on="1"/>
        <pt x="215" y="108" on="1"/>
        <pt x="198" y="0" on="1"/>
        <pt x="2" y="0" on="1"/>
        <pt x="198" y="647" on="1"/>
        <pt x="440" y="647" on="1"/>
        <pt x="617" y="0" on="1"/>
      </contour>
      <contour>
        <pt x="321" y="468" on="1"/>
        <pt x="309" y="468" on="1"/>
        <pt x="253" y="256" on="1"/>
        <pt x="309" y="255" on="1"/>
        <pt x="365" y="256" on="1"/>
      </contour>
    </TTGlyph>
    <TTGlyph name="Abrevetilde" xMin="2" yMin="0" xMax="617" yMax="1084">
      <contour>
        <pt x="140" y="939" on="1"/>
        <pt x="140" y="954" on="1"/>
        <pt x="214" y="1056" on="1"/>
        <pt x="228" y="1062" on="1"/>
        <pt x="248" y="1059" on="0"/>
        <pt x="305" y="1044" on="1"/>
        <pt x="355" y="1031" on="0"/>
        <pt x="368" y="1031" on="1"/>
        <pt x="383" y="1031" on="0"/>
        <pt x="407" y="1055" on="0"/>
        <pt x="430" y="1084" on="1"/>
        <pt x="445" y="1084" on="1"/>
        <pt x="497" y="1034" on="1"/>
        <pt x="497" y="1019" on="1"/>
        <pt x="423" y="916" on="1"/>
        <pt x="408" y="911" on="1"/>
        <pt x="385" y="914" on="0"/>
        <pt x="329" y="929" on="1"/>
        <pt x="283" y="942" on="0"/>
        <pt x="269" y="942" on="1"/>
        <pt x="256" y="942" on="0"/>
        <pt x="232" y="921" on="0"/>
        <pt x="211" y="894" on="0"/>
        <pt x="207" y="889" on="1"/>
        <pt x="192" y="889" on="1"/>
      </contour>
      <contour>
        <pt x="392" y="821" on="0"/>
        <pt x="423" y="867" on="1"/>
        <pt x="448" y="867" on="1"/>
        <pt x="485" y="811" on="1"/>
        <pt x="464" y="755" on="0"/>
        <pt x="378" y="696" on="0"/>
        <pt x="317" y="696" on="1"/>
        <pt x="258" y="696" on="0"/>
        <pt x="174" y="755" on="0"/>
        <pt x="154" y="811" on="1"/>
        <pt x="191" y="867" on="1"/>
        <pt x="216" y="867" on="1"/>
        <pt x="248" y="821" on="0"/>
        <pt x="323" y="821" on="1"/>
      </contour>
      <contour>
        <pt x="414" y="0" on="1"/>
        <pt x="396" y="107" on="1"/>
        <pt x="395" y="110" on="1"/>
        <pt x="297" y="112" on="1"/>
        <pt x="215" y="108" on="1"/>
        <pt x="198" y="0" on="1"/>
        <pt x="2" y="0" on="1"/>
        <pt x="198" y="647" on="1"/>
        <pt x="440" y="647" on="1"/>
        <pt x="617" y="0" on="1"/>
      </contour>
      <contour>
        <pt x="321" y="468" on="1"/>
        <pt x="309" y="468" on="1"/>
        <pt x="253" y="256" on="1"/>
        <pt x="309" y="255" on="1"/>
        <pt x="365" y="256" on="1"/>
      </contour>
    </TTGlyph>
    <TTGlyph name="Acaron" xMin="2" yMin="0" xMax="617" yMax="907">
      <component glyphName="A" x="0" y="0" flags="0x1000"/>
      <component glyphName="caron.cap" x="122" y="175" flags="0x1000"/>
    </TTGlyph>
    <TTGlyph name="Acircumflex" xMin="2" yMin="0" xMax="617" yMax="916">
      <contour>
        <pt x="145" y="797" on="1"/>
        <pt x="235" y="859" on="0"/>
        <pt x="298" y="916" on="1"/>
        <pt x="332" y="916" on="1"/>
        <pt x="395" y="859" on="0"/>
        <pt x="485" y="797" on="1"/>
        <pt x="451" y="721" on="1"/>
        <pt x="433" y="721" on="1"/>
        <pt x="315" y="781" on="1"/>
        <pt x="197" y="721" on="1"/>
        <pt x="179" y="721" on="1"/>
      </contour>
      <contour>
        <pt x="414" y="0" on="1"/>
        <pt x="396" y="107" on="1"/>
        <pt x="395" y="110" on="1"/>
        <pt x="297" y="112" on="1"/>
        <pt x="215" y="108" on="1"/>
        <pt x="198" y="0" on="1"/>
        <pt x="2" y="0" on="1"/>
        <pt x="198" y="647" on="1"/>
        <pt x="440" y="647" on="1"/>
        <pt x="617" y="0" on="1"/>
      </contour>
      <contour>
        <pt x="321" y="468" on="1"/>
        <pt x="309" y="468" on="1"/>
        <pt x="253" y="256" on="1"/>
        <pt x="309" y="255" on="1"/>
        <pt x="365" y="256" on="1"/>
      </contour>
    </TTGlyph>
    <TTGlyph name="Acircumflexacute" xMin="2" yMin="0" xMax="617" yMax="1052">
      <component glyphName="A" x="0" y="0" flags="0x1000"/>
      <component glyphName="circumflexacute" x="121" y="175" flags="0x1000"/>
    </TTGlyph>
    <TTGlyph name="Acircumflexdotbelow" xMin="2" yMin="-231" xMax="617" yMax="916">
      <contour>
        <pt x="145" y="797" on="1"/>
        <pt x="235" y="859" on="0"/>
        <pt x="298" y="916" on="1"/>
        <pt x="332" y="916" on="1"/>
        <pt x="395" y="859" on="0"/>
        <pt x="485" y="797" on="1"/>
        <pt x="451" y="721" on="1"/>
        <pt x="433" y="721" on="1"/>
        <pt x="315" y="781" on="1"/>
        <pt x="197" y="721" on="1"/>
        <pt x="179" y="721" on="1"/>
      </contour>
      <contour>
        <pt x="414" y="0" on="1"/>
        <pt x="396" y="107" on="1"/>
        <pt x="395" y="110" on="1"/>
        <pt x="297" y="112" on="1"/>
        <pt x="215" y="108" on="1"/>
        <pt x="198" y="0" on="1"/>
        <pt x="2" y="0" on="1"/>
        <pt x="198" y="647" on="1"/>
        <pt x="440" y="647" on="1"/>
        <pt x="617" y="0" on="1"/>
      </contour>
      <contour>
        <pt x="321" y="468" on="1"/>
        <pt x="309" y="468" on="1"/>
        <pt x="253" y="256" on="1"/>
        <pt x="309" y="255" on="1"/>
        <pt x="365" y="256" on="1"/>
      </contour>
      <contour>
        <pt x="356" y="-32" on="0"/>
        <pt x="405" y="-82" on="0"/>
        <pt x="405" y="-127" on="1"/>
        <pt x="405" y="-175" on="0"/>
        <pt x="351" y="-231" on="0"/>
        <pt x="304" y="-231" on="1"/>
        <pt x="258" y="-231" on="0"/>
        <pt x="210" y="-182" on="0"/>
        <pt x="210" y="-136" on="1"/>
        <pt x="210" y="-88" on="0"/>
        <pt x="265" y="-32" on="0"/>
        <pt x="312" y="-32" on="1"/>
      </contour>
    </TTGlyph>
    <TTGlyph name="Acircumflexgrave" xMin="2" yMin="0" xMax="617" yMax="1052">
      <component glyphName="A" x="0" y="0" flags="0x1000"/>
      <component glyphName="circumflexgrave" x="121" y="175" flags="0x1000"/>
    </TTGlyph>
    <TTGlyph name="Acircumflexhookabove" xMin="2" yMin="0" xMax="617" yMax="1101">
      <contour>
        <pt x="366" y="1023" on="0"/>
        <pt x="333" y="998" on="1"/>
        <pt x="305" y="1043" on="1"/>
        <pt x="330" y="1070" on="0"/>
        <pt x="394" y="1101" on="0"/>
        <pt x="426" y="1101" on="1"/>
        <pt x="467" y="1101" on="0"/>
        <pt x="522" y="1055" on="0"/>
        <pt x="522" y="1017" on="1"/>
        <pt x="522" y="997" on="0"/>
        <pt x="497" y="960" on="0"/>
        <pt x="463" y="930" on="1"/>
        <pt x="489" y="889" on="1"/>
        <pt x="428" y="851" on="1"/>
        <pt x="377" y="928" on="1"/>
        <pt x="400" y="944" on="0"/>
        <pt x="428" y="984" on="0"/>
        <pt x="428" y="1000" on="1"/>
        <pt x="428" y="1023" on="0"/>
        <pt x="400" y="1023" on="1"/>
      </contour>
      <contour>
        <pt x="144" y="777" on="1"/>
        <pt x="234" y="839" on="0"/>
        <pt x="297" y="896" on="1"/>
        <pt x="331" y="896" on="1"/>
        <pt x="394" y="839" on="0"/>
        <pt x="484" y="777" on="1"/>
        <pt x="450" y="701" on="1"/>
        <pt x="432" y="701" on="1"/>
        <pt x="314" y="761" on="1"/>
        <pt x="196" y="701" on="1"/>
        <pt x="178" y="701" on="1"/>
      </contour>
      <contour>
        <pt x="414" y="0" on="1"/>
        <pt x="396" y="107" on="1"/>
        <pt x="395" y="110" on="1"/>
        <pt x="297" y="112" on="1"/>
        <pt x="215" y="108" on="1"/>
        <pt x="198" y="0" on="1"/>
        <pt x="2" y="0" on="1"/>
        <pt x="198" y="647" on="1"/>
        <pt x="440" y="647" on="1"/>
        <pt x="617" y="0" on="1"/>
      </contour>
      <contour>
        <pt x="321" y="468" on="1"/>
        <pt x="309" y="468" on="1"/>
        <pt x="253" y="256" on="1"/>
        <pt x="309" y="255" on="1"/>
        <pt x="365" y="256" on="1"/>
      </contour>
    </TTGlyph>
    <TTGlyph name="Acircumflextilde" xMin="2" yMin="0" xMax="617" yMax="1084">
      <contour>
        <pt x="140" y="939" on="1"/>
        <pt x="140" y="954" on="1"/>
        <pt x="214" y="1056" on="1"/>
        <pt x="228" y="1062" on="1"/>
        <pt x="248" y="1059" on="0"/>
        <pt x="305" y="1044" on="1"/>
        <pt x="355" y="1031" on="0"/>
        <pt x="368" y="1031" on="1"/>
        <pt x="383" y="1031" on="0"/>
        <pt x="407" y="1055" on="0"/>
        <pt x="430" y="1084" on="1"/>
        <pt x="445" y="1084" on="1"/>
        <pt x="497" y="1034" on="1"/>
        <pt x="497" y="1019" on="1"/>
        <pt x="423" y="916" on="1"/>
        <pt x="408" y="911" on="1"/>
        <pt x="385" y="914" on="0"/>
        <pt x="329" y="929" on="1"/>
        <pt x="283" y="942" on="0"/>
        <pt x="269" y="942" on="1"/>
        <pt x="256" y="942" on="0"/>
        <pt x="232" y="921" on="0"/>
        <pt x="211" y="894" on="0"/>
        <pt x="207" y="889" on="1"/>
        <pt x="192" y="889" on="1"/>
      </contour>
      <contour>
        <pt x="394" y="839" on="0"/>
        <pt x="484" y="777" on="1"/>
        <pt x="450" y="701" on="1"/>
        <pt x="432" y="701" on="1"/>
        <pt x="314" y="761" on="1"/>
        <pt x="196" y="701" on="1"/>
        <pt x="178" y="701" on="1"/>
        <pt x="144" y="777" on="1"/>
        <pt x="234" y="839" on="0"/>
        <pt x="297" y="896" on="1"/>
        <pt x="331" y="896" on="1"/>
      </contour>
      <contour>
        <pt x="414" y="0" on="1"/>
        <pt x="396" y="107" on="1"/>
        <pt x="395" y="110" on="1"/>
        <pt x="297" y="112" on="1"/>
        <pt x="215" y="108" on="1"/>
        <pt x="198" y="0" on="1"/>
        <pt x="2" y="0" on="1"/>
        <pt x="198" y="647" on="1"/>
        <pt x="440" y="647" on="1"/>
        <pt x="617" y="0" on="1"/>
      </contour>
      <contour>
        <pt x="321" y="468" on="1"/>
        <pt x="309" y="468" on="1"/>
        <pt x="253" y="256" on="1"/>
        <pt x="309" y="255" on="1"/>
        <pt x="365" y="256" on="1"/>
      </contour>
    </TTGlyph>
    <TTGlyph name="Adieresis" xMin="2" yMin="0" xMax="617" yMax="892">
      <contour>
        <pt x="176" y="719" on="0"/>
        <pt x="134" y="762" on="0"/>
        <pt x="134" y="802" on="1"/>
        <pt x="134" y="844" on="0"/>
        <pt x="182" y="892" on="0"/>
        <pt x="223" y="892" on="1"/>
        <pt x="261" y="892" on="0"/>
        <pt x="304" y="849" on="0"/>
        <pt x="304" y="810" on="1"/>
        <pt x="304" y="768" on="0"/>
        <pt x="257" y="719" on="0"/>
        <pt x="216" y="719" on="1"/>
      </contour>
      <contour>
        <pt x="369" y="719" on="0"/>
        <pt x="327" y="762" on="0"/>
        <pt x="327" y="802" on="1"/>
        <pt x="327" y="844" on="0"/>
        <pt x="375" y="892" on="0"/>
        <pt x="416" y="892" on="1"/>
        <pt x="454" y="892" on="0"/>
        <pt x="497" y="849" on="0"/>
        <pt x="497" y="810" on="1"/>
        <pt x="497" y="768" on="0"/>
        <pt x="450" y="719" on="0"/>
        <pt x="409" y="719" on="1"/>
      </contour>
      <contour>
        <pt x="414" y="0" on="1"/>
        <pt x="396" y="107" on="1"/>
        <pt x="395" y="110" on="1"/>
        <pt x="297" y="112" on="1"/>
        <pt x="215" y="108" on="1"/>
        <pt x="198" y="0" on="1"/>
        <pt x="2" y="0" on="1"/>
        <pt x="198" y="647" on="1"/>
        <pt x="440" y="647" on="1"/>
        <pt x="617" y="0" on="1"/>
      </contour>
      <contour>
        <pt x="321" y="468" on="1"/>
        <pt x="309" y="468" on="1"/>
        <pt x="253" y="256" on="1"/>
        <pt x="309" y="255" on="1"/>
        <pt x="365" y="256" on="1"/>
      </contour>
    </TTGlyph>
    <TTGlyph name="Adotbelow" xMin="2" yMin="-231" xMax="617" yMax="647">
      <contour>
        <pt x="414" y="0" on="1"/>
        <pt x="396" y="107" on="1"/>
        <pt x="395" y="110" on="1"/>
        <pt x="297" y="112" on="1"/>
        <pt x="215" y="108" on="1"/>
        <pt x="198" y="0" on="1"/>
        <pt x="2" y="0" on="1"/>
        <pt x="198" y="647" on="1"/>
        <pt x="440" y="647" on="1"/>
        <pt x="617" y="0" on="1"/>
      </contour>
      <contour>
        <pt x="321" y="468" on="1"/>
        <pt x="309" y="468" on="1"/>
        <pt x="253" y="256" on="1"/>
        <pt x="309" y="255" on="1"/>
        <pt x="365" y="256" on="1"/>
      </contour>
      <contour>
        <pt x="356" y="-32" on="0"/>
        <pt x="405" y="-82" on="0"/>
        <pt x="405" y="-127" on="1"/>
        <pt x="405" y="-175" on="0"/>
        <pt x="351" y="-231" on="0"/>
        <pt x="304" y="-231" on="1"/>
        <pt x="258" y="-231" on="0"/>
        <pt x="210" y="-182" on="0"/>
        <pt x="210" y="-136" on="1"/>
        <pt x="210" y="-88" on="0"/>
        <pt x="265" y="-32" on="0"/>
        <pt x="312" y="-32" on="1"/>
      </contour>
    </TTGlyph>
    <TTGlyph name="Agrave" xMin="2" yMin="0" xMax="617" yMax="918">
      <contour>
        <pt x="311" y="739" on="0"/>
        <pt x="179" y="781" on="1"/>
        <pt x="173" y="797" on="1"/>
        <pt x="222" y="914" on="1"/>
        <pt x="239" y="918" on="1"/>
        <pt x="346" y="855" on="0"/>
        <pt x="464" y="795" on="1"/>
        <pt x="434" y="716" on="1"/>
        <pt x="417" y="712" on="1"/>
      </contour>
      <contour>
        <pt x="414" y="0" on="1"/>
        <pt x="396" y="107" on="1"/>
        <pt x="395" y="110" on="1"/>
        <pt x="297" y="112" on="1"/>
        <pt x="215" y="108" on="1"/>
        <pt x="198" y="0" on="1"/>
        <pt x="2" y="0" on="1"/>
        <pt x="198" y="647" on="1"/>
        <pt x="440" y="647" on="1"/>
        <pt x="617" y="0" on="1"/>
      </contour>
      <contour>
        <pt x="321" y="468" on="1"/>
        <pt x="309" y="468" on="1"/>
        <pt x="253" y="256" on="1"/>
        <pt x="309" y="255" on="1"/>
        <pt x="365" y="256" on="1"/>
      </contour>
    </TTGlyph>
    <TTGlyph name="Ahookabove" xMin="2" yMin="0" xMax="617" yMax="948">
      <component glyphName="A" x="0" y="0" flags="0x1000"/>
      <component glyphName="hookabove" x="121" y="175" flags="0x1000"/>
    </TTGlyph>
    <TTGlyph name="Amacron" xMin="2" yMin="0" xMax="617" yMax="866">
      <component glyphName="A" x="0" y="0" flags="0x1000"/>
      <component glyphName="macron" x="121" y="175" flags="0x1000"/>
    </TTGlyph>
    <TTGlyph name="Aogonek" xMin="2" yMin="-197" xMax="633" yMax="647">
      <contour>
        <pt x="573" y="-197" on="0"/>
        <pt x="522" y="-197" on="1"/>
        <pt x="474" y="-197" on="0"/>
        <pt x="418" y="-141" on="0"/>
        <pt x="418" y="-97" on="1"/>
        <pt x="418" y="-51" on="0"/>
        <pt x="462" y="0" on="1"/>
        <pt x="414" y="0" on="1"/>
        <pt x="396" y="107" on="1"/>
        <pt x="395" y="110" on="1"/>
        <pt x="297" y="112" on="1"/>
        <pt x="215" y="108" on="1"/>
        <pt x="198" y="0" on="1"/>
        <pt x="2" y="0" on="1"/>
        <pt x="198" y="647" on="1"/>
        <pt x="440" y="647" on="1"/>
        <pt x="617" y="0" on="1"/>
        <pt x="547" y="0" on="1"/>
        <pt x="514" y="-41" on="0"/>
        <pt x="514" y="-67" on="1"/>
        <pt x="514" y="-99" on="0"/>
        <pt x="550" y="-99" on="1"/>
        <pt x="579" y="-99" on="0"/>
        <pt x="611" y="-79" on="1"/>
        <pt x="621" y="-79" on="1"/>
        <pt x="633" y="-151" on="1"/>
      </contour>
      <contour>
        <pt x="321" y="468" on="1"/>
        <pt x="309" y="468" on="1"/>
        <pt x="253" y="256" on="1"/>
        <pt x="309" y="255" on="1"/>
        <pt x="365" y="256" on="1"/>
      </contour>
    </TTGlyph>
    <TTGlyph name="Aring" xMin="2" yMin="0" xMax="617" yMax="931">
      <component glyphName="A" x="0" y="0" flags="0x1000"/>
      <component glyphName="ring" x="121" y="175" flags="0x1000"/>
    </TTGlyph>
    <TTGlyph name="Aringacute" xMin="2" yMin="0" xMax="617" yMax="980">
      <contour>
        <pt x="200" y="889" on="1"/>
        <pt x="317" y="929" on="0"/>
        <pt x="440" y="980" on="1"/>
        <pt x="456" y="974" on="1"/>
        <pt x="488" y="851" on="1"/>
        <pt x="480" y="836" on="1"/>
        <pt x="350" y="814" on="0"/>
        <pt x="235" y="801" on="1"/>
        <pt x="218" y="807" on="1"/>
      </contour>
      <contour>
        <pt x="414" y="0" on="1"/>
        <pt x="396" y="103" on="1"/>
        <pt x="395" y="106" on="1"/>
        <pt x="297" y="108" on="1"/>
        <pt x="215" y="104" on="1"/>
        <pt x="198" y="0" on="1"/>
        <pt x="2" y="0" on="1"/>
        <pt x="214" y="641" on="1"/>
        <pt x="210" y="656" on="0"/>
        <pt x="210" y="678" on="1"/>
        <pt x="210" y="789" on="0"/>
        <pt x="324" y="789" on="1"/>
        <pt x="430" y="789" on="0"/>
        <pt x="430" y="685" on="1"/>
        <pt x="430" y="662" on="0"/>
        <pt x="424" y="642" on="1"/>
        <pt x="617" y="0" on="1"/>
      </contour>
      <contour>
        <pt x="300" y="711" on="0"/>
        <pt x="285" y="698" on="0"/>
        <pt x="285" y="681" on="1"/>
        <pt x="285" y="662" on="0"/>
        <pt x="301" y="647" on="0"/>
        <pt x="321" y="647" on="1"/>
        <pt x="340" y="647" on="0"/>
        <pt x="355" y="661" on="0"/>
        <pt x="355" y="678" on="1"/>
        <pt x="355" y="696" on="0"/>
        <pt x="339" y="711" on="0"/>
        <pt x="319" y="711" on="1"/>
      </contour>
      <contour>
        <pt x="321" y="450" on="1"/>
        <pt x="309" y="450" on="1"/>
        <pt x="253" y="247" on="1"/>
        <pt x="309" y="246" on="1"/>
        <pt x="365" y="247" on="1"/>
      </contour>
    </TTGlyph>
    <TTGlyph name="Atilde" xMin="2" yMin="0" xMax="617" yMax="916">
      <component glyphName="A" x="0" y="0" flags="0x1000"/>
      <component glyphName="tilde" x="121" y="175" flags="0x1000"/>
    </TTGlyph>
    <TTGlyph name="B" xMin="60" yMin="-7" xMax="604" yMax="648">
      <contour>
        <pt x="547" y="315" on="0"/>
        <pt x="604" y="244" on="0"/>
        <pt x="604" y="187" on="1"/>
        <pt x="604" y="86" on="0"/>
        <pt x="439" y="-7" on="0"/>
        <pt x="275" y="-7" on="1"/>
        <pt x="184" y="-7" on="0"/>
        <pt x="60" y="0" on="1"/>
        <pt x="70" y="190" on="1"/>
        <pt x="60" y="647" on="1"/>
        <pt x="349" y="648" on="1"/>
        <pt x="459" y="648" on="0"/>
        <pt x="583" y="563" on="0"/>
        <pt x="583" y="482" on="1"/>
        <pt x="583" y="432" on="0"/>
        <pt x="532" y="355" on="0"/>
        <pt x="484" y="333" on="1"/>
      </contour>
      <contour>
        <pt x="379" y="488" on="0"/>
        <pt x="330" y="515" on="0"/>
        <pt x="263" y="515" on="1"/>
        <pt x="254" y="515" on="1"/>
        <pt x="250" y="383" on="1"/>
        <pt x="325" y="380" on="1"/>
        <pt x="353" y="389" on="0"/>
        <pt x="379" y="423" on="0"/>
        <pt x="379" y="453" on="1"/>
      </contour>
      <contour>
        <pt x="354" y="125" on="0"/>
        <pt x="401" y="161" on="0"/>
        <pt x="401" y="195" on="1"/>
        <pt x="401" y="218" on="0"/>
        <pt x="374" y="246" on="0"/>
        <pt x="344" y="256" on="1"/>
        <pt x="247" y="254" on="1"/>
        <pt x="246" y="210" on="1"/>
        <pt x="249" y="129" on="1"/>
        <pt x="299" y="125" on="0"/>
        <pt x="313" y="125" on="1"/>
      </contour>
    </TTGlyph>
    <TTGlyph name="C" xMin="17" yMin="-11" xMax="514" yMax="658">
      <contour>
        <pt x="438" y="658" on="0"/>
        <pt x="514" y="631" on="1"/>
        <pt x="480" y="472" on="1"/>
        <pt x="467" y="464" on="1"/>
        <pt x="441" y="478" on="0"/>
        <pt x="373" y="495" on="0"/>
        <pt x="344" y="495" on="1"/>
        <pt x="283" y="495" on="0"/>
        <pt x="229" y="424" on="0"/>
        <pt x="229" y="341" on="1"/>
        <pt x="229" y="244" on="0"/>
        <pt x="291" y="155" on="0"/>
        <pt x="357" y="155" on="1"/>
        <pt x="422" y="155" on="0"/>
        <pt x="480" y="176" on="1"/>
        <pt x="496" y="166" on="1"/>
        <pt x="480" y="8" on="1"/>
        <pt x="420" y="-11" on="0"/>
        <pt x="341" y="-11" on="1"/>
        <pt x="180" y="-11" on="0"/>
        <pt x="17" y="157" on="0"/>
        <pt x="17" y="318" on="1"/>
        <pt x="17" y="480" on="0"/>
        <pt x="192" y="658" on="0"/>
        <pt x="352" y="658" on="1"/>
      </contour>
    </TTGlyph>
    <TTGlyph name="C.ss01" xMin="-100" yMin="0" xMax="547" yMax="513">
      <contour>
        <pt x="251" y="366" on="0"/>
        <pt x="214" y="324" on="0"/>
        <pt x="214" y="272" on="1"/>
        <pt x="214" y="206" on="0"/>
        <pt x="258" y="148" on="0"/>
        <pt x="307" y="148" on="1"/>
        <pt x="354" y="148" on="0"/>
        <pt x="399" y="158" on="1"/>
        <pt x="413" y="149" on="1"/>
        <pt x="405" y="65" on="1"/>
        <pt x="547" y="65" on="1"/>
        <pt x="547" y="0" on="1"/>
        <pt x="-100" y="0" on="1"/>
        <pt x="-100" y="65" on="1"/>
        <pt x="94" y="65" on="1"/>
        <pt x="27" y="128" on="0"/>
        <pt x="27" y="251" on="1"/>
        <pt x="27" y="380" on="0"/>
        <pt x="107" y="448" on="1"/>
        <pt x="-100" y="448" on="1"/>
        <pt x="-100" y="513" on="1"/>
        <pt x="547" y="513" on="1"/>
        <pt x="547" y="448" on="1"/>
        <pt x="420" y="448" on="1"/>
        <pt x="400" y="353" on="1"/>
        <pt x="388" y="346" on="1"/>
        <pt x="345" y="366" on="0"/>
        <pt x="294" y="366" on="1"/>
      </contour>
    </TTGlyph>
    <TTGlyph name="Cacute" xMin="17" yMin="-11" xMax="514" yMax="918">
      <component glyphName="C" x="0" y="0" flags="0x1000"/>
      <component glyphName="acute.cap" x="142" y="175" flags="0x1000"/>
    </TTGlyph>
    <TTGlyph name="Ccaron" xMin="17" yMin="-11" xMax="514" yMax="907">
      <component glyphName="C" x="0" y="0" flags="0x1000"/>
      <component glyphName="caron.cap" x="124" y="175" flags="0x1000"/>
    </TTGlyph>
    <TTGlyph name="Ccedilla" xMin="17" yMin="-208" xMax="514" yMax="658">
      <contour>
        <pt x="422" y="155" on="0"/>
        <pt x="480" y="176" on="1"/>
        <pt x="496" y="166" on="1"/>
        <pt x="480" y="8" on="1"/>
        <pt x="426" y="-9" on="0"/>
        <pt x="357" y="-11" on="1"/>
        <pt x="351" y="-42" on="1"/>
        <pt x="385" y="-61" on="1"/>
        <pt x="429" y="-84" on="0"/>
        <pt x="429" y="-124" on="1"/>
        <pt x="429" y="-161" on="0"/>
        <pt x="370" y="-208" on="0"/>
        <pt x="319" y="-208" on="1"/>
        <pt x="270" y="-208" on="0"/>
        <pt x="227" y="-184" on="1"/>
        <pt x="238" y="-109" on="1"/>
        <pt x="246" y="-106" on="1"/>
        <pt x="279" y="-134" on="0"/>
        <pt x="306" y="-134" on="1"/>
        <pt x="322" y="-134" on="0"/>
        <pt x="322" y="-120" on="1"/>
        <pt x="322" y="-111" on="0"/>
        <pt x="310" y="-105" on="1"/>
        <pt x="260" y="-78" on="1"/>
        <pt x="274" y="-7" on="1"/>
        <pt x="146" y="9" on="0"/>
        <pt x="17" y="174" on="0"/>
        <pt x="17" y="318" on="1"/>
        <pt x="17" y="480" on="0"/>
        <pt x="192" y="658" on="0"/>
        <pt x="352" y="658" on="1"/>
        <pt x="438" y="658" on="0"/>
        <pt x="514" y="631" on="1"/>
        <pt x="480" y="472" on="1"/>
        <pt x="467" y="464" on="1"/>
        <pt x="441" y="478" on="0"/>
        <pt x="373" y="495" on="0"/>
        <pt x="344" y="495" on="1"/>
        <pt x="283" y="495" on="0"/>
        <pt x="229" y="424" on="0"/>
        <pt x="229" y="341" on="1"/>
        <pt x="229" y="244" on="0"/>
        <pt x="291" y="155" on="0"/>
        <pt x="357" y="155" on="1"/>
      </contour>
    </TTGlyph>
    <TTGlyph name="Ccircumflex" xMin="17" yMin="-11" xMax="514" yMax="916">
      <contour>
        <pt x="237" y="859" on="0"/>
        <pt x="300" y="916" on="1"/>
        <pt x="334" y="916" on="1"/>
        <pt x="397" y="859" on="0"/>
        <pt x="487" y="797" on="1"/>
        <pt x="453" y="721" on="1"/>
        <pt x="435" y="721" on="1"/>
        <pt x="317" y="781" on="1"/>
        <pt x="199" y="721" on="1"/>
        <pt x="181" y="721" on="1"/>
        <pt x="147" y="797" on="1"/>
      </contour>
      <contour>
        <pt x="438" y="658" on="0"/>
        <pt x="514" y="631" on="1"/>
        <pt x="480" y="472" on="1"/>
        <pt x="467" y="464" on="1"/>
        <pt x="441" y="478" on="0"/>
        <pt x="373" y="495" on="0"/>
        <pt x="344" y="495" on="1"/>
        <pt x="283" y="495" on="0"/>
        <pt x="229" y="424" on="0"/>
        <pt x="229" y="341" on="1"/>
        <pt x="229" y="244" on="0"/>
        <pt x="291" y="155" on="0"/>
        <pt x="357" y="155" on="1"/>
        <pt x="422" y="155" on="0"/>
        <pt x="480" y="176" on="1"/>
        <pt x="496" y="166" on="1"/>
        <pt x="480" y="8" on="1"/>
        <pt x="420" y="-11" on="0"/>
        <pt x="341" y="-11" on="1"/>
        <pt x="180" y="-11" on="0"/>
        <pt x="17" y="157" on="0"/>
        <pt x="17" y="318" on="1"/>
        <pt x="17" y="480" on="0"/>
        <pt x="192" y="658" on="0"/>
        <pt x="352" y="658" on="1"/>
      </contour>
    </TTGlyph>
    <TTGlyph name="Cdotaccent" xMin="17" yMin="-11" xMax="514" yMax="903">
      <contour>
        <pt x="365" y="903" on="0"/>
        <pt x="414" y="853" on="0"/>
        <pt x="414" y="808" on="1"/>
        <pt x="414" y="760" on="0"/>
        <pt x="360" y="704" on="0"/>
        <pt x="313" y="704" on="1"/>
        <pt x="267" y="704" on="0"/>
        <pt x="219" y="753" on="0"/>
        <pt x="219" y="799" on="1"/>
        <pt x="219" y="847" on="0"/>
        <pt x="274" y="903" on="0"/>
        <pt x="321" y="903" on="1"/>
      </contour>
      <contour>
        <pt x="438" y="658" on="0"/>
        <pt x="514" y="631" on="1"/>
        <pt x="480" y="472" on="1"/>
        <pt x="467" y="464" on="1"/>
        <pt x="441" y="478" on="0"/>
        <pt x="373" y="495" on="0"/>
        <pt x="344" y="495" on="1"/>
        <pt x="283" y="495" on="0"/>
        <pt x="229" y="424" on="0"/>
        <pt x="229" y="341" on="1"/>
        <pt x="229" y="244" on="0"/>
        <pt x="291" y="155" on="0"/>
        <pt x="357" y="155" on="1"/>
        <pt x="422" y="155" on="0"/>
        <pt x="480" y="176" on="1"/>
        <pt x="496" y="166" on="1"/>
        <pt x="480" y="8" on="1"/>
        <pt x="420" y="-11" on="0"/>
        <pt x="341" y="-11" on="1"/>
        <pt x="180" y="-11" on="0"/>
        <pt x="17" y="157" on="0"/>
        <pt x="17" y="318" on="1"/>
        <pt x="17" y="480" on="0"/>
        <pt x="192" y="658" on="0"/>
        <pt x="352" y="658" on="1"/>
      </contour>
    </TTGlyph>
    <TTGlyph name="D" xMin="60" yMin="-9" xMax="648" yMax="651">
      <contour>
        <pt x="495" y="651" on="0"/>
        <pt x="648" y="496" on="0"/>
        <pt x="648" y="350" on="1"/>
        <pt x="648" y="177" on="0"/>
        <pt x="470" y="-9" on="0"/>
        <pt x="304" y="-9" on="1"/>
        <pt x="200" y="-9" on="0"/>
        <pt x="60" y="0" on="1"/>
        <pt x="70" y="190" on="1"/>
        <pt x="60" y="647" on="1"/>
        <pt x="352" y="651" on="1"/>
      </contour>
      <contour>
        <pt x="389" y="140" on="0"/>
        <pt x="438" y="215" on="0"/>
        <pt x="438" y="301" on="1"/>
        <pt x="438" y="374" on="0"/>
        <pt x="418" y="458" on="0"/>
        <pt x="374" y="495" on="0"/>
        <pt x="335" y="495" on="1"/>
        <pt x="297" y="495" on="0"/>
        <pt x="260" y="491" on="1"/>
        <pt x="253" y="210" on="1"/>
        <pt x="255" y="148" on="1"/>
        <pt x="315" y="140" on="0"/>
        <pt x="342" y="140" on="1"/>
      </contour>
    </TTGlyph>
    <TTGlyph name="D.ss01" xMin="-100" yMin="0" xMax="675" yMax="513">
      <contour>
        <pt x="483" y="448" on="1"/>
        <pt x="547" y="389" on="0"/>
        <pt x="547" y="276" on="1"/>
        <pt x="547" y="137" on="0"/>
        <pt x="466" y="65" on="1"/>
        <pt x="675" y="65" on="1"/>
        <pt x="675" y="0" on="1"/>
        <pt x="-100" y="0" on="1"/>
        <pt x="-100" y="65" on="1"/>
        <pt x="67" y="65" on="1"/>
        <pt x="72" y="152" on="1"/>
        <pt x="64" y="448" on="1"/>
        <pt x="-100" y="448" on="1"/>
        <pt x="-100" y="513" on="1"/>
        <pt x="675" y="513" on="1"/>
        <pt x="675" y="448" on="1"/>
      </contour>
      <contour>
        <pt x="281" y="133" on="0"/>
        <pt x="298" y="133" on="1"/>
        <pt x="329" y="133" on="0"/>
        <pt x="361" y="177" on="0"/>
        <pt x="361" y="232" on="1"/>
        <pt x="361" y="285" on="0"/>
        <pt x="349" y="343" on="0"/>
        <pt x="319" y="366" on="0"/>
        <pt x="292" y="366" on="1"/>
        <pt x="261" y="366" on="0"/>
        <pt x="240" y="364" on="1"/>
        <pt x="234" y="170" on="1"/>
        <pt x="235" y="141" on="1"/>
      </contour>
    </TTGlyph>
    <TTGlyph name="Dcaron" xMin="60" yMin="-9" xMax="648" yMax="907">
      <component glyphName="D" x="0" y="0" flags="0x1000"/>
      <component glyphName="caron.cap" x="135" y="175" flags="0x1000"/>
    </TTGlyph>
    <TTGlyph name="Dcroat" xMin="60" yMin="-9" xMax="648" yMax="866">
      <component glyphName="D" x="0" y="0" flags="0x1000"/>
      <component glyphName="macron" x="134" y="175" flags="0x1000"/>
    </TTGlyph>
    <TTGlyph name="Delta" xMin="2" yMin="0" xMax="617" yMax="647">
      <contour>
        <pt x="2" y="0" on="1"/>
        <pt x="198" y="647" on="1"/>
        <pt x="440" y="647" on="1"/>
        <pt x="617" y="0" on="1"/>
      </contour>
      <contour>
        <pt x="224" y="145" on="1"/>
        <pt x="388" y="145" on="1"/>
        <pt x="321" y="468" on="1"/>
        <pt x="309" y="468" on="1"/>
      </contour>
    </TTGlyph>
    <TTGlyph name="E" xMin="60" yMin="0" xMax="535" yMax="647">
      <contour>
        <pt x="528" y="146" on="1"/>
        <pt x="516" y="0" on="1"/>
        <pt x="60" y="0" on="1"/>
        <pt x="70" y="190" on="1"/>
        <pt x="60" y="647" on="1"/>
        <pt x="524" y="647" on="1"/>
        <pt x="535" y="633" on="1"/>
        <pt x="522" y="487" on="1"/>
        <pt x="363" y="493" on="1"/>
        <pt x="260" y="493" on="1"/>
        <pt x="258" y="402" on="1"/>
        <pt x="357" y="402" on="1"/>
        <pt x="461" y="405" on="1"/>
        <pt x="472" y="391" on="1"/>
        <pt x="460" y="245" on="1"/>
        <pt x="344" y="248" on="1"/>
        <pt x="254" y="248" on="1"/>
        <pt x="253" y="210" on="1"/>
        <pt x="255" y="154" on="1"/>
        <pt x="351" y="154" on="1"/>
        <pt x="517" y="160" on="1"/>
      </contour>
    </TTGlyph>
    <TTGlyph name="Eacute" xMin="60" yMin="0" xMax="535" yMax="918">
      <component glyphName="E" x="0" y="0" flags="0x1000"/>
      <component glyphName="acute.cap" x="117" y="175" flags="0x1000"/>
    </TTGlyph>
    <TTGlyph name="Ebreve" xMin="60" yMin="0" xMax="535" yMax="900">
      <component glyphName="E" x="0" y="0" flags="0x1000"/>
      <component glyphName="breve.cap" x="98" y="175" flags="0x1000"/>
    </TTGlyph>
    <TTGlyph name="Ecaron" xMin="60" yMin="0" xMax="535" yMax="907">
      <component glyphName="E" x="0" y="0" flags="0x1000"/>
      <component glyphName="caron.cap" x="99" y="175" flags="0x1000"/>
    </TTGlyph>
    <TTGlyph name="Ecircumflex" xMin="60" yMin="0" xMax="535" yMax="916">
      <contour>
        <pt x="122" y="797" on="1"/>
        <pt x="212" y="859" on="0"/>
        <pt x="275" y="916" on="1"/>
        <pt x="309" y="916" on="1"/>
        <pt x="372" y="859" on="0"/>
        <pt x="462" y="797" on="1"/>
        <pt x="428" y="721" on="1"/>
        <pt x="410" y="721" on="1"/>
        <pt x="292" y="781" on="1"/>
        <pt x="174" y="721" on="1"/>
        <pt x="156" y="721" on="1"/>
      </contour>
      <contour>
        <pt x="528" y="146" on="1"/>
        <pt x="516" y="0" on="1"/>
        <pt x="60" y="0" on="1"/>
        <pt x="70" y="190" on="1"/>
        <pt x="60" y="647" on="1"/>
        <pt x="524" y="647" on="1"/>
        <pt x="535" y="633" on="1"/>
        <pt x="522" y="487" on="1"/>
        <pt x="363" y="493" on="1"/>
        <pt x="260" y="493" on="1"/>
        <pt x="258" y="402" on="1"/>
        <pt x="357" y="402" on="1"/>
        <pt x="461" y="405" on="1"/>
        <pt x="472" y="391" on="1"/>
        <pt x="460" y="245" on="1"/>
        <pt x="344" y="248" on="1"/>
        <pt x="254" y="248" on="1"/>
        <pt x="253" y="210" on="1"/>
        <pt x="255" y="154" on="1"/>
        <pt x="351" y="154" on="1"/>
        <pt x="517" y="160" on="1"/>
      </contour>
    </TTGlyph>
    <TTGlyph name="Ecircumflexacute" xMin="60" yMin="0" xMax="535" yMax="1052">
      <component glyphName="E" x="0" y="0" flags="0x1000"/>
      <component glyphName="circumflexacute" x="98" y="175" flags="0x1000"/>
    </TTGlyph>
    <TTGlyph name="Ecircumflexdotbelow" xMin="60" yMin="-231" xMax="535" yMax="916">
      <contour>
        <pt x="122" y="797" on="1"/>
        <pt x="212" y="859" on="0"/>
        <pt x="275" y="916" on="1"/>
        <pt x="309" y="916" on="1"/>
        <pt x="372" y="859" on="0"/>
        <pt x="462" y="797" on="1"/>
        <pt x="428" y="721" on="1"/>
        <pt x="410" y="721" on="1"/>
        <pt x="292" y="781" on="1"/>
        <pt x="174" y="721" on="1"/>
        <pt x="156" y="721" on="1"/>
      </contour>
      <contour>
        <pt x="528" y="146" on="1"/>
        <pt x="516" y="0" on="1"/>
        <pt x="60" y="0" on="1"/>
        <pt x="70" y="190" on="1"/>
        <pt x="60" y="647" on="1"/>
        <pt x="524" y="647" on="1"/>
        <pt x="535" y="633" on="1"/>
        <pt x="522" y="487" on="1"/>
        <pt x="363" y="493" on="1"/>
        <pt x="260" y="493" on="1"/>
        <pt x="258" y="402" on="1"/>
        <pt x="357" y="402" on="1"/>
        <pt x="461" y="405" on="1"/>
        <pt x="472" y="391" on="1"/>
        <pt x="460" y="245" on="1"/>
        <pt x="344" y="248" on="1"/>
        <pt x="254" y="248" on="1"/>
        <pt x="253" y="210" on="1"/>
        <pt x="255" y="154" on="1"/>
        <pt x="351" y="154" on="1"/>
        <pt x="517" y="160" on="1"/>
      </contour>
      <contour>
        <pt x="358" y="-32" on="0"/>
        <pt x="407" y="-82" on="0"/>
        <pt x="407" y="-127" on="1"/>
        <pt x="407" y="-175" on="0"/>
        <pt x="353" y="-231" on="0"/>
        <pt x="306" y="-231" on="1"/>
        <pt x="260" y="-231" on="0"/>
        <pt x="212" y="-182" on="0"/>
        <pt x="212" y="-136" on="1"/>
        <pt x="212" y="-88" on="0"/>
        <pt x="267" y="-32" on="0"/>
        <pt x="314" y="-32" on="1"/>
      </contour>
    </TTGlyph>
    <TTGlyph name="Ecircumflexgrave" xMin="60" yMin="0" xMax="535" yMax="1052">
      <component glyphName="E" x="0" y="0" flags="0x1000"/>
      <component glyphName="circumflexgrave" x="98" y="175" flags="0x1000"/>
    </TTGlyph>
    <TTGlyph name="Ecircumflexhookabove" xMin="60" yMin="0" xMax="535" yMax="1101">
      <contour>
        <pt x="343" y="1023" on="0"/>
        <pt x="310" y="998" on="1"/>
        <pt x="282" y="1043" on="1"/>
        <pt x="307" y="1070" on="0"/>
        <pt x="371" y="1101" on="0"/>
        <pt x="403" y="1101" on="1"/>
        <pt x="444" y="1101" on="0"/>
        <pt x="499" y="1055" on="0"/>
        <pt x="499" y="1017" on="1"/>
        <pt x="499" y="997" on="0"/>
        <pt x="474" y="960" on="0"/>
        <pt x="440" y="930" on="1"/>
        <pt x="466" y="889" on="1"/>
        <pt x="405" y="851" on="1"/>
        <pt x="354" y="928" on="1"/>
        <pt x="377" y="944" on="0"/>
        <pt x="405" y="984" on="0"/>
        <pt x="405" y="1000" on="1"/>
        <pt x="405" y="1023" on="0"/>
        <pt x="377" y="1023" on="1"/>
      </contour>
      <contour>
        <pt x="121" y="777" on="1"/>
        <pt x="211" y="839" on="0"/>
        <pt x="274" y="896" on="1"/>
        <pt x="308" y="896" on="1"/>
        <pt x="371" y="839" on="0"/>
        <pt x="461" y="777" on="1"/>
        <pt x="427" y="701" on="1"/>
        <pt x="409" y="701" on="1"/>
        <pt x="291" y="761" on="1"/>
        <pt x="173" y="701" on="1"/>
        <pt x="155" y="701" on="1"/>
      </contour>
      <contour>
        <pt x="528" y="146" on="1"/>
        <pt x="516" y="0" on="1"/>
        <pt x="60" y="0" on="1"/>
        <pt x="70" y="190" on="1"/>
        <pt x="60" y="647" on="1"/>
        <pt x="524" y="647" on="1"/>
        <pt x="535" y="633" on="1"/>
        <pt x="522" y="487" on="1"/>
        <pt x="363" y="493" on="1"/>
        <pt x="260" y="493" on="1"/>
        <pt x="258" y="402" on="1"/>
        <pt x="357" y="402" on="1"/>
        <pt x="461" y="405" on="1"/>
        <pt x="472" y="391" on="1"/>
        <pt x="460" y="245" on="1"/>
        <pt x="344" y="248" on="1"/>
        <pt x="254" y="248" on="1"/>
        <pt x="253" y="210" on="1"/>
        <pt x="255" y="154" on="1"/>
        <pt x="351" y="154" on="1"/>
        <pt x="517" y="160" on="1"/>
      </contour>
    </TTGlyph>
    <TTGlyph name="Ecircumflextilde" xMin="60" yMin="0" xMax="535" yMax="1052">
      <component glyphName="E" x="0" y="0" flags="0x1000"/>
      <component glyphName="circumflexgrave" x="98" y="175" flags="0x1000"/>
    </TTGlyph>
    <TTGlyph name="Edieresis" xMin="60" yMin="0" xMax="535" yMax="892">
      <contour>
        <pt x="153" y="719" on="0"/>
        <pt x="111" y="762" on="0"/>
        <pt x="111" y="802" on="1"/>
        <pt x="111" y="844" on="0"/>
        <pt x="159" y="892" on="0"/>
        <pt x="200" y="892" on="1"/>
        <pt x="238" y="892" on="0"/>
        <pt x="281" y="849" on="0"/>
        <pt x="281" y="810" on="1"/>
        <pt x="281" y="768" on="0"/>
        <pt x="234" y="719" on="0"/>
        <pt x="193" y="719" on="1"/>
      </contour>
      <contour>
        <pt x="346" y="719" on="0"/>
        <pt x="304" y="762" on="0"/>
        <pt x="304" y="802" on="1"/>
        <pt x="304" y="844" on="0"/>
        <pt x="352" y="892" on="0"/>
        <pt x="393" y="892" on="1"/>
        <pt x="431" y="892" on="0"/>
        <pt x="474" y="849" on="0"/>
        <pt x="474" y="810" on="1"/>
        <pt x="474" y="768" on="0"/>
        <pt x="427" y="719" on="0"/>
        <pt x="386" y="719" on="1"/>
      </contour>
      <contour>
        <pt x="528" y="146" on="1"/>
        <pt x="516" y="0" on="1"/>
        <pt x="60" y="0" on="1"/>
        <pt x="70" y="190" on="1"/>
        <pt x="60" y="647" on="1"/>
        <pt x="524" y="647" on="1"/>
        <pt x="535" y="633" on="1"/>
        <pt x="522" y="487" on="1"/>
        <pt x="363" y="493" on="1"/>
        <pt x="260" y="493" on="1"/>
        <pt x="258" y="402" on="1"/>
        <pt x="357" y="402" on="1"/>
        <pt x="461" y="405" on="1"/>
        <pt x="472" y="391" on="1"/>
        <pt x="460" y="245" on="1"/>
        <pt x="344" y="248" on="1"/>
        <pt x="254" y="248" on="1"/>
        <pt x="253" y="210" on="1"/>
        <pt x="255" y="154" on="1"/>
        <pt x="351" y="154" on="1"/>
        <pt x="517" y="160" on="1"/>
      </contour>
    </TTGlyph>
    <TTGlyph name="Edotaccent" xMin="60" yMin="0" xMax="535" yMax="903">
      <contour>
        <pt x="242" y="704" on="0"/>
        <pt x="194" y="753" on="0"/>
        <pt x="194" y="799" on="1"/>
        <pt x="194" y="847" on="0"/>
        <pt x="249" y="903" on="0"/>
        <pt x="296" y="903" on="1"/>
        <pt x="340" y="903" on="0"/>
        <pt x="389" y="853" on="0"/>
        <pt x="389" y="808" on="1"/>
        <pt x="389" y="760" on="0"/>
        <pt x="335" y="704" on="0"/>
        <pt x="288" y="704" on="1"/>
      </contour>
      <contour>
        <pt x="528" y="146" on="1"/>
        <pt x="516" y="0" on="1"/>
        <pt x="60" y="0" on="1"/>
        <pt x="70" y="190" on="1"/>
        <pt x="60" y="647" on="1"/>
        <pt x="524" y="647" on="1"/>
        <pt x="535" y="633" on="1"/>
        <pt x="522" y="487" on="1"/>
        <pt x="363" y="493" on="1"/>
        <pt x="260" y="493" on="1"/>
        <pt x="258" y="402" on="1"/>
        <pt x="357" y="402" on="1"/>
        <pt x="461" y="405" on="1"/>
        <pt x="472" y="391" on="1"/>
        <pt x="460" y="245" on="1"/>
        <pt x="344" y="248" on="1"/>
        <pt x="254" y="248" on="1"/>
        <pt x="253" y="210" on="1"/>
        <pt x="255" y="154" on="1"/>
        <pt x="351" y="154" on="1"/>
        <pt x="517" y="160" on="1"/>
      </contour>
    </TTGlyph>
    <TTGlyph name="Edotbelow" xMin="60" yMin="-231" xMax="535" yMax="647">
      <contour>
        <pt x="528" y="146" on="1"/>
        <pt x="516" y="0" on="1"/>
        <pt x="60" y="0" on="1"/>
        <pt x="70" y="190" on="1"/>
        <pt x="60" y="647" on="1"/>
        <pt x="524" y="647" on="1"/>
        <pt x="535" y="633" on="1"/>
        <pt x="522" y="487" on="1"/>
        <pt x="363" y="493" on="1"/>
        <pt x="260" y="493" on="1"/>
        <pt x="258" y="402" on="1"/>
        <pt x="357" y="402" on="1"/>
        <pt x="461" y="405" on="1"/>
        <pt x="472" y="391" on="1"/>
        <pt x="460" y="245" on="1"/>
        <pt x="344" y="248" on="1"/>
        <pt x="254" y="248" on="1"/>
        <pt x="253" y="210" on="1"/>
        <pt x="255" y="154" on="1"/>
        <pt x="351" y="154" on="1"/>
        <pt x="517" y="160" on="1"/>
      </contour>
      <contour>
        <pt x="358" y="-32" on="0"/>
        <pt x="407" y="-82" on="0"/>
        <pt x="407" y="-127" on="1"/>
        <pt x="407" y="-175" on="0"/>
        <pt x="353" y="-231" on="0"/>
        <pt x="306" y="-231" on="1"/>
        <pt x="260" y="-231" on="0"/>
        <pt x="212" y="-182" on="0"/>
        <pt x="212" y="-136" on="1"/>
        <pt x="212" y="-88" on="0"/>
        <pt x="267" y="-32" on="0"/>
        <pt x="314" y="-32" on="1"/>
      </contour>
    </TTGlyph>
    <TTGlyph name="Egrave" xMin="60" yMin="0" xMax="535" yMax="918">
      <contour>
        <pt x="288" y="739" on="0"/>
        <pt x="156" y="781" on="1"/>
        <pt x="150" y="797" on="1"/>
        <pt x="199" y="914" on="1"/>
        <pt x="216" y="918" on="1"/>
        <pt x="323" y="855" on="0"/>
        <pt x="441" y="795" on="1"/>
        <pt x="411" y="716" on="1"/>
        <pt x="394" y="712" on="1"/>
      </contour>
      <contour>
        <pt x="528" y="146" on="1"/>
        <pt x="516" y="0" on="1"/>
        <pt x="60" y="0" on="1"/>
        <pt x="70" y="190" on="1"/>
        <pt x="60" y="647" on="1"/>
        <pt x="524" y="647" on="1"/>
        <pt x="535" y="633" on="1"/>
        <pt x="522" y="487" on="1"/>
        <pt x="363" y="493" on="1"/>
        <pt x="260" y="493" on="1"/>
        <pt x="258" y="402" on="1"/>
        <pt x="357" y="402" on="1"/>
        <pt x="461" y="405" on="1"/>
        <pt x="472" y="391" on="1"/>
        <pt x="460" y="245" on="1"/>
        <pt x="344" y="248" on="1"/>
        <pt x="254" y="248" on="1"/>
        <pt x="253" y="210" on="1"/>
        <pt x="255" y="154" on="1"/>
        <pt x="351" y="154" on="1"/>
        <pt x="517" y="160" on="1"/>
      </contour>
    </TTGlyph>
    <TTGlyph name="Ehookabove" xMin="60" yMin="0" xMax="535" yMax="948">
      <component glyphName="E" x="0" y="0" flags="0x1000"/>
      <component glyphName="hookabove" x="98" y="175" flags="0x1000"/>
    </TTGlyph>
    <TTGlyph name="Emacron" xMin="60" yMin="0" xMax="535" yMax="866">
      <component glyphName="E" x="0" y="0" flags="0x1000"/>
      <component glyphName="macron" x="98" y="175" flags="0x1000"/>
    </TTGlyph>
    <TTGlyph name="Eng" xMin="60" yMin="-182" xMax="650" yMax="651">
      <contour>
        <pt x="645" y="54" on="1"/>
        <pt x="645" y="-9" on="0"/>
        <pt x="603" y="-95" on="0"/>
        <pt x="506" y="-157" on="0"/>
        <pt x="420" y="-182" on="1"/>
        <pt x="368" y="-79" on="1"/>
        <pt x="368" y="-63" on="1"/>
        <pt x="428" y="-35" on="0"/>
        <pt x="447" y="0" on="1"/>
        <pt x="247" y="346" on="1"/>
        <pt x="235" y="346" on="1"/>
        <pt x="234" y="234" on="1"/>
        <pt x="242" y="0" on="1"/>
        <pt x="60" y="0" on="1"/>
        <pt x="70" y="190" on="1"/>
        <pt x="60" y="647" on="1"/>
        <pt x="278" y="647" on="1"/>
        <pt x="460" y="321" on="1"/>
        <pt x="472" y="321" on="1"/>
        <pt x="466" y="640" on="1"/>
        <pt x="650" y="651" on="1"/>
        <pt x="639" y="211" on="1"/>
      </contour>
    </TTGlyph>
    <TTGlyph name="Eogonek" xMin="60" yMin="-197" xMax="536" yMax="647">
      <contour>
        <pt x="476" y="-197" on="0"/>
        <pt x="425" y="-197" on="1"/>
        <pt x="377" y="-197" on="0"/>
        <pt x="321" y="-142" on="0"/>
        <pt x="321" y="-100" on="1"/>
        <pt x="321" y="-53" on="0"/>
        <pt x="354" y="-9" on="1"/>
        <pt x="361" y="0" on="1"/>
        <pt x="60" y="0" on="1"/>
        <pt x="70" y="190" on="1"/>
        <pt x="60" y="647" on="1"/>
        <pt x="524" y="647" on="1"/>
        <pt x="535" y="633" on="1"/>
        <pt x="522" y="487" on="1"/>
        <pt x="363" y="493" on="1"/>
        <pt x="260" y="493" on="1"/>
        <pt x="258" y="402" on="1"/>
        <pt x="357" y="402" on="1"/>
        <pt x="461" y="405" on="1"/>
        <pt x="472" y="391" on="1"/>
        <pt x="460" y="245" on="1"/>
        <pt x="344" y="248" on="1"/>
        <pt x="254" y="248" on="1"/>
        <pt x="253" y="210" on="1"/>
        <pt x="255" y="154" on="1"/>
        <pt x="351" y="154" on="1"/>
        <pt x="517" y="160" on="1"/>
        <pt x="528" y="146" on="1"/>
        <pt x="516" y="0" on="1"/>
        <pt x="448" y="0" on="1"/>
        <pt x="433" y="-22" on="1"/>
        <pt x="417" y="-46" on="0"/>
        <pt x="417" y="-66" on="1"/>
        <pt x="417" y="-99" on="0"/>
        <pt x="453" y="-99" on="1"/>
        <pt x="482" y="-99" on="0"/>
        <pt x="514" y="-79" on="1"/>
        <pt x="524" y="-79" on="1"/>
        <pt x="536" y="-151" on="1"/>
      </contour>
    </TTGlyph>
    <TTGlyph name="Eth" xMin="19" yMin="-9" xMax="678" yMax="651">
      <contour>
        <pt x="525" y="651" on="0"/>
        <pt x="678" y="496" on="0"/>
        <pt x="678" y="350" on="1"/>
        <pt x="678" y="177" on="0"/>
        <pt x="500" y="-9" on="0"/>
        <pt x="334" y="-9" on="1"/>
        <pt x="230" y="-9" on="0"/>
        <pt x="90" y="0" on="1"/>
        <pt x="100" y="190" on="1"/>
        <pt x="99" y="250" on="1"/>
        <pt x="28" y="250" on="1"/>
        <pt x="19" y="263" on="1"/>
        <pt x="26" y="380" on="1"/>
        <pt x="96" y="380" on="1"/>
        <pt x="90" y="647" on="1"/>
        <pt x="382" y="651" on="1"/>
      </contour>
      <contour>
        <pt x="419" y="140" on="0"/>
        <pt x="468" y="215" on="0"/>
        <pt x="468" y="301" on="1"/>
        <pt x="468" y="374" on="0"/>
        <pt x="448" y="458" on="0"/>
        <pt x="404" y="495" on="0"/>
        <pt x="365" y="495" on="1"/>
        <pt x="327" y="495" on="0"/>
        <pt x="290" y="491" on="1"/>
        <pt x="287" y="380" on="1"/>
        <pt x="371" y="380" on="1"/>
        <pt x="380" y="367" on="1"/>
        <pt x="373" y="250" on="1"/>
        <pt x="284" y="250" on="1"/>
        <pt x="283" y="210" on="1"/>
        <pt x="285" y="148" on="1"/>
        <pt x="345" y="140" on="0"/>
        <pt x="372" y="140" on="1"/>
      </contour>
    </TTGlyph>
    <TTGlyph name="Etilde" xMin="60" yMin="0" xMax="535" yMax="916">
      <component glyphName="E" x="0" y="0" flags="0x1000"/>
      <component glyphName="tilde" x="98" y="175" flags="0x1000"/>
    </TTGlyph>
    <TTGlyph name="Euro" xMin="-4" yMin="-9" xMax="451" yMax="522">
      <contour>
        <pt x="-4" y="279" on="1"/>
        <pt x="1" y="351" on="1"/>
        <pt x="69" y="351" on="1"/>
        <pt x="94" y="433" on="0"/>
        <pt x="226" y="522" on="0"/>
        <pt x="326" y="522" on="1"/>
        <pt x="388" y="522" on="0"/>
        <pt x="451" y="505" on="1"/>
        <pt x="421" y="361" on="1"/>
        <pt x="410" y="353" on="1"/>
        <pt x="364" y="374" on="0"/>
        <pt x="319" y="374" on="1"/>
        <pt x="281" y="374" on="0"/>
        <pt x="265" y="351" on="1"/>
        <pt x="359" y="351" on="1"/>
        <pt x="366" y="344" on="1"/>
        <pt x="361" y="269" on="1"/>
        <pt x="2" y="269" on="1"/>
      </contour>
      <contour>
        <pt x="373" y="138" on="0"/>
        <pt x="421" y="151" on="1"/>
        <pt x="435" y="142" on="1"/>
        <pt x="421" y="-1" on="1"/>
        <pt x="385" y="-9" on="0"/>
        <pt x="319" y="-9" on="1"/>
        <pt x="102" y="-9" on="0"/>
        <pt x="62" y="163" on="1"/>
        <pt x="2" y="163" on="1"/>
        <pt x="-4" y="171" on="1"/>
        <pt x="1" y="245" on="1"/>
        <pt x="359" y="245" on="1"/>
        <pt x="366" y="236" on="1"/>
        <pt x="361" y="163" on="1"/>
        <pt x="270" y="163" on="1"/>
        <pt x="289" y="138" on="0"/>
        <pt x="330" y="138" on="1"/>
      </contour>
    </TTGlyph>
    <TTGlyph name="F" xMin="60" yMin="0" xMax="503" yMax="647">
      <contour>
        <pt x="257" y="377" on="1"/>
        <pt x="325" y="377" on="1"/>
        <pt x="441" y="380" on="1"/>
        <pt x="452" y="366" on="1"/>
        <pt x="440" y="220" on="1"/>
        <pt x="311" y="223" on="1"/>
        <pt x="253" y="223" on="1"/>
        <pt x="253" y="210" on="1"/>
        <pt x="261" y="0" on="1"/>
        <pt x="60" y="0" on="1"/>
        <pt x="70" y="190" on="1"/>
        <pt x="60" y="647" on="1"/>
        <pt x="492" y="647" on="1"/>
        <pt x="503" y="633" on="1"/>
        <pt x="490" y="487" on="1"/>
        <pt x="330" y="493" on="1"/>
        <pt x="260" y="493" on="1"/>
      </contour>
    </TTGlyph>
    <TTGlyph name="G" xMin="17" yMin="-12" xMax="569" yMax="658">
      <contour>
        <pt x="490" y="658" on="0"/>
        <pt x="569" y="628" on="1"/>
        <pt x="526" y="451" on="1"/>
        <pt x="510" y="451" on="1"/>
        <pt x="460" y="476" on="0"/>
        <pt x="387" y="498" on="0"/>
        <pt x="344" y="498" on="1"/>
        <pt x="298" y="498" on="0"/>
        <pt x="249" y="468" on="0"/>
        <pt x="227" y="392" on="0"/>
        <pt x="227" y="320" on="1"/>
        <pt x="227" y="247" on="0"/>
        <pt x="249" y="170" on="0"/>
        <pt x="302" y="139" on="0"/>
        <pt x="352" y="139" on="1"/>
        <pt x="366" y="139" on="0"/>
        <pt x="388" y="143" on="1"/>
        <pt x="388" y="175" on="1"/>
        <pt x="385" y="284" on="1"/>
        <pt x="568" y="297" on="1"/>
        <pt x="565" y="209" on="1"/>
        <pt x="565" y="32" on="1"/>
        <pt x="449" y="-12" on="0"/>
        <pt x="334" y="-12" on="1"/>
        <pt x="177" y="-12" on="0"/>
        <pt x="17" y="155" on="0"/>
        <pt x="17" y="310" on="1"/>
        <pt x="17" y="480" on="0"/>
        <pt x="206" y="658" on="0"/>
        <pt x="382" y="658" on="1"/>
      </contour>
    </TTGlyph>
    <TTGlyph name="Gbreve" xMin="17" yMin="-12" xMax="569" yMax="900">
      <component glyphName="G" x="0" y="0" flags="0x1000"/>
      <component glyphName="breve.cap" x="134" y="175" flags="0x1000"/>
    </TTGlyph>
    <TTGlyph name="Gcircumflex" xMin="17" yMin="-12" xMax="569" yMax="916">
      <contour>
        <pt x="248" y="859" on="0"/>
        <pt x="311" y="916" on="1"/>
        <pt x="345" y="916" on="1"/>
        <pt x="408" y="859" on="0"/>
        <pt x="498" y="797" on="1"/>
        <pt x="464" y="721" on="1"/>
        <pt x="446" y="721" on="1"/>
        <pt x="328" y="781" on="1"/>
        <pt x="210" y="721" on="1"/>
        <pt x="192" y="721" on="1"/>
        <pt x="158" y="797" on="1"/>
      </contour>
      <contour>
        <pt x="490" y="658" on="0"/>
        <pt x="569" y="628" on="1"/>
        <pt x="526" y="451" on="1"/>
        <pt x="510" y="451" on="1"/>
        <pt x="460" y="476" on="0"/>
        <pt x="387" y="498" on="0"/>
        <pt x="344" y="498" on="1"/>
        <pt x="298" y="498" on="0"/>
        <pt x="249" y="468" on="0"/>
        <pt x="227" y="392" on="0"/>
        <pt x="227" y="320" on="1"/>
        <pt x="227" y="247" on="0"/>
        <pt x="249" y="170" on="0"/>
        <pt x="302" y="139" on="0"/>
        <pt x="352" y="139" on="1"/>
        <pt x="366" y="139" on="0"/>
        <pt x="388" y="143" on="1"/>
        <pt x="388" y="175" on="1"/>
        <pt x="385" y="284" on="1"/>
        <pt x="568" y="297" on="1"/>
        <pt x="565" y="209" on="1"/>
        <pt x="565" y="32" on="1"/>
        <pt x="449" y="-12" on="0"/>
        <pt x="334" y="-12" on="1"/>
        <pt x="177" y="-12" on="0"/>
        <pt x="17" y="155" on="0"/>
        <pt x="17" y="310" on="1"/>
        <pt x="17" y="480" on="0"/>
        <pt x="206" y="658" on="0"/>
        <pt x="382" y="658" on="1"/>
      </contour>
    </TTGlyph>
    <TTGlyph name="Gcommaaccent" xMin="17" yMin="-304" xMax="569" yMax="658">
      <contour>
        <pt x="490" y="658" on="0"/>
        <pt x="569" y="628" on="1"/>
        <pt x="526" y="451" on="1"/>
        <pt x="510" y="451" on="1"/>
        <pt x="460" y="476" on="0"/>
        <pt x="387" y="498" on="0"/>
        <pt x="344" y="498" on="1"/>
        <pt x="298" y="498" on="0"/>
        <pt x="249" y="468" on="0"/>
        <pt x="227" y="392" on="0"/>
        <pt x="227" y="320" on="1"/>
        <pt x="227" y="247" on="0"/>
        <pt x="249" y="170" on="0"/>
        <pt x="302" y="139" on="0"/>
        <pt x="352" y="139" on="1"/>
        <pt x="366" y="139" on="0"/>
        <pt x="388" y="143" on="1"/>
        <pt x="388" y="175" on="1"/>
        <pt x="385" y="284" on="1"/>
        <pt x="568" y="297" on="1"/>
        <pt x="565" y="209" on="1"/>
        <pt x="565" y="32" on="1"/>
        <pt x="449" y="-12" on="0"/>
        <pt x="334" y="-12" on="1"/>
        <pt x="177" y="-12" on="0"/>
        <pt x="17" y="155" on="0"/>
        <pt x="17" y="310" on="1"/>
        <pt x="17" y="480" on="0"/>
        <pt x="206" y="658" on="0"/>
        <pt x="382" y="658" on="1"/>
      </contour>
      <contour>
        <pt x="391" y="-65" on="0"/>
        <pt x="391" y="-116" on="1"/>
        <pt x="391" y="-166" on="0"/>
        <pt x="328" y="-257" on="0"/>
        <pt x="261" y="-304" on="1"/>
        <pt x="209" y="-258" on="1"/>
        <pt x="207" y="-246" on="1"/>
        <pt x="255" y="-204" on="0"/>
        <pt x="255" y="-153" on="1"/>
        <pt x="255" y="-117" on="0"/>
        <pt x="227" y="-89" on="1"/>
        <pt x="227" y="-75" on="1"/>
        <pt x="288" y="-40" on="0"/>
        <pt x="350" y="-25" on="1"/>
      </contour>
    </TTGlyph>
    <TTGlyph name="Gdieresis" xMin="17" yMin="-12" xMax="569" yMax="892">
      <contour>
        <pt x="274" y="892" on="0"/>
        <pt x="317" y="849" on="0"/>
        <pt x="317" y="810" on="1"/>
        <pt x="317" y="768" on="0"/>
        <pt x="270" y="719" on="0"/>
        <pt x="229" y="719" on="1"/>
        <pt x="189" y="719" on="0"/>
        <pt x="147" y="762" on="0"/>
        <pt x="147" y="802" on="1"/>
        <pt x="147" y="844" on="0"/>
        <pt x="195" y="892" on="0"/>
        <pt x="236" y="892" on="1"/>
      </contour>
      <contour>
        <pt x="467" y="892" on="0"/>
        <pt x="510" y="849" on="0"/>
        <pt x="510" y="810" on="1"/>
        <pt x="510" y="768" on="0"/>
        <pt x="463" y="719" on="0"/>
        <pt x="422" y="719" on="1"/>
        <pt x="382" y="719" on="0"/>
        <pt x="340" y="762" on="0"/>
        <pt x="340" y="802" on="1"/>
        <pt x="340" y="844" on="0"/>
        <pt x="388" y="892" on="0"/>
        <pt x="429" y="892" on="1"/>
      </contour>
      <contour>
        <pt x="490" y="658" on="0"/>
        <pt x="569" y="628" on="1"/>
        <pt x="526" y="451" on="1"/>
        <pt x="510" y="451" on="1"/>
        <pt x="460" y="476" on="0"/>
        <pt x="387" y="498" on="0"/>
        <pt x="344" y="498" on="1"/>
        <pt x="298" y="498" on="0"/>
        <pt x="249" y="468" on="0"/>
        <pt x="227" y="392" on="0"/>
        <pt x="227" y="320" on="1"/>
        <pt x="227" y="247" on="0"/>
        <pt x="249" y="170" on="0"/>
        <pt x="302" y="139" on="0"/>
        <pt x="352" y="139" on="1"/>
        <pt x="366" y="139" on="0"/>
        <pt x="388" y="143" on="1"/>
        <pt x="388" y="175" on="1"/>
        <pt x="385" y="284" on="1"/>
        <pt x="568" y="297" on="1"/>
        <pt x="565" y="209" on="1"/>
        <pt x="565" y="32" on="1"/>
        <pt x="449" y="-12" on="0"/>
        <pt x="334" y="-12" on="1"/>
        <pt x="177" y="-12" on="0"/>
        <pt x="17" y="155" on="0"/>
        <pt x="17" y="310" on="1"/>
        <pt x="17" y="480" on="0"/>
        <pt x="206" y="658" on="0"/>
        <pt x="382" y="658" on="1"/>
      </contour>
    </TTGlyph>
    <TTGlyph name="Gdotaccent" xMin="17" yMin="-12" xMax="569" yMax="903">
      <contour>
        <pt x="376" y="903" on="0"/>
        <pt x="425" y="853" on="0"/>
        <pt x="425" y="808" on="1"/>
        <pt x="425" y="760" on="0"/>
        <pt x="371" y="704" on="0"/>
        <pt x="324" y="704" on="1"/>
        <pt x="278" y="704" on="0"/>
        <pt x="230" y="753" on="0"/>
        <pt x="230" y="799" on="1"/>
        <pt x="230" y="847" on="0"/>
        <pt x="285" y="903" on="0"/>
        <pt x="332" y="903" on="1"/>
      </contour>
      <contour>
        <pt x="490" y="658" on="0"/>
        <pt x="569" y="628" on="1"/>
        <pt x="526" y="451" on="1"/>
        <pt x="510" y="451" on="1"/>
        <pt x="460" y="476" on="0"/>
        <pt x="387" y="498" on="0"/>
        <pt x="344" y="498" on="1"/>
        <pt x="298" y="498" on="0"/>
        <pt x="249" y="468" on="0"/>
        <pt x="227" y="392" on="0"/>
        <pt x="227" y="320" on="1"/>
        <pt x="227" y="247" on="0"/>
        <pt x="249" y="170" on="0"/>
        <pt x="302" y="139" on="0"/>
        <pt x="352" y="139" on="1"/>
        <pt x="366" y="139" on="0"/>
        <pt x="388" y="143" on="1"/>
        <pt x="388" y="175" on="1"/>
        <pt x="385" y="284" on="1"/>
        <pt x="568" y="297" on="1"/>
        <pt x="565" y="209" on="1"/>
        <pt x="565" y="32" on="1"/>
        <pt x="449" y="-12" on="0"/>
        <pt x="334" y="-12" on="1"/>
        <pt x="177" y="-12" on="0"/>
        <pt x="17" y="155" on="0"/>
        <pt x="17" y="310" on="1"/>
        <pt x="17" y="480" on="0"/>
        <pt x="206" y="658" on="0"/>
        <pt x="382" y="658" on="1"/>
      </contour>
    </TTGlyph>
    <TTGlyph name="Gtilde" xMin="17" yMin="-12" xMax="569" yMax="916">
      <component glyphName="G" x="0" y="0" flags="0x1000"/>
      <component glyphName="tilde" x="134" y="175" flags="0x1000"/>
    </TTGlyph>
    <TTGlyph name="H" xMin="60" yMin="0" xMax="650" yMax="647">
      <contour>
        <pt x="647" y="0" on="1"/>
        <pt x="446" y="0" on="1"/>
        <pt x="456" y="190" on="1"/>
        <pt x="455" y="240" on="1"/>
        <pt x="347" y="242" on="1"/>
        <pt x="254" y="239" on="1"/>
        <pt x="253" y="210" on="1"/>
        <pt x="261" y="0" on="1"/>
        <pt x="60" y="0" on="1"/>
        <pt x="70" y="190" on="1"/>
        <pt x="60" y="647" on="1"/>
        <pt x="264" y="647" on="1"/>
        <pt x="258" y="402" on="1"/>
        <pt x="359" y="400" on="1"/>
        <pt x="451" y="402" on="1"/>
        <pt x="446" y="647" on="1"/>
        <pt x="650" y="647" on="1"/>
        <pt x="639" y="210" on="1"/>
      </contour>
    </TTGlyph>
    <TTGlyph name="Hbar" xMin="10" yMin="0" xMax="734" yMax="647">
      <contour>
        <pt x="652" y="210" on="1"/>
        <pt x="660" y="0" on="1"/>
        <pt x="459" y="0" on="1"/>
        <pt x="469" y="190" on="1"/>
        <pt x="468" y="240" on="1"/>
        <pt x="360" y="242" on="1"/>
        <pt x="267" y="239" on="1"/>
        <pt x="266" y="210" on="1"/>
        <pt x="274" y="0" on="1"/>
        <pt x="73" y="0" on="1"/>
        <pt x="83" y="190" on="1"/>
        <pt x="77" y="472" on="1"/>
        <pt x="18" y="472" on="1"/>
        <pt x="10" y="482" on="1"/>
        <pt x="16" y="573" on="1"/>
        <pt x="75" y="573" on="1"/>
        <pt x="73" y="647" on="1"/>
        <pt x="277" y="647" on="1"/>
        <pt x="275" y="573" on="1"/>
        <pt x="461" y="573" on="1"/>
        <pt x="459" y="647" on="1"/>
        <pt x="663" y="647" on="1"/>
        <pt x="661" y="573" on="1"/>
        <pt x="726" y="573" on="1"/>
        <pt x="734" y="563" on="1"/>
        <pt x="729" y="472" on="1"/>
        <pt x="659" y="472" on="1"/>
      </contour>
      <contour>
        <pt x="273" y="472" on="1"/>
        <pt x="271" y="402" on="1"/>
        <pt x="372" y="400" on="1"/>
        <pt x="464" y="402" on="1"/>
        <pt x="463" y="472" on="1"/>
      </contour>
    </TTGlyph>
    <TTGlyph name="Hcircumflex" xMin="60" yMin="0" xMax="650" yMax="916">
      <contour>
        <pt x="185" y="797" on="1"/>
        <pt x="275" y="859" on="0"/>
        <pt x="338" y="916" on="1"/>
        <pt x="372" y="916" on="1"/>
        <pt x="435" y="859" on="0"/>
        <pt x="525" y="797" on="1"/>
        <pt x="491" y="721" on="1"/>
        <pt x="473" y="721" on="1"/>
        <pt x="355" y="781" on="1"/>
        <pt x="237" y="721" on="1"/>
        <pt x="219" y="721" on="1"/>
      </contour>
      <contour>
        <pt x="647" y="0" on="1"/>
        <pt x="446" y="0" on="1"/>
        <pt x="456" y="190" on="1"/>
        <pt x="455" y="240" on="1"/>
        <pt x="347" y="242" on="1"/>
        <pt x="254" y="239" on="1"/>
        <pt x="253" y="210" on="1"/>
        <pt x="261" y="0" on="1"/>
        <pt x="60" y="0" on="1"/>
        <pt x="70" y="190" on="1"/>
        <pt x="60" y="647" on="1"/>
        <pt x="264" y="647" on="1"/>
        <pt x="258" y="402" on="1"/>
        <pt x="359" y="400" on="1"/>
        <pt x="451" y="402" on="1"/>
        <pt x="446" y="647" on="1"/>
        <pt x="650" y="647" on="1"/>
        <pt x="639" y="210" on="1"/>
      </contour>
    </TTGlyph>
    <TTGlyph name="I" xMin="60" yMin="0" xMax="264" yMax="647">
      <contour>
        <pt x="261" y="0" on="1"/>
        <pt x="60" y="0" on="1"/>
        <pt x="70" y="190" on="1"/>
        <pt x="60" y="647" on="1"/>
        <pt x="264" y="647" on="1"/>
        <pt x="253" y="210" on="1"/>
      </contour>
    </TTGlyph>
    <TTGlyph name="I.ss01" xMin="-100" yMin="0" xMax="403" yMax="513">
      <contour>
        <pt x="236" y="65" on="1"/>
        <pt x="403" y="65" on="1"/>
        <pt x="403" y="0" on="1"/>
        <pt x="-100" y="0" on="1"/>
        <pt x="-100" y="65" on="1"/>
        <pt x="57" y="65" on="1"/>
        <pt x="62" y="149" on="1"/>
        <pt x="55" y="448" on="1"/>
        <pt x="-100" y="448" on="1"/>
        <pt x="-100" y="513" on="1"/>
        <pt x="403" y="513" on="1"/>
        <pt x="403" y="448" on="1"/>
        <pt x="240" y="448" on="1"/>
        <pt x="231" y="168" on="1"/>
      </contour>
    </TTGlyph>
    <TTGlyph name="IJ" xMin="60" yMin="-112" xMax="631" yMax="647">
      <component glyphName="I" x="0" y="0" flags="0x1000"/>
      <component glyphName="J" x="327" y="0" flags="0x1000"/>
    </TTGlyph>
    <TTGlyph name="Iacute" xMin="33" yMin="0" xMax="324" yMax="918">
      <component glyphName="I" x="0" y="0" flags="0x1000"/>
      <component glyphName="acute.cap" x="-13" y="175" flags="0x1000"/>
    </TTGlyph>
    <TTGlyph name="Iacute_J.loclNLD" xMin="33" yMin="-112" xMax="653" yMax="918">
      <component glyphName="I" x="0" y="0" flags="0x1000"/>
      <component glyphName="acute.cap" x="-13" y="175" flags="0x1000"/>
      <component glyphName="J" x="327" y="0" flags="0x1000"/>
      <component glyphName="acute.cap" x="316" y="175" flags="0x1000"/>
    </TTGlyph>
    <TTGlyph name="Ibreve" xMin="-16" yMin="0" xMax="340" yMax="900">
      <component glyphName="I" x="0" y="0" flags="0x1000"/>
      <component glyphName="breve.cap" x="-32" y="175" flags="0x1000"/>
    </TTGlyph>
    <TTGlyph name="Icaron" xMin="-8" yMin="0" xMax="332" yMax="907">
      <component glyphName="I" x="0" y="0" flags="0x1000"/>
      <component glyphName="caron.cap" x="-31" y="175" flags="0x1000"/>
    </TTGlyph>
    <TTGlyph name="Icircumflex" xMin="-8" yMin="0" xMax="332" yMax="916">
      <contour>
        <pt x="82" y="859" on="0"/>
        <pt x="145" y="916" on="1"/>
        <pt x="179" y="916" on="1"/>
        <pt x="242" y="859" on="0"/>
        <pt x="332" y="797" on="1"/>
        <pt x="298" y="721" on="1"/>
        <pt x="280" y="721" on="1"/>
        <pt x="162" y="781" on="1"/>
        <pt x="44" y="721" on="1"/>
        <pt x="26" y="721" on="1"/>
        <pt x="-8" y="797" on="1"/>
      </contour>
      <contour>
        <pt x="261" y="0" on="1"/>
        <pt x="60" y="0" on="1"/>
        <pt x="70" y="190" on="1"/>
        <pt x="60" y="647" on="1"/>
        <pt x="264" y="647" on="1"/>
        <pt x="253" y="210" on="1"/>
      </contour>
    </TTGlyph>
    <TTGlyph name="Idieresis" xMin="-14" yMin="0" xMax="339" yMax="892">
      <contour>
        <pt x="113" y="892" on="0"/>
        <pt x="156" y="849" on="0"/>
        <pt x="156" y="810" on="1"/>
        <pt x="156" y="768" on="0"/>
        <pt x="109" y="719" on="0"/>
        <pt x="68" y="719" on="1"/>
        <pt x="28" y="719" on="0"/>
        <pt x="-14" y="762" on="0"/>
        <pt x="-14" y="802" on="1"/>
        <pt x="-14" y="844" on="0"/>
        <pt x="34" y="892" on="0"/>
        <pt x="75" y="892" on="1"/>
      </contour>
      <contour>
        <pt x="296" y="892" on="0"/>
        <pt x="339" y="849" on="0"/>
        <pt x="339" y="810" on="1"/>
        <pt x="339" y="768" on="0"/>
        <pt x="292" y="719" on="0"/>
        <pt x="251" y="719" on="1"/>
        <pt x="211" y="719" on="0"/>
        <pt x="169" y="762" on="0"/>
        <pt x="169" y="802" on="1"/>
        <pt x="169" y="844" on="0"/>
        <pt x="217" y="892" on="0"/>
        <pt x="258" y="892" on="1"/>
      </contour>
      <contour>
        <pt x="261" y="0" on="1"/>
        <pt x="60" y="0" on="1"/>
        <pt x="70" y="190" on="1"/>
        <pt x="60" y="647" on="1"/>
        <pt x="264" y="647" on="1"/>
        <pt x="253" y="210" on="1"/>
      </contour>
    </TTGlyph>
    <TTGlyph name="Idotaccent" xMin="60" yMin="0" xMax="264" yMax="903">
      <contour>
        <pt x="210" y="903" on="0"/>
        <pt x="259" y="853" on="0"/>
        <pt x="259" y="808" on="1"/>
        <pt x="259" y="760" on="0"/>
        <pt x="205" y="704" on="0"/>
        <pt x="158" y="704" on="1"/>
        <pt x="112" y="704" on="0"/>
        <pt x="64" y="753" on="0"/>
        <pt x="64" y="799" on="1"/>
        <pt x="64" y="847" on="0"/>
        <pt x="119" y="903" on="0"/>
        <pt x="166" y="903" on="1"/>
      </contour>
      <contour>
        <pt x="261" y="0" on="1"/>
        <pt x="60" y="0" on="1"/>
        <pt x="70" y="190" on="1"/>
        <pt x="60" y="647" on="1"/>
        <pt x="264" y="647" on="1"/>
        <pt x="253" y="210" on="1"/>
      </contour>
    </TTGlyph>
    <TTGlyph name="Idotbelow" xMin="58" yMin="-231" xMax="264" yMax="647">
      <contour>
        <pt x="261" y="0" on="1"/>
        <pt x="60" y="0" on="1"/>
        <pt x="70" y="190" on="1"/>
        <pt x="60" y="647" on="1"/>
        <pt x="264" y="647" on="1"/>
        <pt x="253" y="210" on="1"/>
      </contour>
      <contour>
        <pt x="204" y="-32" on="0"/>
        <pt x="253" y="-82" on="0"/>
        <pt x="253" y="-127" on="1"/>
        <pt x="253" y="-175" on="0"/>
        <pt x="199" y="-231" on="0"/>
        <pt x="152" y="-231" on="1"/>
        <pt x="106" y="-231" on="0"/>
        <pt x="58" y="-182" on="0"/>
        <pt x="58" y="-136" on="1"/>
        <pt x="58" y="-88" on="0"/>
        <pt x="113" y="-32" on="0"/>
        <pt x="160" y="-32" on="1"/>
      </contour>
    </TTGlyph>
    <TTGlyph name="Igrave" xMin="19" yMin="0" xMax="310" yMax="918">
      <contour>
        <pt x="192" y="855" on="0"/>
        <pt x="310" y="795" on="1"/>
        <pt x="280" y="716" on="1"/>
        <pt x="263" y="712" on="1"/>
        <pt x="157" y="739" on="0"/>
        <pt x="25" y="781" on="1"/>
        <pt x="19" y="797" on="1"/>
        <pt x="68" y="914" on="1"/>
        <pt x="85" y="918" on="1"/>
      </contour>
      <contour>
        <pt x="261" y="0" on="1"/>
        <pt x="60" y="0" on="1"/>
        <pt x="70" y="190" on="1"/>
        <pt x="60" y="647" on="1"/>
        <pt x="264" y="647" on="1"/>
        <pt x="253" y="210" on="1"/>
      </contour>
    </TTGlyph>
    <TTGlyph name="Ihookabove" xMin="21" yMin="0" xMax="264" yMax="948">
      <component glyphName="I" x="0" y="0" flags="0x1000"/>
      <component glyphName="hookabove" x="-32" y="175" flags="0x1000"/>
    </TTGlyph>
    <TTGlyph name="Imacron" xMin="33" yMin="0" xMax="290" yMax="866">
      <component glyphName="I" x="0" y="0" flags="0x1000"/>
      <component glyphName="macron.i" x="-33" y="175" flags="0x1000"/>
    </TTGlyph>
    <TTGlyph name="Iogonek" xMin="29" yMin="-197" xMax="264" yMax="647">
      <contour>
        <pt x="125" y="-40" on="0"/>
        <pt x="125" y="-68" on="1"/>
        <pt x="125" y="-99" on="0"/>
        <pt x="160" y="-99" on="1"/>
        <pt x="198" y="-99" on="0"/>
        <pt x="228" y="-75" on="1"/>
        <pt x="238" y="-75" on="1"/>
        <pt x="250" y="-148" on="1"/>
        <pt x="191" y="-197" on="0"/>
        <pt x="133" y="-197" on="1"/>
        <pt x="85" y="-197" on="0"/>
        <pt x="29" y="-141" on="0"/>
        <pt x="29" y="-98" on="1"/>
        <pt x="29" y="-51" on="0"/>
        <pt x="60" y="0" on="1"/>
        <pt x="70" y="190" on="1"/>
        <pt x="60" y="647" on="1"/>
        <pt x="264" y="647" on="1"/>
        <pt x="253" y="210" on="1"/>
        <pt x="261" y="0" on="1"/>
        <pt x="151" y="0" on="1"/>
      </contour>
    </TTGlyph>
    <TTGlyph name="Itilde" xMin="-9" yMin="0" xMax="333" yMax="913">
      <component glyphName="I" x="0" y="0" flags="0x1000"/>
      <component glyphName="tilde.i" x="-31" y="175" flags="0x1000"/>
    </TTGlyph>
    <TTGlyph name="J" xMin="7" yMin="-112" xMax="304" yMax="647">
      <contour>
        <pt x="295" y="124" on="1"/>
        <pt x="295" y="61" on="0"/>
        <pt x="253" y="-25" on="0"/>
        <pt x="156" y="-87" on="0"/>
        <pt x="70" y="-112" on="1"/>
        <pt x="18" y="-9" on="1"/>
        <pt x="18" y="7" on="1"/>
        <pt x="69" y="32" on="0"/>
        <pt x="110" y="86" on="0"/>
        <pt x="110" y="130" on="1"/>
        <pt x="110" y="193" on="1"/>
        <pt x="103" y="506" on="1"/>
        <pt x="18" y="503" on="1"/>
        <pt x="7" y="516" on="1"/>
        <pt x="15" y="647" on="1"/>
        <pt x="304" y="647" on="1"/>
        <pt x="293" y="213" on="1"/>
      </contour>
    </TTGlyph>
    <TTGlyph name="Jcircumflex" xMin="-6" yMin="-112" xMax="334" yMax="916">
      <contour>
        <pt x="-6" y="797" on="1"/>
        <pt x="84" y="859" on="0"/>
        <pt x="147" y="916" on="1"/>
        <pt x="181" y="916" on="1"/>
        <pt x="244" y="859" on="0"/>
        <pt x="334" y="797" on="1"/>
        <pt x="300" y="721" on="1"/>
        <pt x="282" y="721" on="1"/>
        <pt x="164" y="781" on="1"/>
        <pt x="46" y="721" on="1"/>
        <pt x="28" y="721" on="1"/>
      </contour>
      <contour>
        <pt x="293" y="213" on="1"/>
        <pt x="295" y="124" on="1"/>
        <pt x="295" y="61" on="0"/>
        <pt x="253" y="-25" on="0"/>
        <pt x="156" y="-87" on="0"/>
        <pt x="70" y="-112" on="1"/>
        <pt x="18" y="-9" on="1"/>
        <pt x="18" y="7" on="1"/>
        <pt x="69" y="32" on="0"/>
        <pt x="110" y="86" on="0"/>
        <pt x="110" y="130" on="1"/>
        <pt x="110" y="193" on="1"/>
        <pt x="103" y="506" on="1"/>
        <pt x="18" y="503" on="1"/>
        <pt x="7" y="516" on="1"/>
        <pt x="15" y="647" on="1"/>
        <pt x="304" y="647" on="1"/>
      </contour>
    </TTGlyph>
    <TTGlyph name="K" xMin="60" yMin="-12" xMax="647" yMax="647">
      <contour>
        <pt x="529" y="197" on="0"/>
        <pt x="647" y="42" on="1"/>
        <pt x="644" y="20" on="1"/>
        <pt x="539" y="-3" on="0"/>
        <pt x="444" y="-12" on="1"/>
        <pt x="422" y="0" on="1"/>
        <pt x="320" y="175" on="0"/>
        <pt x="255" y="297" on="1"/>
        <pt x="253" y="210" on="1"/>
        <pt x="261" y="0" on="1"/>
        <pt x="60" y="0" on="1"/>
        <pt x="70" y="190" on="1"/>
        <pt x="60" y="647" on="1"/>
        <pt x="264" y="647" on="1"/>
        <pt x="257" y="377" on="1"/>
        <pt x="381" y="577" on="1"/>
        <pt x="415" y="647" on="1"/>
        <pt x="627" y="647" on="1"/>
        <pt x="437" y="341" on="1"/>
      </contour>
    </TTGlyph>
    <TTGlyph name="Kcommaaccent" xMin="60" yMin="-304" xMax="647" yMax="647">
      <contour>
        <pt x="529" y="197" on="0"/>
        <pt x="647" y="42" on="1"/>
        <pt x="644" y="20" on="1"/>
        <pt x="539" y="-3" on="0"/>
        <pt x="444" y="-12" on="1"/>
        <pt x="422" y="0" on="1"/>
        <pt x="320" y="175" on="0"/>
        <pt x="255" y="297" on="1"/>
        <pt x="253" y="210" on="1"/>
        <pt x="261" y="0" on="1"/>
        <pt x="60" y="0" on="1"/>
        <pt x="70" y="190" on="1"/>
        <pt x="60" y="647" on="1"/>
        <pt x="264" y="647" on="1"/>
        <pt x="257" y="377" on="1"/>
        <pt x="381" y="577" on="1"/>
        <pt x="415" y="647" on="1"/>
        <pt x="627" y="647" on="1"/>
        <pt x="437" y="341" on="1"/>
      </contour>
      <contour>
        <pt x="407" y="-65" on="0"/>
        <pt x="407" y="-116" on="1"/>
        <pt x="407" y="-166" on="0"/>
        <pt x="344" y="-257" on="0"/>
        <pt x="277" y="-304" on="1"/>
        <pt x="225" y="-258" on="1"/>
        <pt x="223" y="-246" on="1"/>
        <pt x="271" y="-204" on="0"/>
        <pt x="271" y="-153" on="1"/>
        <pt x="271" y="-117" on="0"/>
        <pt x="243" y="-89" on="1"/>
        <pt x="243" y="-75" on="1"/>
        <pt x="304" y="-40" on="0"/>
        <pt x="366" y="-25" on="1"/>
      </contour>
    </TTGlyph>
    <TTGlyph name="L" xMin="55" yMin="0" xMax="452" yMax="647">
      <contour>
        <pt x="440" y="0" on="1"/>
        <pt x="55" y="0" on="1"/>
        <pt x="65" y="190" on="1"/>
        <pt x="55" y="647" on="1"/>
        <pt x="259" y="647" on="1"/>
        <pt x="248" y="210" on="1"/>
        <pt x="250" y="164" on="1"/>
        <pt x="441" y="164" on="1"/>
        <pt x="452" y="150" on="1"/>
      </contour>
    </TTGlyph>
    <TTGlyph name="L.ss01" xMin="-100" yMin="0" xMax="532" yMax="513">
      <contour>
        <pt x="226" y="170" on="1"/>
        <pt x="227" y="153" on="1"/>
        <pt x="379" y="153" on="1"/>
        <pt x="389" y="141" on="1"/>
        <pt x="383" y="65" on="1"/>
        <pt x="532" y="65" on="1"/>
        <pt x="532" y="0" on="1"/>
        <pt x="-100" y="0" on="1"/>
        <pt x="-100" y="65" on="1"/>
        <pt x="55" y="65" on="1"/>
        <pt x="60" y="151" on="1"/>
        <pt x="53" y="448" on="1"/>
        <pt x="-100" y="448" on="1"/>
        <pt x="-100" y="513" on="1"/>
        <pt x="532" y="513" on="1"/>
        <pt x="532" y="448" on="1"/>
        <pt x="235" y="448" on="1"/>
      </contour>
    </TTGlyph>
    <TTGlyph name="Lacute" xMin="55" yMin="0" xMax="452" yMax="918">
      <component glyphName="L" x="0" y="0" flags="0x1000"/>
      <component glyphName="acute.cap" x="47" y="175" flags="0x1000"/>
    </TTGlyph>
    <TTGlyph name="Lcaron" xMin="55" yMin="0" xMax="499" yMax="647">
      <contour>
        <pt x="452" y="150" on="1"/>
        <pt x="440" y="0" on="1"/>
        <pt x="55" y="0" on="1"/>
        <pt x="65" y="190" on="1"/>
        <pt x="55" y="647" on="1"/>
        <pt x="259" y="647" on="1"/>
        <pt x="248" y="210" on="1"/>
        <pt x="250" y="164" on="1"/>
        <pt x="441" y="164" on="1"/>
      </contour>
      <contour>
        <pt x="455" y="358" on="1"/>
        <pt x="373" y="345" on="1"/>
        <pt x="360" y="355" on="1"/>
        <pt x="350" y="593" on="1"/>
        <pt x="489" y="601" on="1"/>
        <pt x="499" y="590" on="1"/>
      </contour>
    </TTGlyph>
    <TTGlyph name="Lcommaaccent" xMin="55" yMin="-304" xMax="452" yMax="647">
      <contour>
        <pt x="440" y="0" on="1"/>
        <pt x="55" y="0" on="1"/>
        <pt x="65" y="190" on="1"/>
        <pt x="55" y="647" on="1"/>
        <pt x="259" y="647" on="1"/>
        <pt x="248" y="210" on="1"/>
        <pt x="250" y="164" on="1"/>
        <pt x="441" y="164" on="1"/>
        <pt x="452" y="150" on="1"/>
      </contour>
      <contour>
        <pt x="325" y="-65" on="0"/>
        <pt x="325" y="-116" on="1"/>
        <pt x="325" y="-166" on="0"/>
        <pt x="262" y="-257" on="0"/>
        <pt x="195" y="-304" on="1"/>
        <pt x="143" y="-258" on="1"/>
        <pt x="141" y="-246" on="1"/>
        <pt x="189" y="-204" on="0"/>
        <pt x="189" y="-153" on="1"/>
        <pt x="189" y="-117" on="0"/>
        <pt x="161" y="-89" on="1"/>
        <pt x="161" y="-75" on="1"/>
        <pt x="222" y="-40" on="0"/>
        <pt x="284" y="-25" on="1"/>
      </contour>
    </TTGlyph>
    <TTGlyph name="Ldot" xMin="55" yMin="0" xMax="494" yMax="647">
      <contour>
        <pt x="452" y="150" on="1"/>
        <pt x="440" y="0" on="1"/>
        <pt x="55" y="0" on="1"/>
        <pt x="65" y="190" on="1"/>
        <pt x="55" y="647" on="1"/>
        <pt x="259" y="647" on="1"/>
        <pt x="248" y="210" on="1"/>
        <pt x="250" y="164" on="1"/>
        <pt x="441" y="164" on="1"/>
      </contour>
      <contour>
        <pt x="445" y="501" on="0"/>
        <pt x="494" y="451" on="0"/>
        <pt x="494" y="406" on="1"/>
        <pt x="494" y="358" on="0"/>
        <pt x="440" y="302" on="0"/>
        <pt x="393" y="302" on="1"/>
        <pt x="347" y="302" on="0"/>
        <pt x="299" y="351" on="0"/>
        <pt x="299" y="397" on="1"/>
        <pt x="299" y="445" on="0"/>
        <pt x="354" y="501" on="0"/>
        <pt x="401" y="501" on="1"/>
      </contour>
    </TTGlyph>
    <TTGlyph name="Lslash" xMin="-14" yMin="0" xMax="472" yMax="647">
      <contour>
        <pt x="460" y="0" on="1"/>
        <pt x="75" y="0" on="1"/>
        <pt x="85" y="190" on="1"/>
        <pt x="85" y="201" on="1"/>
        <pt x="38" y="177" on="1"/>
        <pt x="21" y="186" on="1"/>
        <pt x="-14" y="301" on="1"/>
        <pt x="82" y="349" on="1"/>
        <pt x="75" y="647" on="1"/>
        <pt x="279" y="647" on="1"/>
        <pt x="274" y="446" on="1"/>
        <pt x="341" y="480" on="1"/>
        <pt x="358" y="471" on="1"/>
        <pt x="394" y="357" on="1"/>
        <pt x="270" y="294" on="1"/>
        <pt x="268" y="210" on="1"/>
        <pt x="270" y="164" on="1"/>
        <pt x="461" y="164" on="1"/>
        <pt x="472" y="150" on="1"/>
      </contour>
    </TTGlyph>
    <TTGlyph name="M" xMin="26" yMin="0" xMax="774" yMax="647">
      <contour>
        <pt x="598" y="0" on="1"/>
        <pt x="593" y="196" on="1"/>
        <pt x="582" y="359" on="1"/>
        <pt x="570" y="359" on="1"/>
        <pt x="466" y="61" on="1"/>
        <pt x="315" y="61" on="1"/>
        <pt x="229" y="359" on="1"/>
        <pt x="217" y="359" on="1"/>
        <pt x="203" y="215" on="1"/>
        <pt x="193" y="0" on="1"/>
        <pt x="26" y="0" on="1"/>
        <pt x="89" y="647" on="1"/>
        <pt x="320" y="647" on="1"/>
        <pt x="339" y="555" on="1"/>
        <pt x="396" y="320" on="1"/>
        <pt x="408" y="320" on="1"/>
        <pt x="471" y="548" on="1"/>
        <pt x="494" y="647" on="1"/>
        <pt x="722" y="647" on="1"/>
        <pt x="774" y="0" on="1"/>
      </contour>
    </TTGlyph>
    <TTGlyph name="M.ss01" xMin="-100" yMin="0" xMax="791" yMax="513">
      <contour>
        <pt x="635" y="65" on="1"/>
        <pt x="791" y="65" on="1"/>
        <pt x="791" y="0" on="1"/>
        <pt x="-100" y="0" on="1"/>
        <pt x="-100" y="65" on="1"/>
        <pt x="48" y="65" on="1"/>
        <pt x="87" y="448" on="1"/>
        <pt x="-100" y="448" on="1"/>
        <pt x="-100" y="513" on="1"/>
        <pt x="791" y="513" on="1"/>
        <pt x="791" y="448" on="1"/>
        <pt x="603" y="448" on="1"/>
      </contour>
      <contour>
        <pt x="305" y="448" on="1"/>
        <pt x="308" y="433" on="1"/>
        <pt x="338" y="318" on="1"/>
        <pt x="348" y="318" on="1"/>
        <pt x="383" y="427" on="1"/>
        <pt x="389" y="448" on="1"/>
      </contour>
      <contour>
        <pt x="483" y="178" on="1"/>
        <pt x="479" y="258" on="1"/>
        <pt x="470" y="258" on="1"/>
        <pt x="399" y="93" on="1"/>
        <pt x="267" y="93" on="1"/>
        <pt x="211" y="258" on="1"/>
        <pt x="201" y="258" on="1"/>
        <pt x="196" y="192" on="1"/>
        <pt x="192" y="65" on="1"/>
        <pt x="484" y="65" on="1"/>
      </contour>
    </TTGlyph>
    <TTGlyph name="N" xMin="60" yMin="0" xMax="650" yMax="651">
      <contour>
        <pt x="647" y="0" on="1"/>
        <pt x="429" y="0" on="1"/>
        <pt x="247" y="346" on="1"/>
        <pt x="235" y="346" on="1"/>
        <pt x="234" y="234" on="1"/>
        <pt x="242" y="0" on="1"/>
        <pt x="60" y="0" on="1"/>
        <pt x="70" y="190" on="1"/>
        <pt x="60" y="647" on="1"/>
        <pt x="278" y="647" on="1"/>
        <pt x="460" y="301" on="1"/>
        <pt x="472" y="301" on="1"/>
        <pt x="466" y="640" on="1"/>
        <pt x="650" y="651" on="1"/>
        <pt x="639" y="211" on="1"/>
      </contour>
    </TTGlyph>
    <TTGlyph name="Nacute" xMin="60" yMin="0" xMax="650" yMax="918">
      <component glyphName="N" x="0" y="0" flags="0x1000"/>
      <component glyphName="acute.cap" x="180" y="175" flags="0x1000"/>
    </TTGlyph>
    <TTGlyph name="Ncaron" xMin="60" yMin="0" xMax="650" yMax="907">
      <component glyphName="N" x="0" y="0" flags="0x1000"/>
      <component glyphName="caron.cap" x="162" y="175" flags="0x1000"/>
    </TTGlyph>
    <TTGlyph name="Ncommaaccent" xMin="60" yMin="-304" xMax="650" yMax="651">
      <contour>
        <pt x="647" y="0" on="1"/>
        <pt x="429" y="0" on="1"/>
        <pt x="247" y="346" on="1"/>
        <pt x="235" y="346" on="1"/>
        <pt x="234" y="234" on="1"/>
        <pt x="242" y="0" on="1"/>
        <pt x="60" y="0" on="1"/>
        <pt x="70" y="190" on="1"/>
        <pt x="60" y="647" on="1"/>
        <pt x="278" y="647" on="1"/>
        <pt x="460" y="301" on="1"/>
        <pt x="472" y="301" on="1"/>
        <pt x="466" y="640" on="1"/>
        <pt x="650" y="651" on="1"/>
        <pt x="639" y="211" on="1"/>
      </contour>
      <contour>
        <pt x="448" y="-65" on="0"/>
        <pt x="448" y="-116" on="1"/>
        <pt x="448" y="-166" on="0"/>
        <pt x="385" y="-257" on="0"/>
        <pt x="318" y="-304" on="1"/>
        <pt x="266" y="-258" on="1"/>
        <pt x="264" y="-246" on="1"/>
        <pt x="312" y="-204" on="0"/>
        <pt x="312" y="-153" on="1"/>
        <pt x="312" y="-117" on="0"/>
        <pt x="284" y="-89" on="1"/>
        <pt x="284" y="-75" on="1"/>
        <pt x="345" y="-40" on="0"/>
        <pt x="407" y="-25" on="1"/>
      </contour>
    </TTGlyph>
    <TTGlyph name="Ntilde" xMin="60" yMin="0" xMax="650" yMax="916">
      <component glyphName="N" x="0" y="0" flags="0x1000"/>
      <component glyphName="tilde" x="161" y="175" flags="0x1000"/>
    </TTGlyph>
    <TTGlyph name="O" xMin="17" yMin="-12" xMax="636" yMax="659">
      <contour>
        <pt x="482" y="659" on="0"/>
        <pt x="636" y="492" on="0"/>
        <pt x="636" y="340" on="1"/>
        <pt x="636" y="172" on="0"/>
        <pt x="467" y="-12" on="0"/>
        <pt x="312" y="-12" on="1"/>
        <pt x="171" y="-12" on="0"/>
        <pt x="17" y="157" on="0"/>
        <pt x="17" y="312" on="1"/>
        <pt x="17" y="478" on="0"/>
        <pt x="186" y="659" on="0"/>
        <pt x="341" y="659" on="1"/>
      </contour>
      <contour>
        <pt x="284" y="499" on="0"/>
        <pt x="244" y="472" on="0"/>
        <pt x="227" y="404" on="0"/>
        <pt x="227" y="339" on="1"/>
        <pt x="227" y="256" on="0"/>
        <pt x="245" y="170" on="0"/>
        <pt x="288" y="136" on="0"/>
        <pt x="330" y="136" on="1"/>
        <pt x="369" y="136" on="0"/>
        <pt x="409" y="163" on="0"/>
        <pt x="426" y="232" on="0"/>
        <pt x="426" y="297" on="1"/>
        <pt x="426" y="379" on="0"/>
        <pt x="408" y="465" on="0"/>
        <pt x="365" y="499" on="0"/>
        <pt x="323" y="499" on="1"/>
      </contour>
    </TTGlyph>
    <TTGlyph name="OE" xMin="17" yMin="-12" xMax="883" yMax="659">
      <contour>
        <pt x="401" y="659" on="0"/>
        <pt x="464" y="652" on="1"/>
        <pt x="539" y="647" on="0"/>
        <pt x="550" y="647" on="1"/>
        <pt x="872" y="647" on="1"/>
        <pt x="883" y="633" on="1"/>
        <pt x="870" y="487" on="1"/>
        <pt x="711" y="493" on="1"/>
        <pt x="608" y="493" on="1"/>
        <pt x="606" y="402" on="1"/>
        <pt x="705" y="402" on="1"/>
        <pt x="809" y="405" on="1"/>
        <pt x="820" y="391" on="1"/>
        <pt x="808" y="245" on="1"/>
        <pt x="692" y="248" on="1"/>
        <pt x="601" y="248" on="1"/>
        <pt x="601" y="210" on="1"/>
        <pt x="603" y="154" on="1"/>
        <pt x="699" y="154" on="1"/>
        <pt x="865" y="160" on="1"/>
        <pt x="876" y="146" on="1"/>
        <pt x="864" y="0" on="1"/>
        <pt x="550" y="0" on="1"/>
        <pt x="525" y="1" on="0"/>
        <pt x="439" y="-5" on="1"/>
        <pt x="374" y="-12" on="0"/>
        <pt x="322" y="-12" on="1"/>
        <pt x="176" y="-12" on="0"/>
        <pt x="17" y="158" on="0"/>
        <pt x="17" y="313" on="1"/>
        <pt x="17" y="477" on="0"/>
        <pt x="192" y="659" on="0"/>
        <pt x="348" y="659" on="1"/>
      </contour>
      <contour>
        <pt x="289" y="499" on="0"/>
        <pt x="245" y="468" on="0"/>
        <pt x="227" y="397" on="0"/>
        <pt x="227" y="330" on="1"/>
        <pt x="227" y="257" on="0"/>
        <pt x="247" y="173" on="0"/>
        <pt x="295" y="136" on="0"/>
        <pt x="338" y="136" on="1"/>
        <pt x="390" y="136" on="0"/>
        <pt x="405" y="151" on="1"/>
        <pt x="418" y="164" on="0"/>
        <pt x="417" y="205" on="1"/>
        <pt x="412" y="434" on="1"/>
        <pt x="411" y="472" on="0"/>
        <pt x="401" y="483" on="1"/>
        <pt x="386" y="499" on="0"/>
        <pt x="331" y="499" on="1"/>
      </contour>
    </TTGlyph>
    <TTGlyph name="Oacute" xMin="17" yMin="-12" xMax="636" yMax="918">
      <component glyphName="O" x="0" y="0" flags="0x1000"/>
      <component glyphName="acute.cap" x="152" y="175" flags="0x1000"/>
    </TTGlyph>
    <TTGlyph name="Obreve" xMin="17" yMin="-12" xMax="636" yMax="900">
      <component glyphName="O" x="0" y="0" flags="0x1000"/>
      <component glyphName="breve.cap" x="133" y="175" flags="0x1000"/>
    </TTGlyph>
    <TTGlyph name="Ocaron" xMin="17" yMin="-12" xMax="636" yMax="907">
      <component glyphName="O" x="0" y="0" flags="0x1000"/>
      <component glyphName="caron.cap" x="134" y="175" flags="0x1000"/>
    </TTGlyph>
    <TTGlyph name="Ocircumflex" xMin="17" yMin="-12" xMax="636" yMax="916">
      <contour>
        <pt x="247" y="859" on="0"/>
        <pt x="310" y="916" on="1"/>
        <pt x="344" y="916" on="1"/>
        <pt x="407" y="859" on="0"/>
        <pt x="497" y="797" on="1"/>
        <pt x="463" y="721" on="1"/>
        <pt x="445" y="721" on="1"/>
        <pt x="327" y="781" on="1"/>
        <pt x="209" y="721" on="1"/>
        <pt x="191" y="721" on="1"/>
        <pt x="157" y="797" on="1"/>
      </contour>
      <contour>
        <pt x="482" y="659" on="0"/>
        <pt x="636" y="492" on="0"/>
        <pt x="636" y="340" on="1"/>
        <pt x="636" y="172" on="0"/>
        <pt x="467" y="-12" on="0"/>
        <pt x="312" y="-12" on="1"/>
        <pt x="171" y="-12" on="0"/>
        <pt x="17" y="157" on="0"/>
        <pt x="17" y="312" on="1"/>
        <pt x="17" y="478" on="0"/>
        <pt x="186" y="659" on="0"/>
        <pt x="341" y="659" on="1"/>
      </contour>
      <contour>
        <pt x="284" y="499" on="0"/>
        <pt x="244" y="472" on="0"/>
        <pt x="227" y="404" on="0"/>
        <pt x="227" y="339" on="1"/>
        <pt x="227" y="256" on="0"/>
        <pt x="245" y="170" on="0"/>
        <pt x="288" y="136" on="0"/>
        <pt x="330" y="136" on="1"/>
        <pt x="369" y="136" on="0"/>
        <pt x="409" y="163" on="0"/>
        <pt x="426" y="232" on="0"/>
        <pt x="426" y="297" on="1"/>
        <pt x="426" y="379" on="0"/>
        <pt x="408" y="465" on="0"/>
        <pt x="365" y="499" on="0"/>
        <pt x="323" y="499" on="1"/>
      </contour>
    </TTGlyph>
    <TTGlyph name="Ocircumflexacute" xMin="17" yMin="-12" xMax="636" yMax="1052">
      <component glyphName="O" x="0" y="0" flags="0x1000"/>
      <component glyphName="circumflexacute" x="133" y="175" flags="0x1000"/>
    </TTGlyph>
    <TTGlyph name="Ocircumflexdotbelow" xMin="17" yMin="-231" xMax="636" yMax="916">
      <contour>
        <pt x="247" y="859" on="0"/>
        <pt x="310" y="916" on="1"/>
        <pt x="344" y="916" on="1"/>
        <pt x="407" y="859" on="0"/>
        <pt x="497" y="797" on="1"/>
        <pt x="463" y="721" on="1"/>
        <pt x="445" y="721" on="1"/>
        <pt x="327" y="781" on="1"/>
        <pt x="209" y="721" on="1"/>
        <pt x="191" y="721" on="1"/>
        <pt x="157" y="797" on="1"/>
      </contour>
      <contour>
        <pt x="482" y="659" on="0"/>
        <pt x="636" y="492" on="0"/>
        <pt x="636" y="340" on="1"/>
        <pt x="636" y="172" on="0"/>
        <pt x="467" y="-12" on="0"/>
        <pt x="312" y="-12" on="1"/>
        <pt x="171" y="-12" on="0"/>
        <pt x="17" y="157" on="0"/>
        <pt x="17" y="312" on="1"/>
        <pt x="17" y="478" on="0"/>
        <pt x="186" y="659" on="0"/>
        <pt x="341" y="659" on="1"/>
      </contour>
      <contour>
        <pt x="284" y="499" on="0"/>
        <pt x="244" y="472" on="0"/>
        <pt x="227" y="404" on="0"/>
        <pt x="227" y="339" on="1"/>
        <pt x="227" y="256" on="0"/>
        <pt x="245" y="170" on="0"/>
        <pt x="288" y="136" on="0"/>
        <pt x="330" y="136" on="1"/>
        <pt x="369" y="136" on="0"/>
        <pt x="409" y="163" on="0"/>
        <pt x="426" y="232" on="0"/>
        <pt x="426" y="297" on="1"/>
        <pt x="426" y="379" on="0"/>
        <pt x="408" y="465" on="0"/>
        <pt x="365" y="499" on="0"/>
        <pt x="323" y="499" on="1"/>
      </contour>
      <contour>
        <pt x="380" y="-32" on="0"/>
        <pt x="429" y="-82" on="0"/>
        <pt x="429" y="-127" on="1"/>
        <pt x="429" y="-175" on="0"/>
        <pt x="375" y="-231" on="0"/>
        <pt x="328" y="-231" on="1"/>
        <pt x="282" y="-231" on="0"/>
        <pt x="234" y="-182" on="0"/>
        <pt x="234" y="-136" on="1"/>
        <pt x="234" y="-88" on="0"/>
        <pt x="289" y="-32" on="0"/>
        <pt x="336" y="-32" on="1"/>
      </contour>
    </TTGlyph>
    <TTGlyph name="Ocircumflexgrave" xMin="17" yMin="-12" xMax="636" yMax="1052">
      <component glyphName="O" x="0" y="0" flags="0x1000"/>
      <component glyphName="circumflexgrave" x="133" y="175" flags="0x1000"/>
    </TTGlyph>
    <TTGlyph name="Ocircumflexhookabove" xMin="17" yMin="-12" xMax="636" yMax="1101">
      <contour>
        <pt x="479" y="1101" on="0"/>
        <pt x="534" y="1055" on="0"/>
        <pt x="534" y="1017" on="1"/>
        <pt x="534" y="997" on="0"/>
        <pt x="509" y="960" on="0"/>
        <pt x="475" y="930" on="1"/>
        <pt x="501" y="889" on="1"/>
        <pt x="440" y="851" on="1"/>
        <pt x="389" y="928" on="1"/>
        <pt x="412" y="944" on="0"/>
        <pt x="440" y="984" on="0"/>
        <pt x="440" y="1000" on="1"/>
        <pt x="440" y="1023" on="0"/>
        <pt x="412" y="1023" on="1"/>
        <pt x="378" y="1023" on="0"/>
        <pt x="345" y="998" on="1"/>
        <pt x="317" y="1043" on="1"/>
        <pt x="342" y="1070" on="0"/>
        <pt x="406" y="1101" on="0"/>
        <pt x="438" y="1101" on="1"/>
      </contour>
      <contour>
        <pt x="246" y="839" on="0"/>
        <pt x="309" y="896" on="1"/>
        <pt x="343" y="896" on="1"/>
        <pt x="406" y="839" on="0"/>
        <pt x="496" y="777" on="1"/>
        <pt x="462" y="701" on="1"/>
        <pt x="444" y="701" on="1"/>
        <pt x="326" y="761" on="1"/>
        <pt x="208" y="701" on="1"/>
        <pt x="190" y="701" on="1"/>
        <pt x="156" y="777" on="1"/>
      </contour>
      <contour>
        <pt x="482" y="659" on="0"/>
        <pt x="636" y="492" on="0"/>
        <pt x="636" y="340" on="1"/>
        <pt x="636" y="172" on="0"/>
        <pt x="467" y="-12" on="0"/>
        <pt x="312" y="-12" on="1"/>
        <pt x="171" y="-12" on="0"/>
        <pt x="17" y="157" on="0"/>
        <pt x="17" y="312" on="1"/>
        <pt x="17" y="478" on="0"/>
        <pt x="186" y="659" on="0"/>
        <pt x="341" y="659" on="1"/>
      </contour>
      <contour>
        <pt x="284" y="499" on="0"/>
        <pt x="244" y="472" on="0"/>
        <pt x="227" y="404" on="0"/>
        <pt x="227" y="339" on="1"/>
        <pt x="227" y="256" on="0"/>
        <pt x="245" y="170" on="0"/>
        <pt x="288" y="136" on="0"/>
        <pt x="330" y="136" on="1"/>
        <pt x="369" y="136" on="0"/>
        <pt x="409" y="163" on="0"/>
        <pt x="426" y="232" on="0"/>
        <pt x="426" y="297" on="1"/>
        <pt x="426" y="379" on="0"/>
        <pt x="408" y="465" on="0"/>
        <pt x="365" y="499" on="0"/>
        <pt x="323" y="499" on="1"/>
      </contour>
    </TTGlyph>
    <TTGlyph name="Ocircumflextilde" xMin="17" yMin="-12" xMax="636" yMax="1084">
      <contour>
        <pt x="509" y="1019" on="1"/>
        <pt x="435" y="916" on="1"/>
        <pt x="420" y="911" on="1"/>
        <pt x="397" y="914" on="0"/>
        <pt x="341" y="929" on="1"/>
        <pt x="295" y="942" on="0"/>
        <pt x="281" y="942" on="1"/>
        <pt x="268" y="942" on="0"/>
        <pt x="244" y="921" on="0"/>
        <pt x="223" y="894" on="0"/>
        <pt x="219" y="889" on="1"/>
        <pt x="204" y="889" on="1"/>
        <pt x="152" y="939" on="1"/>
        <pt x="152" y="954" on="1"/>
        <pt x="226" y="1056" on="1"/>
        <pt x="240" y="1062" on="1"/>
        <pt x="260" y="1059" on="0"/>
        <pt x="317" y="1044" on="1"/>
        <pt x="367" y="1031" on="0"/>
        <pt x="380" y="1031" on="1"/>
        <pt x="395" y="1031" on="0"/>
        <pt x="419" y="1055" on="0"/>
        <pt x="442" y="1084" on="1"/>
        <pt x="457" y="1084" on="1"/>
        <pt x="509" y="1034" on="1"/>
      </contour>
      <contour>
        <pt x="246" y="839" on="0"/>
        <pt x="309" y="896" on="1"/>
        <pt x="343" y="896" on="1"/>
        <pt x="406" y="839" on="0"/>
        <pt x="496" y="777" on="1"/>
        <pt x="462" y="701" on="1"/>
        <pt x="444" y="701" on="1"/>
        <pt x="326" y="761" on="1"/>
        <pt x="208" y="701" on="1"/>
        <pt x="190" y="701" on="1"/>
        <pt x="156" y="777" on="1"/>
      </contour>
      <contour>
        <pt x="482" y="659" on="0"/>
        <pt x="636" y="492" on="0"/>
        <pt x="636" y="340" on="1"/>
        <pt x="636" y="172" on="0"/>
        <pt x="467" y="-12" on="0"/>
        <pt x="312" y="-12" on="1"/>
        <pt x="171" y="-12" on="0"/>
        <pt x="17" y="157" on="0"/>
        <pt x="17" y="312" on="1"/>
        <pt x="17" y="478" on="0"/>
        <pt x="186" y="659" on="0"/>
        <pt x="341" y="659" on="1"/>
      </contour>
      <contour>
        <pt x="284" y="499" on="0"/>
        <pt x="244" y="472" on="0"/>
        <pt x="227" y="404" on="0"/>
        <pt x="227" y="339" on="1"/>
        <pt x="227" y="256" on="0"/>
        <pt x="245" y="170" on="0"/>
        <pt x="288" y="136" on="0"/>
        <pt x="330" y="136" on="1"/>
        <pt x="369" y="136" on="0"/>
        <pt x="409" y="163" on="0"/>
        <pt x="426" y="232" on="0"/>
        <pt x="426" y="297" on="1"/>
        <pt x="426" y="379" on="0"/>
        <pt x="408" y="465" on="0"/>
        <pt x="365" y="499" on="0"/>
        <pt x="323" y="499" on="1"/>
      </contour>
    </TTGlyph>
    <TTGlyph name="Odieresis" xMin="17" yMin="-12" xMax="636" yMax="892">
      <contour>
        <pt x="273" y="892" on="0"/>
        <pt x="316" y="849" on="0"/>
        <pt x="316" y="810" on="1"/>
        <pt x="316" y="768" on="0"/>
        <pt x="269" y="719" on="0"/>
        <pt x="228" y="719" on="1"/>
        <pt x="188" y="719" on="0"/>
        <pt x="146" y="762" on="0"/>
        <pt x="146" y="802" on="1"/>
        <pt x="146" y="844" on="0"/>
        <pt x="194" y="892" on="0"/>
        <pt x="235" y="892" on="1"/>
      </contour>
      <contour>
        <pt x="466" y="892" on="0"/>
        <pt x="509" y="849" on="0"/>
        <pt x="509" y="810" on="1"/>
        <pt x="509" y="768" on="0"/>
        <pt x="462" y="719" on="0"/>
        <pt x="421" y="719" on="1"/>
        <pt x="381" y="719" on="0"/>
        <pt x="339" y="762" on="0"/>
        <pt x="339" y="802" on="1"/>
        <pt x="339" y="844" on="0"/>
        <pt x="387" y="892" on="0"/>
        <pt x="428" y="892" on="1"/>
      </contour>
      <contour>
        <pt x="482" y="659" on="0"/>
        <pt x="636" y="492" on="0"/>
        <pt x="636" y="340" on="1"/>
        <pt x="636" y="172" on="0"/>
        <pt x="467" y="-12" on="0"/>
        <pt x="312" y="-12" on="1"/>
        <pt x="171" y="-12" on="0"/>
        <pt x="17" y="157" on="0"/>
        <pt x="17" y="312" on="1"/>
        <pt x="17" y="478" on="0"/>
        <pt x="186" y="659" on="0"/>
        <pt x="341" y="659" on="1"/>
      </contour>
      <contour>
        <pt x="284" y="499" on="0"/>
        <pt x="244" y="472" on="0"/>
        <pt x="227" y="404" on="0"/>
        <pt x="227" y="339" on="1"/>
        <pt x="227" y="256" on="0"/>
        <pt x="245" y="170" on="0"/>
        <pt x="288" y="136" on="0"/>
        <pt x="330" y="136" on="1"/>
        <pt x="369" y="136" on="0"/>
        <pt x="409" y="163" on="0"/>
        <pt x="426" y="232" on="0"/>
        <pt x="426" y="297" on="1"/>
        <pt x="426" y="379" on="0"/>
        <pt x="408" y="465" on="0"/>
        <pt x="365" y="499" on="0"/>
        <pt x="323" y="499" on="1"/>
      </contour>
    </TTGlyph>
    <TTGlyph name="Odotbelow" xMin="17" yMin="-231" xMax="636" yMax="659">
      <contour>
        <pt x="482" y="659" on="0"/>
        <pt x="636" y="492" on="0"/>
        <pt x="636" y="340" on="1"/>
        <pt x="636" y="172" on="0"/>
        <pt x="467" y="-12" on="0"/>
        <pt x="312" y="-12" on="1"/>
        <pt x="171" y="-12" on="0"/>
        <pt x="17" y="157" on="0"/>
        <pt x="17" y="312" on="1"/>
        <pt x="17" y="478" on="0"/>
        <pt x="186" y="659" on="0"/>
        <pt x="341" y="659" on="1"/>
      </contour>
      <contour>
        <pt x="284" y="499" on="0"/>
        <pt x="244" y="472" on="0"/>
        <pt x="227" y="404" on="0"/>
        <pt x="227" y="339" on="1"/>
        <pt x="227" y="256" on="0"/>
        <pt x="245" y="170" on="0"/>
        <pt x="288" y="136" on="0"/>
        <pt x="330" y="136" on="1"/>
        <pt x="369" y="136" on="0"/>
        <pt x="409" y="163" on="0"/>
        <pt x="426" y="232" on="0"/>
        <pt x="426" y="297" on="1"/>
        <pt x="426" y="379" on="0"/>
        <pt x="408" y="465" on="0"/>
        <pt x="365" y="499" on="0"/>
        <pt x="323" y="499" on="1"/>
      </contour>
      <contour>
        <pt x="380" y="-32" on="0"/>
        <pt x="429" y="-82" on="0"/>
        <pt x="429" y="-127" on="1"/>
        <pt x="429" y="-175" on="0"/>
        <pt x="375" y="-231" on="0"/>
        <pt x="328" y="-231" on="1"/>
        <pt x="282" y="-231" on="0"/>
        <pt x="234" y="-182" on="0"/>
        <pt x="234" y="-136" on="1"/>
        <pt x="234" y="-88" on="0"/>
        <pt x="289" y="-32" on="0"/>
        <pt x="336" y="-32" on="1"/>
      </contour>
    </TTGlyph>
    <TTGlyph name="Ograve" xMin="17" yMin="-12" xMax="636" yMax="918">
      <contour>
        <pt x="358" y="855" on="0"/>
        <pt x="476" y="795" on="1"/>
        <pt x="446" y="716" on="1"/>
        <pt x="429" y="712" on="1"/>
        <pt x="323" y="739" on="0"/>
        <pt x="191" y="781" on="1"/>
        <pt x="185" y="797" on="1"/>
        <pt x="234" y="914" on="1"/>
        <pt x="251" y="918" on="1"/>
      </contour>
      <contour>
        <pt x="482" y="659" on="0"/>
        <pt x="636" y="492" on="0"/>
        <pt x="636" y="340" on="1"/>
        <pt x="636" y="172" on="0"/>
        <pt x="467" y="-12" on="0"/>
        <pt x="312" y="-12" on="1"/>
        <pt x="171" y="-12" on="0"/>
        <pt x="17" y="157" on="0"/>
        <pt x="17" y="312" on="1"/>
        <pt x="17" y="478" on="0"/>
        <pt x="186" y="659" on="0"/>
        <pt x="341" y="659" on="1"/>
      </contour>
      <contour>
        <pt x="284" y="499" on="0"/>
        <pt x="244" y="472" on="0"/>
        <pt x="227" y="404" on="0"/>
        <pt x="227" y="339" on="1"/>
        <pt x="227" y="256" on="0"/>
        <pt x="245" y="170" on="0"/>
        <pt x="288" y="136" on="0"/>
        <pt x="330" y="136" on="1"/>
        <pt x="369" y="136" on="0"/>
        <pt x="409" y="163" on="0"/>
        <pt x="426" y="232" on="0"/>
        <pt x="426" y="297" on="1"/>
        <pt x="426" y="379" on="0"/>
        <pt x="408" y="465" on="0"/>
        <pt x="365" y="499" on="0"/>
        <pt x="323" y="499" on="1"/>
      </contour>
    </TTGlyph>
    <TTGlyph name="Ohm" xMin="10" yMin="-8" xMax="755" yMax="659">
      <component glyphName="Omega" x="0" y="0" flags="0x1000"/>
    </TTGlyph>
    <TTGlyph name="Ohookabove" xMin="17" yMin="-12" xMax="636" yMax="948">
      <component glyphName="O" x="0" y="0" flags="0x1000"/>
      <component glyphName="hookabove" x="133" y="175" flags="0x1000"/>
    </TTGlyph>
    <TTGlyph name="Ohorn" xMin="17" yMin="-12" xMax="696" yMax="789">
      <contour>
        <pt x="649" y="789" on="0"/>
        <pt x="696" y="731" on="0"/>
        <pt x="696" y="686" on="1"/>
        <pt x="696" y="634" on="0"/>
        <pt x="630" y="558" on="0"/>
        <pt x="579" y="546" on="1"/>
        <pt x="636" y="464" on="0"/>
        <pt x="636" y="336" on="1"/>
        <pt x="636" y="228" on="0"/>
        <pt x="560" y="72" on="0"/>
        <pt x="416" y="-12" on="0"/>
        <pt x="315" y="-12" on="1"/>
        <pt x="172" y="-12" on="0"/>
        <pt x="17" y="157" on="0"/>
        <pt x="17" y="311" on="1"/>
        <pt x="17" y="420" on="0"/>
        <pt x="94" y="577" on="0"/>
        <pt x="232" y="659" on="0"/>
        <pt x="322" y="659" on="1"/>
        <pt x="371" y="659" on="0"/>
        <pt x="443" y="641" on="1"/>
        <pt x="485" y="631" on="0"/>
        <pt x="499" y="631" on="1"/>
        <pt x="545" y="631" on="0"/>
        <pt x="545" y="676" on="1"/>
        <pt x="545" y="712" on="0"/>
        <pt x="516" y="738" on="1"/>
        <pt x="519" y="752" on="1"/>
        <pt x="570" y="789" on="0"/>
        <pt x="612" y="789" on="1"/>
      </contour>
      <contour>
        <pt x="282" y="499" on="0"/>
        <pt x="243" y="470" on="0"/>
        <pt x="227" y="398" on="0"/>
        <pt x="227" y="328" on="1"/>
        <pt x="227" y="251" on="0"/>
        <pt x="246" y="170" on="0"/>
        <pt x="291" y="136" on="0"/>
        <pt x="333" y="136" on="1"/>
        <pt x="371" y="136" on="0"/>
        <pt x="410" y="164" on="0"/>
        <pt x="426" y="237" on="0"/>
        <pt x="426" y="308" on="1"/>
        <pt x="426" y="385" on="0"/>
        <pt x="408" y="466" on="0"/>
        <pt x="363" y="499" on="0"/>
        <pt x="321" y="499" on="1"/>
      </contour>
    </TTGlyph>
    <TTGlyph name="Ohornacute" xMin="17" yMin="-12" xMax="696" yMax="918">
      <component glyphName="Ohorn" x="0" y="0" flags="0x1000"/>
      <component glyphName="acute.cap" x="152" y="175" flags="0x1000"/>
    </TTGlyph>
    <TTGlyph name="Ohorndotbelow" xMin="17" yMin="-231" xMax="696" yMax="789">
      <contour>
        <pt x="649" y="789" on="0"/>
        <pt x="696" y="731" on="0"/>
        <pt x="696" y="686" on="1"/>
        <pt x="696" y="634" on="0"/>
        <pt x="630" y="558" on="0"/>
        <pt x="579" y="546" on="1"/>
        <pt x="636" y="464" on="0"/>
        <pt x="636" y="336" on="1"/>
        <pt x="636" y="228" on="0"/>
        <pt x="560" y="72" on="0"/>
        <pt x="416" y="-12" on="0"/>
        <pt x="315" y="-12" on="1"/>
        <pt x="172" y="-12" on="0"/>
        <pt x="17" y="157" on="0"/>
        <pt x="17" y="311" on="1"/>
        <pt x="17" y="420" on="0"/>
        <pt x="94" y="577" on="0"/>
        <pt x="232" y="659" on="0"/>
        <pt x="322" y="659" on="1"/>
        <pt x="371" y="659" on="0"/>
        <pt x="443" y="641" on="1"/>
        <pt x="485" y="631" on="0"/>
        <pt x="499" y="631" on="1"/>
        <pt x="545" y="631" on="0"/>
        <pt x="545" y="676" on="1"/>
        <pt x="545" y="712" on="0"/>
        <pt x="516" y="738" on="1"/>
        <pt x="519" y="752" on="1"/>
        <pt x="570" y="789" on="0"/>
        <pt x="612" y="789" on="1"/>
      </contour>
      <contour>
        <pt x="282" y="499" on="0"/>
        <pt x="243" y="470" on="0"/>
        <pt x="227" y="398" on="0"/>
        <pt x="227" y="328" on="1"/>
        <pt x="227" y="251" on="0"/>
        <pt x="246" y="170" on="0"/>
        <pt x="291" y="136" on="0"/>
        <pt x="333" y="136" on="1"/>
        <pt x="371" y="136" on="0"/>
        <pt x="410" y="164" on="0"/>
        <pt x="426" y="237" on="0"/>
        <pt x="426" y="308" on="1"/>
        <pt x="426" y="385" on="0"/>
        <pt x="408" y="466" on="0"/>
        <pt x="363" y="499" on="0"/>
        <pt x="321" y="499" on="1"/>
      </contour>
      <contour>
        <pt x="380" y="-32" on="0"/>
        <pt x="429" y="-82" on="0"/>
        <pt x="429" y="-127" on="1"/>
        <pt x="429" y="-175" on="0"/>
        <pt x="375" y="-231" on="0"/>
        <pt x="328" y="-231" on="1"/>
        <pt x="282" y="-231" on="0"/>
        <pt x="234" y="-182" on="0"/>
        <pt x="234" y="-136" on="1"/>
        <pt x="234" y="-88" on="0"/>
        <pt x="289" y="-32" on="0"/>
        <pt x="336" y="-32" on="1"/>
      </contour>
    </TTGlyph>
    <TTGlyph name="Ohorngrave" xMin="17" yMin="-12" xMax="696" yMax="918">
      <contour>
        <pt x="358" y="855" on="0"/>
        <pt x="476" y="795" on="1"/>
        <pt x="446" y="716" on="1"/>
        <pt x="429" y="712" on="1"/>
        <pt x="323" y="739" on="0"/>
        <pt x="191" y="781" on="1"/>
        <pt x="185" y="797" on="1"/>
        <pt x="234" y="914" on="1"/>
        <pt x="251" y="918" on="1"/>
      </contour>
      <contour>
        <pt x="649" y="789" on="0"/>
        <pt x="696" y="731" on="0"/>
        <pt x="696" y="686" on="1"/>
        <pt x="696" y="634" on="0"/>
        <pt x="630" y="558" on="0"/>
        <pt x="579" y="546" on="1"/>
        <pt x="636" y="464" on="0"/>
        <pt x="636" y="336" on="1"/>
        <pt x="636" y="228" on="0"/>
        <pt x="560" y="72" on="0"/>
        <pt x="416" y="-12" on="0"/>
        <pt x="315" y="-12" on="1"/>
        <pt x="172" y="-12" on="0"/>
        <pt x="17" y="157" on="0"/>
        <pt x="17" y="311" on="1"/>
        <pt x="17" y="420" on="0"/>
        <pt x="94" y="577" on="0"/>
        <pt x="232" y="659" on="0"/>
        <pt x="322" y="659" on="1"/>
        <pt x="371" y="659" on="0"/>
        <pt x="443" y="641" on="1"/>
        <pt x="485" y="631" on="0"/>
        <pt x="499" y="631" on="1"/>
        <pt x="545" y="631" on="0"/>
        <pt x="545" y="676" on="1"/>
        <pt x="545" y="712" on="0"/>
        <pt x="516" y="738" on="1"/>
        <pt x="519" y="752" on="1"/>
        <pt x="570" y="789" on="0"/>
        <pt x="612" y="789" on="1"/>
      </contour>
      <contour>
        <pt x="282" y="499" on="0"/>
        <pt x="243" y="470" on="0"/>
        <pt x="227" y="398" on="0"/>
        <pt x="227" y="328" on="1"/>
        <pt x="227" y="251" on="0"/>
        <pt x="246" y="170" on="0"/>
        <pt x="291" y="136" on="0"/>
        <pt x="333" y="136" on="1"/>
        <pt x="371" y="136" on="0"/>
        <pt x="410" y="164" on="0"/>
        <pt x="426" y="237" on="0"/>
        <pt x="426" y="308" on="1"/>
        <pt x="426" y="385" on="0"/>
        <pt x="408" y="466" on="0"/>
        <pt x="363" y="499" on="0"/>
        <pt x="321" y="499" on="1"/>
      </contour>
    </TTGlyph>
    <TTGlyph name="Ohornhookabove" xMin="17" yMin="-12" xMax="696" yMax="948">
      <component glyphName="Ohorn" x="0" y="0" flags="0x1000"/>
      <component glyphName="hookabove" x="133" y="175" flags="0x1000"/>
    </TTGlyph>
    <TTGlyph name="Ohorntilde" xMin="17" yMin="-12" xMax="696" yMax="916">
      <component glyphName="Ohorn" x="0" y="0" flags="0x1000"/>
      <component glyphName="tilde" x="133" y="175" flags="0x1000"/>
    </TTGlyph>
    <TTGlyph name="Ohungarumlaut" xMin="17" yMin="-12" xMax="636" yMax="910">
      <component glyphName="O" x="0" y="0" flags="0x1000"/>
      <component glyphName="hungarumlaut.cap" x="155" y="175" flags="0x1000"/>
    </TTGlyph>
    <TTGlyph name="Omacron" xMin="17" yMin="-12" xMax="636" yMax="866">
      <component glyphName="O" x="0" y="0" flags="0x1000"/>
      <component glyphName="macron" x="133" y="175" flags="0x1000"/>
    </TTGlyph>
    <TTGlyph name="Omega" xMin="10" yMin="-8" xMax="755" yMax="659">
      <contour>
        <pt x="533" y="659" on="0"/>
        <pt x="691" y="515" on="0"/>
        <pt x="691" y="389" on="1"/>
        <pt x="691" y="327" on="0"/>
        <pt x="650" y="214" on="0"/>
        <pt x="604" y="153" on="1"/>
        <pt x="607" y="148" on="1"/>
        <pt x="658" y="148" on="1"/>
        <pt x="745" y="158" on="1"/>
        <pt x="755" y="146" on="1"/>
        <pt x="733" y="-8" on="1"/>
        <pt x="599" y="0" on="1"/>
        <pt x="447" y="0" on="1"/>
        <pt x="411" y="-3" on="1"/>
        <pt x="402" y="4" on="1"/>
        <pt x="402" y="112" on="1"/>
        <pt x="445" y="164" on="0"/>
        <pt x="481" y="269" on="0"/>
        <pt x="481" y="343" on="1"/>
        <pt x="481" y="428" on="0"/>
        <pt x="434" y="499" on="0"/>
        <pt x="378" y="499" on="1"/>
        <pt x="325" y="499" on="0"/>
        <pt x="282" y="433" on="0"/>
        <pt x="282" y="353" on="1"/>
        <pt x="282" y="277" on="0"/>
        <pt x="319" y="167" on="0"/>
        <pt x="361" y="112" on="1"/>
        <pt x="361" y="4" on="1"/>
        <pt x="352" y="-3" on="1"/>
        <pt x="316" y="0" on="1"/>
        <pt x="130" y="0" on="1"/>
        <pt x="20" y="-6" on="1"/>
        <pt x="10" y="6" on="1"/>
        <pt x="32" y="155" on="1"/>
        <pt x="130" y="147" on="1"/>
        <pt x="156" y="148" on="1"/>
        <pt x="159" y="153" on="1"/>
        <pt x="112" y="213" on="0"/>
        <pt x="72" y="320" on="0"/>
        <pt x="72" y="378" on="1"/>
        <pt x="72" y="463" on="0"/>
        <pt x="146" y="590" on="0"/>
        <pt x="289" y="659" on="0"/>
        <pt x="388" y="659" on="1"/>
      </contour>
    </TTGlyph>
    <TTGlyph name="Oogonek" xMin="17" yMin="-197" xMax="636" yMax="659">
      <contour>
        <pt x="407" y="-46" on="0"/>
        <pt x="407" y="-66" on="1"/>
        <pt x="407" y="-99" on="0"/>
        <pt x="443" y="-99" on="1"/>
        <pt x="472" y="-99" on="0"/>
        <pt x="504" y="-79" on="1"/>
        <pt x="514" y="-79" on="1"/>
        <pt x="526" y="-151" on="1"/>
        <pt x="466" y="-197" on="0"/>
        <pt x="415" y="-197" on="1"/>
        <pt x="367" y="-197" on="0"/>
        <pt x="311" y="-142" on="0"/>
        <pt x="311" y="-100" on="1"/>
        <pt x="311" y="-55" on="0"/>
        <pt x="343" y="-11" on="1"/>
        <pt x="333" y="-12" on="0"/>
        <pt x="312" y="-12" on="1"/>
        <pt x="171" y="-12" on="0"/>
        <pt x="17" y="157" on="0"/>
        <pt x="17" y="312" on="1"/>
        <pt x="17" y="478" on="0"/>
        <pt x="186" y="659" on="0"/>
        <pt x="341" y="659" on="1"/>
        <pt x="482" y="659" on="0"/>
        <pt x="636" y="492" on="0"/>
        <pt x="636" y="340" on="1"/>
        <pt x="636" y="212" on="0"/>
        <pt x="537" y="43" on="0"/>
        <pt x="444" y="9" on="1"/>
        <pt x="423" y="-22" on="1"/>
      </contour>
      <contour>
        <pt x="227" y="256" on="0"/>
        <pt x="245" y="170" on="0"/>
        <pt x="288" y="136" on="0"/>
        <pt x="330" y="136" on="1"/>
        <pt x="369" y="136" on="0"/>
        <pt x="409" y="163" on="0"/>
        <pt x="426" y="232" on="0"/>
        <pt x="426" y="297" on="1"/>
        <pt x="426" y="379" on="0"/>
        <pt x="408" y="465" on="0"/>
        <pt x="365" y="499" on="0"/>
        <pt x="323" y="499" on="1"/>
        <pt x="284" y="499" on="0"/>
        <pt x="244" y="472" on="0"/>
        <pt x="227" y="404" on="0"/>
        <pt x="227" y="339" on="1"/>
      </contour>
    </TTGlyph>
    <TTGlyph name="Oslash" xMin="17" yMin="-139" xMax="636" yMax="779">
      <contour>
        <pt x="636" y="505" on="0"/>
        <pt x="636" y="340" on="1"/>
        <pt x="636" y="172" on="0"/>
        <pt x="467" y="-12" on="0"/>
        <pt x="312" y="-12" on="1"/>
        <pt x="283" y="-12" on="0"/>
        <pt x="251" y="-7" on="1"/>
        <pt x="187" y="-139" on="1"/>
        <pt x="63" y="-92" on="1"/>
        <pt x="55" y="-75" on="1"/>
        <pt x="117" y="51" on="1"/>
        <pt x="17" y="136" on="0"/>
        <pt x="17" y="312" on="1"/>
        <pt x="17" y="478" on="0"/>
        <pt x="186" y="659" on="0"/>
        <pt x="341" y="659" on="1"/>
        <pt x="379" y="659" on="0"/>
        <pt x="413" y="653" on="1"/>
        <pt x="475" y="779" on="1"/>
        <pt x="595" y="733" on="1"/>
        <pt x="607" y="714" on="1"/>
        <pt x="545" y="590" on="1"/>
      </contour>
      <contour>
        <pt x="369" y="136" on="0"/>
        <pt x="409" y="163" on="0"/>
        <pt x="426" y="232" on="0"/>
        <pt x="426" y="297" on="1"/>
        <pt x="426" y="379" on="0"/>
        <pt x="408" y="465" on="0"/>
        <pt x="365" y="499" on="0"/>
        <pt x="323" y="499" on="1"/>
        <pt x="284" y="499" on="0"/>
        <pt x="244" y="472" on="0"/>
        <pt x="227" y="404" on="0"/>
        <pt x="227" y="339" on="1"/>
        <pt x="227" y="256" on="0"/>
        <pt x="245" y="170" on="0"/>
        <pt x="288" y="136" on="0"/>
        <pt x="330" y="136" on="1"/>
      </contour>
    </TTGlyph>
    <TTGlyph name="Oslashacute" xMin="17" yMin="-139" xMax="636" yMax="921">
      <component glyphName="Oslash" x="0" y="0" flags="0x1000"/>
      <component glyphName="acute.cap" x="152" y="178" flags="0x1000"/>
    </TTGlyph>
    <TTGlyph name="Otilde" xMin="17" yMin="-12" xMax="636" yMax="916">
      <component glyphName="O" x="0" y="0" flags="0x1000"/>
      <component glyphName="tilde" x="133" y="175" flags="0x1000"/>
    </TTGlyph>
    <TTGlyph name="P" xMin="60" yMin="0" xMax="593" yMax="648">
      <contour>
        <pt x="476" y="648" on="0"/>
        <pt x="593" y="541" on="0"/>
        <pt x="593" y="442" on="1"/>
        <pt x="593" y="365" on="0"/>
        <pt x="521" y="248" on="0"/>
        <pt x="389" y="183" on="0"/>
        <pt x="303" y="183" on="1"/>
        <pt x="254" y="183" on="1"/>
        <pt x="261" y="0" on="1"/>
        <pt x="60" y="0" on="1"/>
        <pt x="70" y="190" on="1"/>
        <pt x="60" y="647" on="1"/>
        <pt x="367" y="648" on="1"/>
      </contour>
      <contour>
        <pt x="358" y="338" on="0"/>
        <pt x="383" y="385" on="0"/>
        <pt x="383" y="422" on="1"/>
        <pt x="383" y="466" on="0"/>
        <pt x="341" y="507" on="0"/>
        <pt x="296" y="509" on="1"/>
        <pt x="260" y="506" on="1"/>
        <pt x="256" y="327" on="1"/>
        <pt x="331" y="323" on="1"/>
      </contour>
    </TTGlyph>
    <TTGlyph name="Q" xMin="17" yMin="-212" xMax="741" yMax="659">
      <contour>
        <pt x="702" y="-155" on="0"/>
        <pt x="645" y="-205" on="1"/>
        <pt x="631" y="-212" on="1"/>
        <pt x="459" y="-125" on="0"/>
        <pt x="328" y="-12" on="1"/>
        <pt x="312" y="-12" on="1"/>
        <pt x="171" y="-12" on="0"/>
        <pt x="17" y="157" on="0"/>
        <pt x="17" y="312" on="1"/>
        <pt x="17" y="478" on="0"/>
        <pt x="186" y="659" on="0"/>
        <pt x="341" y="659" on="1"/>
        <pt x="482" y="659" on="0"/>
        <pt x="636" y="492" on="0"/>
        <pt x="636" y="340" on="1"/>
        <pt x="636" y="127" on="0"/>
        <pt x="503" y="39" on="1"/>
        <pt x="620" y="-22" on="0"/>
        <pt x="733" y="-60" on="1"/>
        <pt x="741" y="-78" on="1"/>
      </contour>
      <contour>
        <pt x="227" y="256" on="0"/>
        <pt x="245" y="170" on="0"/>
        <pt x="288" y="136" on="0"/>
        <pt x="330" y="136" on="1"/>
        <pt x="369" y="136" on="0"/>
        <pt x="409" y="163" on="0"/>
        <pt x="426" y="232" on="0"/>
        <pt x="426" y="297" on="1"/>
        <pt x="426" y="379" on="0"/>
        <pt x="408" y="465" on="0"/>
        <pt x="365" y="499" on="0"/>
        <pt x="323" y="499" on="1"/>
        <pt x="284" y="499" on="0"/>
        <pt x="244" y="472" on="0"/>
        <pt x="227" y="404" on="0"/>
        <pt x="227" y="339" on="1"/>
      </contour>
    </TTGlyph>
    <TTGlyph name="R" xMin="60" yMin="-12" xMax="630" yMax="648">
      <contour>
        <pt x="558" y="143" on="0"/>
        <pt x="630" y="47" on="1"/>
        <pt x="627" y="25" on="1"/>
        <pt x="525" y="-6" on="0"/>
        <pt x="426" y="-12" on="1"/>
        <pt x="407" y="4" on="1"/>
        <pt x="343" y="141" on="0"/>
        <pt x="321" y="193" on="1"/>
        <pt x="254" y="193" on="1"/>
        <pt x="261" y="0" on="1"/>
        <pt x="60" y="0" on="1"/>
        <pt x="70" y="190" on="1"/>
        <pt x="60" y="647" on="1"/>
        <pt x="367" y="648" on="1"/>
        <pt x="476" y="648" on="0"/>
        <pt x="594" y="545" on="0"/>
        <pt x="594" y="448" on="1"/>
        <pt x="594" y="391" on="0"/>
        <pt x="537" y="291" on="0"/>
        <pt x="486" y="255" on="1"/>
      </contour>
      <contour>
        <pt x="383" y="468" on="0"/>
        <pt x="342" y="507" on="0"/>
        <pt x="296" y="509" on="1"/>
        <pt x="260" y="506" on="1"/>
        <pt x="256" y="339" on="1"/>
        <pt x="329" y="335" on="1"/>
        <pt x="357" y="348" on="0"/>
        <pt x="383" y="392" on="0"/>
        <pt x="383" y="428" on="1"/>
      </contour>
    </TTGlyph>
    <TTGlyph name="Racute" xMin="60" yMin="-12" xMax="630" yMax="930">
      <component glyphName="R" x="0" y="0" flags="0x1000"/>
      <component glyphName="acute" x="141" y="175" flags="0x1000"/>
    </TTGlyph>
    <TTGlyph name="Rcaron" xMin="60" yMin="-12" xMax="630" yMax="923">
      <component glyphName="R" x="0" y="0" flags="0x1000"/>
      <component glyphName="caron" x="123" y="175" flags="0x1000"/>
    </TTGlyph>
    <TTGlyph name="Rcommaaccent" xMin="60" yMin="-304" xMax="630" yMax="648">
      <contour>
        <pt x="558" y="143" on="0"/>
        <pt x="630" y="47" on="1"/>
        <pt x="627" y="25" on="1"/>
        <pt x="525" y="-6" on="0"/>
        <pt x="426" y="-12" on="1"/>
        <pt x="407" y="4" on="1"/>
        <pt x="343" y="141" on="0"/>
        <pt x="321" y="193" on="1"/>
        <pt x="254" y="193" on="1"/>
        <pt x="261" y="0" on="1"/>
        <pt x="60" y="0" on="1"/>
        <pt x="70" y="190" on="1"/>
        <pt x="60" y="647" on="1"/>
        <pt x="367" y="648" on="1"/>
        <pt x="476" y="648" on="0"/>
        <pt x="594" y="545" on="0"/>
        <pt x="594" y="448" on="1"/>
        <pt x="594" y="391" on="0"/>
        <pt x="537" y="291" on="0"/>
        <pt x="486" y="255" on="1"/>
      </contour>
      <contour>
        <pt x="383" y="468" on="0"/>
        <pt x="342" y="507" on="0"/>
        <pt x="296" y="509" on="1"/>
        <pt x="260" y="506" on="1"/>
        <pt x="256" y="339" on="1"/>
        <pt x="329" y="335" on="1"/>
        <pt x="357" y="348" on="0"/>
        <pt x="383" y="392" on="0"/>
        <pt x="383" y="428" on="1"/>
      </contour>
      <contour>
        <pt x="409" y="-65" on="0"/>
        <pt x="409" y="-116" on="1"/>
        <pt x="409" y="-166" on="0"/>
        <pt x="346" y="-257" on="0"/>
        <pt x="279" y="-304" on="1"/>
        <pt x="227" y="-258" on="1"/>
        <pt x="225" y="-246" on="1"/>
        <pt x="273" y="-204" on="0"/>
        <pt x="273" y="-153" on="1"/>
        <pt x="273" y="-117" on="0"/>
        <pt x="245" y="-89" on="1"/>
        <pt x="245" y="-75" on="1"/>
        <pt x="306" y="-40" on="0"/>
        <pt x="368" y="-25" on="1"/>
      </contour>
    </TTGlyph>
    <TTGlyph name="S" xMin="18" yMin="-12" xMax="505" yMax="659">
      <contour>
        <pt x="400" y="659" on="0"/>
        <pt x="493" y="624" on="1"/>
        <pt x="461" y="461" on="1"/>
        <pt x="433" y="449" on="1"/>
        <pt x="391" y="475" on="0"/>
        <pt x="309" y="505" on="0"/>
        <pt x="284" y="505" on="1"/>
        <pt x="261" y="505" on="0"/>
        <pt x="234" y="487" on="0"/>
        <pt x="234" y="472" on="1"/>
        <pt x="234" y="453" on="0"/>
        <pt x="275" y="426" on="0"/>
        <pt x="323" y="404" on="1"/>
        <pt x="379" y="379" on="0"/>
        <pt x="451" y="336" on="0"/>
        <pt x="505" y="261" on="0"/>
        <pt x="505" y="206" on="1"/>
        <pt x="505" y="145" on="0"/>
        <pt x="438" y="46" on="0"/>
        <pt x="314" y="-12" on="0"/>
        <pt x="232" y="-12" on="1"/>
        <pt x="130" y="-12" on="0"/>
        <pt x="18" y="26" on="1"/>
        <pt x="47" y="200" on="1"/>
        <pt x="67" y="212" on="1"/>
        <pt x="113" y="177" on="0"/>
        <pt x="218" y="136" on="0"/>
        <pt x="253" y="136" on="1"/>
        <pt x="306" y="136" on="0"/>
        <pt x="306" y="169" on="1"/>
        <pt x="306" y="190" on="0"/>
        <pt x="263" y="219" on="0"/>
        <pt x="215" y="240" on="1"/>
        <pt x="160" y="264" on="0"/>
        <pt x="89" y="307" on="0"/>
        <pt x="37" y="382" on="0"/>
        <pt x="37" y="437" on="1"/>
        <pt x="37" y="500" on="0"/>
        <pt x="105" y="601" on="0"/>
        <pt x="227" y="659" on="0"/>
        <pt x="305" y="659" on="1"/>
      </contour>
    </TTGlyph>
    <TTGlyph name="Sacute" xMin="18" yMin="-12" xMax="505" yMax="930">
      <component glyphName="S" x="0" y="0" flags="0x1000"/>
      <component glyphName="acute" x="100" y="175" flags="0x1000"/>
    </TTGlyph>
    <TTGlyph name="Scaron" xMin="18" yMin="-12" xMax="505" yMax="923">
      <component glyphName="S" x="0" y="0" flags="0x1000"/>
      <component glyphName="caron" x="82" y="175" flags="0x1000"/>
    </TTGlyph>
    <TTGlyph name="Scedilla" xMin="18" yMin="-208" xMax="505" yMax="659">
      <contour>
        <pt x="505" y="153" on="0"/>
        <pt x="454" y="64" on="0"/>
        <pt x="358" y="3" on="0"/>
        <pt x="293" y="-7" on="1"/>
        <pt x="287" y="-42" on="1"/>
        <pt x="321" y="-61" on="1"/>
        <pt x="365" y="-84" on="0"/>
        <pt x="365" y="-124" on="1"/>
        <pt x="365" y="-161" on="0"/>
        <pt x="306" y="-208" on="0"/>
        <pt x="255" y="-208" on="1"/>
        <pt x="206" y="-208" on="0"/>
        <pt x="163" y="-184" on="1"/>
        <pt x="174" y="-109" on="1"/>
        <pt x="182" y="-106" on="1"/>
        <pt x="215" y="-134" on="0"/>
        <pt x="242" y="-134" on="1"/>
        <pt x="258" y="-134" on="0"/>
        <pt x="258" y="-120" on="1"/>
        <pt x="258" y="-111" on="0"/>
        <pt x="246" y="-105" on="1"/>
        <pt x="196" y="-78" on="1"/>
        <pt x="209" y="-12" on="1"/>
        <pt x="119" y="-8" on="0"/>
        <pt x="18" y="26" on="1"/>
        <pt x="47" y="200" on="1"/>
        <pt x="67" y="212" on="1"/>
        <pt x="113" y="177" on="0"/>
        <pt x="218" y="136" on="0"/>
        <pt x="253" y="136" on="1"/>
        <pt x="306" y="136" on="0"/>
        <pt x="306" y="169" on="1"/>
        <pt x="306" y="190" on="0"/>
        <pt x="263" y="219" on="0"/>
        <pt x="215" y="240" on="1"/>
        <pt x="160" y="264" on="0"/>
        <pt x="89" y="307" on="0"/>
        <pt x="37" y="382" on="0"/>
        <pt x="37" y="437" on="1"/>
        <pt x="37" y="500" on="0"/>
        <pt x="105" y="601" on="0"/>
        <pt x="227" y="659" on="0"/>
        <pt x="305" y="659" on="1"/>
        <pt x="400" y="659" on="0"/>
        <pt x="493" y="624" on="1"/>
        <pt x="461" y="461" on="1"/>
        <pt x="433" y="449" on="1"/>
        <pt x="391" y="475" on="0"/>
        <pt x="309" y="505" on="0"/>
        <pt x="284" y="505" on="1"/>
        <pt x="261" y="505" on="0"/>
        <pt x="234" y="487" on="0"/>
        <pt x="234" y="472" on="1"/>
        <pt x="234" y="453" on="0"/>
        <pt x="275" y="426" on="0"/>
        <pt x="323" y="404" on="1"/>
        <pt x="379" y="379" on="0"/>
        <pt x="451" y="336" on="0"/>
        <pt x="505" y="261" on="0"/>
        <pt x="505" y="206" on="1"/>
      </contour>
    </TTGlyph>
    <TTGlyph name="Scircumflex" xMin="18" yMin="-12" xMax="505" yMax="927">
      <contour>
        <pt x="164" y="835" on="0"/>
        <pt x="258" y="927" on="1"/>
        <pt x="292" y="927" on="1"/>
        <pt x="362" y="857" on="0"/>
        <pt x="455" y="777" on="1"/>
        <pt x="408" y="705" on="1"/>
        <pt x="390" y="705" on="1"/>
        <pt x="314" y="753" on="0"/>
        <pt x="275" y="783" on="1"/>
        <pt x="236" y="753" on="0"/>
        <pt x="160" y="705" on="1"/>
        <pt x="142" y="705" on="1"/>
        <pt x="95" y="777" on="1"/>
      </contour>
      <contour>
        <pt x="400" y="659" on="0"/>
        <pt x="493" y="624" on="1"/>
        <pt x="461" y="461" on="1"/>
        <pt x="433" y="449" on="1"/>
        <pt x="391" y="475" on="0"/>
        <pt x="309" y="505" on="0"/>
        <pt x="284" y="505" on="1"/>
        <pt x="261" y="505" on="0"/>
        <pt x="234" y="487" on="0"/>
        <pt x="234" y="472" on="1"/>
        <pt x="234" y="453" on="0"/>
        <pt x="275" y="426" on="0"/>
        <pt x="323" y="404" on="1"/>
        <pt x="379" y="379" on="0"/>
        <pt x="451" y="336" on="0"/>
        <pt x="505" y="261" on="0"/>
        <pt x="505" y="206" on="1"/>
        <pt x="505" y="145" on="0"/>
        <pt x="438" y="46" on="0"/>
        <pt x="314" y="-12" on="0"/>
        <pt x="232" y="-12" on="1"/>
        <pt x="130" y="-12" on="0"/>
        <pt x="18" y="26" on="1"/>
        <pt x="47" y="200" on="1"/>
        <pt x="67" y="212" on="1"/>
        <pt x="113" y="177" on="0"/>
        <pt x="218" y="136" on="0"/>
        <pt x="253" y="136" on="1"/>
        <pt x="306" y="136" on="0"/>
        <pt x="306" y="169" on="1"/>
        <pt x="306" y="190" on="0"/>
        <pt x="263" y="219" on="0"/>
        <pt x="215" y="240" on="1"/>
        <pt x="160" y="264" on="0"/>
        <pt x="89" y="307" on="0"/>
        <pt x="37" y="382" on="0"/>
        <pt x="37" y="437" on="1"/>
        <pt x="37" y="500" on="0"/>
        <pt x="105" y="601" on="0"/>
        <pt x="227" y="659" on="0"/>
        <pt x="305" y="659" on="1"/>
      </contour>
    </TTGlyph>
    <TTGlyph name="Scommaaccent" xMin="18" yMin="-304" xMax="505" yMax="659">
      <contour>
        <pt x="400" y="659" on="0"/>
        <pt x="493" y="624" on="1"/>
        <pt x="461" y="461" on="1"/>
        <pt x="433" y="449" on="1"/>
        <pt x="391" y="475" on="0"/>
        <pt x="309" y="505" on="0"/>
        <pt x="284" y="505" on="1"/>
        <pt x="261" y="505" on="0"/>
        <pt x="234" y="487" on="0"/>
        <pt x="234" y="472" on="1"/>
        <pt x="234" y="453" on="0"/>
        <pt x="275" y="426" on="0"/>
        <pt x="323" y="404" on="1"/>
        <pt x="379" y="379" on="0"/>
        <pt x="451" y="336" on="0"/>
        <pt x="505" y="261" on="0"/>
        <pt x="505" y="206" on="1"/>
        <pt x="505" y="145" on="0"/>
        <pt x="438" y="46" on="0"/>
        <pt x="314" y="-12" on="0"/>
        <pt x="232" y="-12" on="1"/>
        <pt x="130" y="-12" on="0"/>
        <pt x="18" y="26" on="1"/>
        <pt x="47" y="200" on="1"/>
        <pt x="67" y="212" on="1"/>
        <pt x="113" y="177" on="0"/>
        <pt x="218" y="136" on="0"/>
        <pt x="253" y="136" on="1"/>
        <pt x="306" y="136" on="0"/>
        <pt x="306" y="169" on="1"/>
        <pt x="306" y="190" on="0"/>
        <pt x="263" y="219" on="0"/>
        <pt x="215" y="240" on="1"/>
        <pt x="160" y="264" on="0"/>
        <pt x="89" y="307" on="0"/>
        <pt x="37" y="382" on="0"/>
        <pt x="37" y="437" on="1"/>
        <pt x="37" y="500" on="0"/>
        <pt x="105" y="601" on="0"/>
        <pt x="227" y="659" on="0"/>
        <pt x="305" y="659" on="1"/>
      </contour>
      <contour>
        <pt x="348" y="-65" on="0"/>
        <pt x="348" y="-116" on="1"/>
        <pt x="348" y="-166" on="0"/>
        <pt x="285" y="-257" on="0"/>
        <pt x="218" y="-304" on="1"/>
        <pt x="166" y="-258" on="1"/>
        <pt x="164" y="-246" on="1"/>
        <pt x="212" y="-204" on="0"/>
        <pt x="212" y="-153" on="1"/>
        <pt x="212" y="-117" on="0"/>
        <pt x="184" y="-89" on="1"/>
        <pt x="184" y="-75" on="1"/>
        <pt x="245" y="-40" on="0"/>
        <pt x="307" y="-25" on="1"/>
      </contour>
    </TTGlyph>
    <TTGlyph name="T" xMin="8" yMin="0" xMax="513" yMax="647">
      <contour>
        <pt x="502" y="487" on="1"/>
        <pt x="370" y="493" on="1"/>
        <pt x="358" y="493" on="1"/>
        <pt x="353" y="210" on="1"/>
        <pt x="361" y="0" on="1"/>
        <pt x="161" y="0" on="1"/>
        <pt x="171" y="190" on="1"/>
        <pt x="166" y="493" on="1"/>
        <pt x="153" y="493" on="1"/>
        <pt x="20" y="487" on="1"/>
        <pt x="8" y="501" on="1"/>
        <pt x="19" y="647" on="1"/>
        <pt x="502" y="647" on="1"/>
        <pt x="513" y="633" on="1"/>
      </contour>
    </TTGlyph>
    <TTGlyph name="Tbar" xMin="8" yMin="0" xMax="513" yMax="647">
      <contour>
        <pt x="355" y="335" on="1"/>
        <pt x="445" y="335" on="1"/>
        <pt x="457" y="322" on="1"/>
        <pt x="450" y="234" on="1"/>
        <pt x="353" y="234" on="1"/>
        <pt x="353" y="210" on="1"/>
        <pt x="361" y="0" on="1"/>
        <pt x="161" y="0" on="1"/>
        <pt x="171" y="190" on="1"/>
        <pt x="170" y="234" on="1"/>
        <pt x="89" y="234" on="1"/>
        <pt x="77" y="247" on="1"/>
        <pt x="84" y="335" on="1"/>
        <pt x="169" y="335" on="1"/>
        <pt x="166" y="493" on="1"/>
        <pt x="153" y="493" on="1"/>
        <pt x="20" y="487" on="1"/>
        <pt x="8" y="501" on="1"/>
        <pt x="19" y="647" on="1"/>
        <pt x="502" y="647" on="1"/>
        <pt x="513" y="633" on="1"/>
        <pt x="502" y="487" on="1"/>
        <pt x="370" y="493" on="1"/>
        <pt x="358" y="493" on="1"/>
      </contour>
    </TTGlyph>
    <TTGlyph name="Tcaron" xMin="8" yMin="0" xMax="513" yMax="923">
      <component glyphName="T" x="0" y="0" flags="0x1000"/>
      <component glyphName="caron" x="68" y="175" flags="0x1000"/>
    </TTGlyph>
    <TTGlyph name="Tcedilla" xMin="8" yMin="-208" xMax="513" yMax="647">
      <contour>
        <pt x="353" y="210" on="1"/>
        <pt x="361" y="0" on="1"/>
        <pt x="301" y="0" on="1"/>
        <pt x="293" y="-42" on="1"/>
        <pt x="327" y="-61" on="1"/>
        <pt x="371" y="-84" on="0"/>
        <pt x="371" y="-124" on="1"/>
        <pt x="371" y="-161" on="0"/>
        <pt x="312" y="-208" on="0"/>
        <pt x="261" y="-208" on="1"/>
        <pt x="212" y="-208" on="0"/>
        <pt x="169" y="-184" on="1"/>
        <pt x="180" y="-109" on="1"/>
        <pt x="188" y="-106" on="1"/>
        <pt x="221" y="-134" on="0"/>
        <pt x="248" y="-134" on="1"/>
        <pt x="264" y="-134" on="0"/>
        <pt x="264" y="-120" on="1"/>
        <pt x="264" y="-111" on="0"/>
        <pt x="252" y="-105" on="1"/>
        <pt x="202" y="-78" on="1"/>
        <pt x="217" y="0" on="1"/>
        <pt x="161" y="0" on="1"/>
        <pt x="171" y="190" on="1"/>
        <pt x="166" y="493" on="1"/>
        <pt x="153" y="493" on="1"/>
        <pt x="20" y="487" on="1"/>
        <pt x="8" y="501" on="1"/>
        <pt x="19" y="647" on="1"/>
        <pt x="502" y="647" on="1"/>
        <pt x="513" y="633" on="1"/>
        <pt x="502" y="487" on="1"/>
        <pt x="370" y="493" on="1"/>
        <pt x="358" y="493" on="1"/>
      </contour>
    </TTGlyph>
    <TTGlyph name="Thorn" xMin="60" yMin="0" xMax="602" yMax="647">
      <contour>
        <pt x="485" y="558" on="0"/>
        <pt x="602" y="454" on="0"/>
        <pt x="602" y="350" on="1"/>
        <pt x="602" y="231" on="0"/>
        <pt x="449" y="100" on="0"/>
        <pt x="308" y="100" on="1"/>
        <pt x="259" y="99" on="1"/>
        <pt x="263" y="0" on="1"/>
        <pt x="60" y="0" on="1"/>
        <pt x="70" y="190" on="1"/>
        <pt x="62" y="554" on="1"/>
        <pt x="60" y="557" on="1"/>
        <pt x="62" y="557" on="1"/>
        <pt x="60" y="647" on="1"/>
        <pt x="266" y="647" on="1"/>
        <pt x="264" y="558" on="1"/>
        <pt x="373" y="558" on="1"/>
      </contour>
      <contour>
        <pt x="363" y="255" on="0"/>
        <pt x="389" y="297" on="0"/>
        <pt x="389" y="334" on="1"/>
        <pt x="389" y="378" on="0"/>
        <pt x="348" y="416" on="0"/>
        <pt x="301" y="418" on="1"/>
        <pt x="260" y="415" on="1"/>
        <pt x="256" y="244" on="1"/>
        <pt x="336" y="240" on="1"/>
      </contour>
    </TTGlyph>
    <TTGlyph name="U" xMin="46" yMin="-12" xMax="607" yMax="647">
      <contour>
        <pt x="599" y="216" on="1"/>
        <pt x="598" y="106" on="0"/>
        <pt x="452" y="-12" on="0"/>
        <pt x="316" y="-12" on="1"/>
        <pt x="185" y="-12" on="0"/>
        <pt x="46" y="106" on="0"/>
        <pt x="49" y="216" on="1"/>
        <pt x="52" y="319" on="1"/>
        <pt x="46" y="647" on="1"/>
        <pt x="247" y="647" on="1"/>
        <pt x="238" y="243" on="1"/>
        <pt x="237" y="192" on="0"/>
        <pt x="278" y="146" on="0"/>
        <pt x="324" y="146" on="1"/>
        <pt x="371" y="146" on="0"/>
        <pt x="413" y="192" on="0"/>
        <pt x="412" y="243" on="1"/>
        <pt x="403" y="647" on="1"/>
        <pt x="607" y="647" on="1"/>
        <pt x="600" y="319" on="1"/>
      </contour>
    </TTGlyph>
    <TTGlyph name="Uacute" xMin="46" yMin="-12" xMax="607" yMax="918">
      <component glyphName="U" x="0" y="0" flags="0x1000"/>
      <component glyphName="acute.cap" x="152" y="175" flags="0x1000"/>
    </TTGlyph>
    <TTGlyph name="Ubreve" xMin="46" yMin="-12" xMax="607" yMax="908">
      <component glyphName="U" x="0" y="0" flags="0x1000"/>
      <component glyphName="breve" x="134" y="175" flags="0x1000"/>
    </TTGlyph>
    <TTGlyph name="Ucaron" xMin="46" yMin="-12" xMax="607" yMax="923">
      <component glyphName="U" x="0" y="0" flags="0x1000"/>
      <component glyphName="caron" x="134" y="175" flags="0x1000"/>
    </TTGlyph>
    <TTGlyph name="Ucircumflex" xMin="46" yMin="-12" xMax="607" yMax="916">
      <contour>
        <pt x="247" y="859" on="0"/>
        <pt x="310" y="916" on="1"/>
        <pt x="344" y="916" on="1"/>
        <pt x="407" y="859" on="0"/>
        <pt x="497" y="797" on="1"/>
        <pt x="463" y="721" on="1"/>
        <pt x="445" y="721" on="1"/>
        <pt x="327" y="781" on="1"/>
        <pt x="209" y="721" on="1"/>
        <pt x="191" y="721" on="1"/>
        <pt x="157" y="797" on="1"/>
      </contour>
      <contour>
        <pt x="599" y="216" on="1"/>
        <pt x="598" y="106" on="0"/>
        <pt x="452" y="-12" on="0"/>
        <pt x="316" y="-12" on="1"/>
        <pt x="185" y="-12" on="0"/>
        <pt x="46" y="106" on="0"/>
        <pt x="49" y="216" on="1"/>
        <pt x="52" y="319" on="1"/>
        <pt x="46" y="647" on="1"/>
        <pt x="247" y="647" on="1"/>
        <pt x="238" y="243" on="1"/>
        <pt x="237" y="192" on="0"/>
        <pt x="278" y="146" on="0"/>
        <pt x="324" y="146" on="1"/>
        <pt x="371" y="146" on="0"/>
        <pt x="413" y="192" on="0"/>
        <pt x="412" y="243" on="1"/>
        <pt x="403" y="647" on="1"/>
        <pt x="607" y="647" on="1"/>
        <pt x="600" y="319" on="1"/>
      </contour>
    </TTGlyph>
    <TTGlyph name="Udieresis" xMin="46" yMin="-12" xMax="607" yMax="892">
      <contour>
        <pt x="273" y="892" on="0"/>
        <pt x="316" y="849" on="0"/>
        <pt x="316" y="810" on="1"/>
        <pt x="316" y="768" on="0"/>
        <pt x="269" y="719" on="0"/>
        <pt x="228" y="719" on="1"/>
        <pt x="188" y="719" on="0"/>
        <pt x="146" y="762" on="0"/>
        <pt x="146" y="802" on="1"/>
        <pt x="146" y="844" on="0"/>
        <pt x="194" y="892" on="0"/>
        <pt x="235" y="892" on="1"/>
      </contour>
      <contour>
        <pt x="466" y="892" on="0"/>
        <pt x="509" y="849" on="0"/>
        <pt x="509" y="810" on="1"/>
        <pt x="509" y="768" on="0"/>
        <pt x="462" y="719" on="0"/>
        <pt x="421" y="719" on="1"/>
        <pt x="381" y="719" on="0"/>
        <pt x="339" y="762" on="0"/>
        <pt x="339" y="802" on="1"/>
        <pt x="339" y="844" on="0"/>
        <pt x="387" y="892" on="0"/>
        <pt x="428" y="892" on="1"/>
      </contour>
      <contour>
        <pt x="599" y="216" on="1"/>
        <pt x="598" y="106" on="0"/>
        <pt x="452" y="-12" on="0"/>
        <pt x="316" y="-12" on="1"/>
        <pt x="185" y="-12" on="0"/>
        <pt x="46" y="106" on="0"/>
        <pt x="49" y="216" on="1"/>
        <pt x="52" y="319" on="1"/>
        <pt x="46" y="647" on="1"/>
        <pt x="247" y="647" on="1"/>
        <pt x="238" y="243" on="1"/>
        <pt x="237" y="192" on="0"/>
        <pt x="278" y="146" on="0"/>
        <pt x="324" y="146" on="1"/>
        <pt x="371" y="146" on="0"/>
        <pt x="413" y="192" on="0"/>
        <pt x="412" y="243" on="1"/>
        <pt x="403" y="647" on="1"/>
        <pt x="607" y="647" on="1"/>
        <pt x="600" y="319" on="1"/>
      </contour>
    </TTGlyph>
    <TTGlyph name="Udieresisacute" xMin="46" yMin="-12" xMax="607" yMax="1083">
      <component glyphName="U" x="0" y="0" flags="0x1000"/>
      <component glyphName="dieresisacute" x="133" y="175" flags="0x1000"/>
    </TTGlyph>
    <TTGlyph name="Udieresiscaron" xMin="46" yMin="-12" xMax="607" yMax="1070">
      <component glyphName="U" x="0" y="0" flags="0x1000"/>
      <component glyphName="dieresiscaron" x="133" y="175" flags="0x1000"/>
    </TTGlyph>
    <TTGlyph name="Udieresisgrave" xMin="46" yMin="-12" xMax="607" yMax="1083">
      <component glyphName="U" x="0" y="0" flags="0x1000"/>
      <component glyphName="dieresisgrave" x="133" y="175" flags="0x1000"/>
    </TTGlyph>
    <TTGlyph name="Udieresismacron" xMin="46" yMin="-12" xMax="607" yMax="1039">
      <component glyphName="U" x="0" y="0" flags="0x1000"/>
      <component glyphName="dieresismacron" x="133" y="175" flags="0x1000"/>
    </TTGlyph>
    <TTGlyph name="Udotbelow" xMin="46" yMin="-231" xMax="607" yMax="647">
      <contour>
        <pt x="599" y="216" on="1"/>
        <pt x="598" y="106" on="0"/>
        <pt x="452" y="-12" on="0"/>
        <pt x="316" y="-12" on="1"/>
        <pt x="185" y="-12" on="0"/>
        <pt x="46" y="106" on="0"/>
        <pt x="49" y="216" on="1"/>
        <pt x="52" y="319" on="1"/>
        <pt x="46" y="647" on="1"/>
        <pt x="247" y="647" on="1"/>
        <pt x="238" y="243" on="1"/>
        <pt x="237" y="192" on="0"/>
        <pt x="278" y="146" on="0"/>
        <pt x="324" y="146" on="1"/>
        <pt x="371" y="146" on="0"/>
        <pt x="413" y="192" on="0"/>
        <pt x="412" y="243" on="1"/>
        <pt x="403" y="647" on="1"/>
        <pt x="607" y="647" on="1"/>
        <pt x="600" y="319" on="1"/>
      </contour>
      <contour>
        <pt x="372" y="-32" on="0"/>
        <pt x="421" y="-82" on="0"/>
        <pt x="421" y="-127" on="1"/>
        <pt x="421" y="-175" on="0"/>
        <pt x="367" y="-231" on="0"/>
        <pt x="320" y="-231" on="1"/>
        <pt x="274" y="-231" on="0"/>
        <pt x="226" y="-182" on="0"/>
        <pt x="226" y="-136" on="1"/>
        <pt x="226" y="-88" on="0"/>
        <pt x="281" y="-32" on="0"/>
        <pt x="328" y="-32" on="1"/>
      </contour>
    </TTGlyph>
    <TTGlyph name="Ugrave" xMin="46" yMin="-12" xMax="607" yMax="918">
      <contour>
        <pt x="358" y="855" on="0"/>
        <pt x="476" y="795" on="1"/>
        <pt x="446" y="716" on="1"/>
        <pt x="429" y="712" on="1"/>
        <pt x="323" y="739" on="0"/>
        <pt x="191" y="781" on="1"/>
        <pt x="185" y="797" on="1"/>
        <pt x="234" y="914" on="1"/>
        <pt x="251" y="918" on="1"/>
      </contour>
      <contour>
        <pt x="599" y="216" on="1"/>
        <pt x="598" y="106" on="0"/>
        <pt x="452" y="-12" on="0"/>
        <pt x="316" y="-12" on="1"/>
        <pt x="185" y="-12" on="0"/>
        <pt x="46" y="106" on="0"/>
        <pt x="49" y="216" on="1"/>
        <pt x="52" y="319" on="1"/>
        <pt x="46" y="647" on="1"/>
        <pt x="247" y="647" on="1"/>
        <pt x="238" y="243" on="1"/>
        <pt x="237" y="192" on="0"/>
        <pt x="278" y="146" on="0"/>
        <pt x="324" y="146" on="1"/>
        <pt x="371" y="146" on="0"/>
        <pt x="413" y="192" on="0"/>
        <pt x="412" y="243" on="1"/>
        <pt x="403" y="647" on="1"/>
        <pt x="607" y="647" on="1"/>
        <pt x="600" y="319" on="1"/>
      </contour>
    </TTGlyph>
    <TTGlyph name="Uhookabove" xMin="46" yMin="-12" xMax="607" yMax="948">
      <component glyphName="U" x="0" y="0" flags="0x1000"/>
      <component glyphName="hookabove" x="133" y="175" flags="0x1000"/>
    </TTGlyph>
    <TTGlyph name="Uhorn" xMin="46" yMin="-12" xMax="706" yMax="805">
      <contour>
        <pt x="706" y="671" on="0"/>
        <pt x="653" y="600" on="0"/>
        <pt x="606" y="578" on="1"/>
        <pt x="600" y="319" on="1"/>
        <pt x="599" y="216" on="1"/>
        <pt x="598" y="106" on="0"/>
        <pt x="452" y="-12" on="0"/>
        <pt x="316" y="-12" on="1"/>
        <pt x="185" y="-12" on="0"/>
        <pt x="46" y="106" on="0"/>
        <pt x="49" y="216" on="1"/>
        <pt x="52" y="319" on="1"/>
        <pt x="46" y="647" on="1"/>
        <pt x="247" y="647" on="1"/>
        <pt x="238" y="243" on="1"/>
        <pt x="237" y="192" on="0"/>
        <pt x="278" y="146" on="0"/>
        <pt x="324" y="146" on="1"/>
        <pt x="371" y="146" on="0"/>
        <pt x="413" y="192" on="0"/>
        <pt x="412" y="243" on="1"/>
        <pt x="403" y="647" on="1"/>
        <pt x="498" y="647" on="1"/>
        <pt x="529" y="647" on="0"/>
        <pt x="555" y="669" on="0"/>
        <pt x="555" y="695" on="1"/>
        <pt x="555" y="730" on="0"/>
        <pt x="526" y="754" on="1"/>
        <pt x="529" y="768" on="1"/>
        <pt x="581" y="805" on="0"/>
        <pt x="623" y="805" on="1"/>
        <pt x="659" y="805" on="0"/>
        <pt x="706" y="753" on="0"/>
        <pt x="706" y="713" on="1"/>
      </contour>
    </TTGlyph>
    <TTGlyph name="Uhornacute" xMin="46" yMin="-12" xMax="706" yMax="918">
      <component glyphName="Uhorn" x="0" y="0" flags="0x1000"/>
      <component glyphName="acute.cap" x="152" y="175" flags="0x1000"/>
    </TTGlyph>
    <TTGlyph name="Uhorndotbelow" xMin="46" yMin="-231" xMax="706" yMax="805">
      <contour>
        <pt x="706" y="671" on="0"/>
        <pt x="653" y="600" on="0"/>
        <pt x="606" y="578" on="1"/>
        <pt x="600" y="319" on="1"/>
        <pt x="599" y="216" on="1"/>
        <pt x="598" y="106" on="0"/>
        <pt x="452" y="-12" on="0"/>
        <pt x="316" y="-12" on="1"/>
        <pt x="185" y="-12" on="0"/>
        <pt x="46" y="106" on="0"/>
        <pt x="49" y="216" on="1"/>
        <pt x="52" y="319" on="1"/>
        <pt x="46" y="647" on="1"/>
        <pt x="247" y="647" on="1"/>
        <pt x="238" y="243" on="1"/>
        <pt x="237" y="192" on="0"/>
        <pt x="278" y="146" on="0"/>
        <pt x="324" y="146" on="1"/>
        <pt x="371" y="146" on="0"/>
        <pt x="413" y="192" on="0"/>
        <pt x="412" y="243" on="1"/>
        <pt x="403" y="647" on="1"/>
        <pt x="498" y="647" on="1"/>
        <pt x="529" y="647" on="0"/>
        <pt x="555" y="669" on="0"/>
        <pt x="555" y="695" on="1"/>
        <pt x="555" y="730" on="0"/>
        <pt x="526" y="754" on="1"/>
        <pt x="529" y="768" on="1"/>
        <pt x="581" y="805" on="0"/>
        <pt x="623" y="805" on="1"/>
        <pt x="659" y="805" on="0"/>
        <pt x="706" y="753" on="0"/>
        <pt x="706" y="713" on="1"/>
      </contour>
      <contour>
        <pt x="374" y="-32" on="0"/>
        <pt x="423" y="-82" on="0"/>
        <pt x="423" y="-127" on="1"/>
        <pt x="423" y="-175" on="0"/>
        <pt x="369" y="-231" on="0"/>
        <pt x="322" y="-231" on="1"/>
        <pt x="276" y="-231" on="0"/>
        <pt x="228" y="-182" on="0"/>
        <pt x="228" y="-136" on="1"/>
        <pt x="228" y="-88" on="0"/>
        <pt x="283" y="-32" on="0"/>
        <pt x="330" y="-32" on="1"/>
      </contour>
    </TTGlyph>
    <TTGlyph name="Uhorngrave" xMin="46" yMin="-12" xMax="706" yMax="918">
      <contour>
        <pt x="323" y="739" on="0"/>
        <pt x="191" y="781" on="1"/>
        <pt x="185" y="797" on="1"/>
        <pt x="234" y="914" on="1"/>
        <pt x="251" y="918" on="1"/>
        <pt x="358" y="855" on="0"/>
        <pt x="476" y="795" on="1"/>
        <pt x="446" y="716" on="1"/>
        <pt x="429" y="712" on="1"/>
      </contour>
      <contour>
        <pt x="706" y="671" on="0"/>
        <pt x="653" y="600" on="0"/>
        <pt x="606" y="578" on="1"/>
        <pt x="600" y="319" on="1"/>
        <pt x="599" y="216" on="1"/>
        <pt x="598" y="106" on="0"/>
        <pt x="452" y="-12" on="0"/>
        <pt x="316" y="-12" on="1"/>
        <pt x="185" y="-12" on="0"/>
        <pt x="46" y="106" on="0"/>
        <pt x="49" y="216" on="1"/>
        <pt x="52" y="319" on="1"/>
        <pt x="46" y="647" on="1"/>
        <pt x="247" y="647" on="1"/>
        <pt x="238" y="243" on="1"/>
        <pt x="237" y="192" on="0"/>
        <pt x="278" y="146" on="0"/>
        <pt x="324" y="146" on="1"/>
        <pt x="371" y="146" on="0"/>
        <pt x="413" y="192" on="0"/>
        <pt x="412" y="243" on="1"/>
        <pt x="403" y="647" on="1"/>
        <pt x="498" y="647" on="1"/>
        <pt x="529" y="647" on="0"/>
        <pt x="555" y="669" on="0"/>
        <pt x="555" y="695" on="1"/>
        <pt x="555" y="730" on="0"/>
        <pt x="526" y="754" on="1"/>
        <pt x="529" y="768" on="1"/>
        <pt x="581" y="805" on="0"/>
        <pt x="623" y="805" on="1"/>
        <pt x="659" y="805" on="0"/>
        <pt x="706" y="753" on="0"/>
        <pt x="706" y="713" on="1"/>
      </contour>
    </TTGlyph>
    <TTGlyph name="Uhornhookabove" xMin="46" yMin="-12" xMax="706" yMax="948">
      <component glyphName="Uhorn" x="0" y="0" flags="0x1000"/>
      <component glyphName="hookabove" x="133" y="175" flags="0x1000"/>
    </TTGlyph>
    <TTGlyph name="Uhorntilde" xMin="46" yMin="-12" xMax="706" yMax="916">
      <component glyphName="Uhorn" x="0" y="0" flags="0x1000"/>
      <component glyphName="tilde" x="133" y="175" flags="0x1000"/>
    </TTGlyph>
    <TTGlyph name="Uhungarumlaut" xMin="46" yMin="-12" xMax="607" yMax="910">
      <component glyphName="U" x="0" y="0" flags="0x1000"/>
      <component glyphName="hungarumlaut.cap" x="155" y="175" flags="0x1000"/>
    </TTGlyph>
    <TTGlyph name="Umacron" xMin="46" yMin="-12" xMax="607" yMax="866">
      <component glyphName="U" x="0" y="0" flags="0x1000"/>
      <component glyphName="macron" x="133" y="175" flags="0x1000"/>
    </TTGlyph>
    <TTGlyph name="Uogonek" xMin="46" yMin="-197" xMax="607" yMax="647">
      <contour>
        <pt x="600" y="319" on="1"/>
        <pt x="599" y="216" on="1"/>
        <pt x="599" y="107" on="0"/>
        <pt x="525" y="47" on="1"/>
        <pt x="481" y="-22" on="1"/>
        <pt x="465" y="-46" on="0"/>
        <pt x="465" y="-66" on="1"/>
        <pt x="465" y="-99" on="0"/>
        <pt x="501" y="-99" on="1"/>
        <pt x="530" y="-99" on="0"/>
        <pt x="562" y="-79" on="1"/>
        <pt x="572" y="-79" on="1"/>
        <pt x="584" y="-151" on="1"/>
        <pt x="524" y="-197" on="0"/>
        <pt x="473" y="-197" on="1"/>
        <pt x="425" y="-197" on="0"/>
        <pt x="369" y="-142" on="0"/>
        <pt x="369" y="-100" on="1"/>
        <pt x="369" y="-55" on="0"/>
        <pt x="402" y="-9" on="1"/>
        <pt x="405" y="-4" on="1"/>
        <pt x="362" y="-12" on="0"/>
        <pt x="316" y="-12" on="1"/>
        <pt x="185" y="-12" on="0"/>
        <pt x="46" y="106" on="0"/>
        <pt x="49" y="216" on="1"/>
        <pt x="52" y="319" on="1"/>
        <pt x="46" y="647" on="1"/>
        <pt x="247" y="647" on="1"/>
        <pt x="238" y="243" on="1"/>
        <pt x="237" y="192" on="0"/>
        <pt x="278" y="146" on="0"/>
        <pt x="324" y="146" on="1"/>
        <pt x="371" y="146" on="0"/>
        <pt x="413" y="192" on="0"/>
        <pt x="412" y="243" on="1"/>
        <pt x="403" y="647" on="1"/>
        <pt x="607" y="647" on="1"/>
      </contour>
    </TTGlyph>
    <TTGlyph name="Uring" xMin="46" yMin="-12" xMax="607" yMax="931">
      <component glyphName="U" x="0" y="0" flags="0x1000"/>
      <component glyphName="ring" x="133" y="175" flags="0x1000"/>
    </TTGlyph>
    <TTGlyph name="Utilde" xMin="46" yMin="-12" xMax="607" yMax="916">
      <component glyphName="U" x="0" y="0" flags="0x1000"/>
      <component glyphName="tilde" x="133" y="175" flags="0x1000"/>
    </TTGlyph>
    <TTGlyph name="V" xMin="4" yMin="0" xMax="619" yMax="647">
      <contour>
        <pt x="181" y="0" on="1"/>
        <pt x="4" y="647" on="1"/>
        <pt x="207" y="647" on="1"/>
        <pt x="225" y="540" on="1"/>
        <pt x="300" y="179" on="1"/>
        <pt x="312" y="179" on="1"/>
        <pt x="404" y="528" on="1"/>
        <pt x="423" y="647" on="1"/>
        <pt x="619" y="647" on="1"/>
        <pt x="423" y="0" on="1"/>
      </contour>
    </TTGlyph>
    <TTGlyph name="V.ss01" xMin="-100" yMin="0" xMax="640" yMax="513">
      <contour>
        <pt x="390" y="65" on="1"/>
        <pt x="640" y="65" on="1"/>
        <pt x="640" y="0" on="1"/>
        <pt x="-100" y="0" on="1"/>
        <pt x="-100" y="65" on="1"/>
        <pt x="145" y="65" on="1"/>
        <pt x="38" y="448" on="1"/>
        <pt x="-100" y="448" on="1"/>
        <pt x="-100" y="513" on="1"/>
        <pt x="640" y="513" on="1"/>
        <pt x="640" y="448" on="1"/>
        <pt x="509" y="448" on="1"/>
      </contour>
      <contour>
        <pt x="210" y="448" on="1"/>
        <pt x="217" y="410" on="1"/>
        <pt x="265" y="167" on="1"/>
        <pt x="276" y="167" on="1"/>
        <pt x="337" y="399" on="1"/>
        <pt x="345" y="448" on="1"/>
      </contour>
    </TTGlyph>
    <TTGlyph name="W" xMin="17" yMin="0" xMax="914" yMax="647">
      <contour>
        <pt x="511" y="0" on="1"/>
        <pt x="450" y="234" on="1"/>
        <pt x="438" y="234" on="1"/>
        <pt x="382" y="0" on="1"/>
        <pt x="169" y="0" on="1"/>
        <pt x="17" y="647" on="1"/>
        <pt x="211" y="647" on="1"/>
        <pt x="221" y="547" on="1"/>
        <pt x="284" y="201" on="1"/>
        <pt x="296" y="201" on="1"/>
        <pt x="371" y="496" on="1"/>
        <pt x="337" y="647" on="1"/>
        <pt x="539" y="647" on="1"/>
        <pt x="553" y="527" on="1"/>
        <pt x="621" y="201" on="1"/>
        <pt x="633" y="201" on="1"/>
        <pt x="712" y="535" on="1"/>
        <pt x="730" y="647" on="1"/>
        <pt x="914" y="647" on="1"/>
        <pt x="723" y="0" on="1"/>
      </contour>
    </TTGlyph>
    <TTGlyph name="Wacute" xMin="17" yMin="0" xMax="914" yMax="918">
      <component glyphName="W" x="0" y="0" flags="0x1000"/>
      <component glyphName="acute.cap" x="276" y="175" flags="0x1000"/>
    </TTGlyph>
    <TTGlyph name="Wcircumflex" xMin="17" yMin="0" xMax="914" yMax="916">
      <contour>
        <pt x="371" y="859" on="0"/>
        <pt x="434" y="916" on="1"/>
        <pt x="468" y="916" on="1"/>
        <pt x="531" y="859" on="0"/>
        <pt x="621" y="797" on="1"/>
        <pt x="587" y="721" on="1"/>
        <pt x="569" y="721" on="1"/>
        <pt x="451" y="781" on="1"/>
        <pt x="333" y="721" on="1"/>
        <pt x="315" y="721" on="1"/>
        <pt x="281" y="797" on="1"/>
      </contour>
      <contour>
        <pt x="511" y="0" on="1"/>
        <pt x="450" y="234" on="1"/>
        <pt x="438" y="234" on="1"/>
        <pt x="382" y="0" on="1"/>
        <pt x="169" y="0" on="1"/>
        <pt x="17" y="647" on="1"/>
        <pt x="211" y="647" on="1"/>
        <pt x="221" y="547" on="1"/>
        <pt x="284" y="201" on="1"/>
        <pt x="296" y="201" on="1"/>
        <pt x="371" y="496" on="1"/>
        <pt x="337" y="647" on="1"/>
        <pt x="539" y="647" on="1"/>
        <pt x="553" y="527" on="1"/>
        <pt x="621" y="201" on="1"/>
        <pt x="633" y="201" on="1"/>
        <pt x="712" y="535" on="1"/>
        <pt x="730" y="647" on="1"/>
        <pt x="914" y="647" on="1"/>
        <pt x="723" y="0" on="1"/>
      </contour>
    </TTGlyph>
    <TTGlyph name="Wdieresis" xMin="17" yMin="0" xMax="914" yMax="892">
      <contour>
        <pt x="397" y="892" on="0"/>
        <pt x="440" y="849" on="0"/>
        <pt x="440" y="810" on="1"/>
        <pt x="440" y="768" on="0"/>
        <pt x="393" y="719" on="0"/>
        <pt x="352" y="719" on="1"/>
        <pt x="312" y="719" on="0"/>
        <pt x="270" y="762" on="0"/>
        <pt x="270" y="802" on="1"/>
        <pt x="270" y="844" on="0"/>
        <pt x="318" y="892" on="0"/>
        <pt x="359" y="892" on="1"/>
      </contour>
      <contour>
        <pt x="590" y="892" on="0"/>
        <pt x="633" y="849" on="0"/>
        <pt x="633" y="810" on="1"/>
        <pt x="633" y="768" on="0"/>
        <pt x="586" y="719" on="0"/>
        <pt x="545" y="719" on="1"/>
        <pt x="505" y="719" on="0"/>
        <pt x="463" y="762" on="0"/>
        <pt x="463" y="802" on="1"/>
        <pt x="463" y="844" on="0"/>
        <pt x="511" y="892" on="0"/>
        <pt x="552" y="892" on="1"/>
      </contour>
      <contour>
        <pt x="511" y="0" on="1"/>
        <pt x="450" y="234" on="1"/>
        <pt x="438" y="234" on="1"/>
        <pt x="382" y="0" on="1"/>
        <pt x="169" y="0" on="1"/>
        <pt x="17" y="647" on="1"/>
        <pt x="211" y="647" on="1"/>
        <pt x="221" y="547" on="1"/>
        <pt x="284" y="201" on="1"/>
        <pt x="296" y="201" on="1"/>
        <pt x="371" y="496" on="1"/>
        <pt x="337" y="647" on="1"/>
        <pt x="539" y="647" on="1"/>
        <pt x="553" y="527" on="1"/>
        <pt x="621" y="201" on="1"/>
        <pt x="633" y="201" on="1"/>
        <pt x="712" y="535" on="1"/>
        <pt x="730" y="647" on="1"/>
        <pt x="914" y="647" on="1"/>
        <pt x="723" y="0" on="1"/>
      </contour>
    </TTGlyph>
    <TTGlyph name="Wgrave" xMin="17" yMin="0" xMax="914" yMax="918">
      <contour>
        <pt x="482" y="855" on="0"/>
        <pt x="600" y="795" on="1"/>
        <pt x="570" y="716" on="1"/>
        <pt x="553" y="712" on="1"/>
        <pt x="447" y="739" on="0"/>
        <pt x="315" y="781" on="1"/>
        <pt x="309" y="797" on="1"/>
        <pt x="358" y="914" on="1"/>
        <pt x="375" y="918" on="1"/>
      </contour>
      <contour>
        <pt x="511" y="0" on="1"/>
        <pt x="450" y="234" on="1"/>
        <pt x="438" y="234" on="1"/>
        <pt x="382" y="0" on="1"/>
        <pt x="169" y="0" on="1"/>
        <pt x="17" y="647" on="1"/>
        <pt x="211" y="647" on="1"/>
        <pt x="221" y="547" on="1"/>
        <pt x="284" y="201" on="1"/>
        <pt x="296" y="201" on="1"/>
        <pt x="371" y="496" on="1"/>
        <pt x="337" y="647" on="1"/>
        <pt x="539" y="647" on="1"/>
        <pt x="553" y="527" on="1"/>
        <pt x="621" y="201" on="1"/>
        <pt x="633" y="201" on="1"/>
        <pt x="712" y="535" on="1"/>
        <pt x="730" y="647" on="1"/>
        <pt x="914" y="647" on="1"/>
        <pt x="723" y="0" on="1"/>
      </contour>
    </TTGlyph>
    <TTGlyph name="X" xMin="-4" yMin="0" xMax="642" yMax="647">
      <contour>
        <pt x="642" y="0" on="1"/>
        <pt x="403" y="0" on="1"/>
        <pt x="369" y="79" on="1"/>
        <pt x="311" y="184" on="1"/>
        <pt x="237" y="69" on="1"/>
        <pt x="205" y="0" on="1"/>
        <pt x="2" y="0" on="1"/>
        <pt x="194" y="311" on="1"/>
        <pt x="-4" y="647" on="1"/>
        <pt x="236" y="647" on="1"/>
        <pt x="271" y="566" on="1"/>
        <pt x="328" y="464" on="1"/>
        <pt x="393" y="577" on="1"/>
        <pt x="423" y="647" on="1"/>
        <pt x="632" y="647" on="1"/>
        <pt x="447" y="342" on="1"/>
      </contour>
    </TTGlyph>
    <TTGlyph name="X.ss01" xMin="-100" yMin="0" xMax="655" yMax="513">
      <contour>
        <pt x="511" y="65" on="1"/>
        <pt x="655" y="65" on="1"/>
        <pt x="655" y="0" on="1"/>
        <pt x="-100" y="0" on="1"/>
        <pt x="-100" y="65" on="1"/>
        <pt x="60" y="65" on="1"/>
        <pt x="181" y="247" on="1"/>
        <pt x="56" y="448" on="1"/>
        <pt x="-100" y="448" on="1"/>
        <pt x="-100" y="513" on="1"/>
        <pt x="655" y="513" on="1"/>
        <pt x="655" y="448" on="1"/>
        <pt x="500" y="448" on="1"/>
        <pt x="387" y="272" on="1"/>
      </contour>
      <contour>
        <pt x="258" y="419" on="1"/>
        <pt x="290" y="369" on="1"/>
        <pt x="329" y="428" on="1"/>
        <pt x="338" y="448" on="1"/>
        <pt x="245" y="448" on="1"/>
      </contour>
      <contour>
        <pt x="308" y="97" on="1"/>
        <pt x="276" y="147" on="1"/>
        <pt x="231" y="89" on="1"/>
        <pt x="220" y="65" on="1"/>
        <pt x="322" y="65" on="1"/>
      </contour>
    </TTGlyph>
    <TTGlyph name="Y" xMin="-8" yMin="0" xMax="614" yMax="647">
      <contour>
        <pt x="390" y="0" on="1"/>
        <pt x="190" y="0" on="1"/>
        <pt x="200" y="170" on="1"/>
        <pt x="199" y="201" on="1"/>
        <pt x="-8" y="647" on="1"/>
        <pt x="202" y="647" on="1"/>
        <pt x="218" y="593" on="1"/>
        <pt x="291" y="398" on="1"/>
        <pt x="303" y="398" on="1"/>
        <pt x="387" y="586" on="1"/>
        <pt x="410" y="647" on="1"/>
        <pt x="614" y="647" on="1"/>
        <pt x="384" y="208" on="1"/>
        <pt x="382" y="170" on="1"/>
      </contour>
    </TTGlyph>
    <TTGlyph name="Yacute" xMin="-8" yMin="0" xMax="614" yMax="918">
      <component glyphName="Y" x="0" y="0" flags="0x1000"/>
      <component glyphName="acute.cap" x="122" y="175" flags="0x1000"/>
    </TTGlyph>
    <TTGlyph name="Ycircumflex" xMin="-8" yMin="0" xMax="614" yMax="916">
      <contour>
        <pt x="127" y="797" on="1"/>
        <pt x="217" y="859" on="0"/>
        <pt x="280" y="916" on="1"/>
        <pt x="314" y="916" on="1"/>
        <pt x="377" y="859" on="0"/>
        <pt x="467" y="797" on="1"/>
        <pt x="433" y="721" on="1"/>
        <pt x="415" y="721" on="1"/>
        <pt x="297" y="781" on="1"/>
        <pt x="179" y="721" on="1"/>
        <pt x="161" y="721" on="1"/>
      </contour>
      <contour>
        <pt x="390" y="0" on="1"/>
        <pt x="190" y="0" on="1"/>
        <pt x="200" y="170" on="1"/>
        <pt x="199" y="201" on="1"/>
        <pt x="-8" y="647" on="1"/>
        <pt x="202" y="647" on="1"/>
        <pt x="218" y="593" on="1"/>
        <pt x="291" y="398" on="1"/>
        <pt x="303" y="398" on="1"/>
        <pt x="387" y="586" on="1"/>
        <pt x="410" y="647" on="1"/>
        <pt x="614" y="647" on="1"/>
        <pt x="384" y="208" on="1"/>
        <pt x="382" y="170" on="1"/>
      </contour>
    </TTGlyph>
    <TTGlyph name="Ydieresis" xMin="-8" yMin="0" xMax="614" yMax="892">
      <contour>
        <pt x="158" y="719" on="0"/>
        <pt x="116" y="762" on="0"/>
        <pt x="116" y="802" on="1"/>
        <pt x="116" y="844" on="0"/>
        <pt x="164" y="892" on="0"/>
        <pt x="205" y="892" on="1"/>
        <pt x="243" y="892" on="0"/>
        <pt x="286" y="849" on="0"/>
        <pt x="286" y="810" on="1"/>
        <pt x="286" y="768" on="0"/>
        <pt x="239" y="719" on="0"/>
        <pt x="198" y="719" on="1"/>
      </contour>
      <contour>
        <pt x="351" y="719" on="0"/>
        <pt x="309" y="762" on="0"/>
        <pt x="309" y="802" on="1"/>
        <pt x="309" y="844" on="0"/>
        <pt x="357" y="892" on="0"/>
        <pt x="398" y="892" on="1"/>
        <pt x="436" y="892" on="0"/>
        <pt x="479" y="849" on="0"/>
        <pt x="479" y="810" on="1"/>
        <pt x="479" y="768" on="0"/>
        <pt x="432" y="719" on="0"/>
        <pt x="391" y="719" on="1"/>
      </contour>
      <contour>
        <pt x="390" y="0" on="1"/>
        <pt x="190" y="0" on="1"/>
        <pt x="200" y="170" on="1"/>
        <pt x="199" y="201" on="1"/>
        <pt x="-8" y="647" on="1"/>
        <pt x="202" y="647" on="1"/>
        <pt x="218" y="593" on="1"/>
        <pt x="291" y="398" on="1"/>
        <pt x="303" y="398" on="1"/>
        <pt x="387" y="586" on="1"/>
        <pt x="410" y="647" on="1"/>
        <pt x="614" y="647" on="1"/>
        <pt x="384" y="208" on="1"/>
        <pt x="382" y="170" on="1"/>
      </contour>
    </TTGlyph>
    <TTGlyph name="Ydotbelow" xMin="-8" yMin="-231" xMax="614" yMax="647">
      <contour>
        <pt x="390" y="0" on="1"/>
        <pt x="190" y="0" on="1"/>
        <pt x="200" y="170" on="1"/>
        <pt x="199" y="201" on="1"/>
        <pt x="-8" y="647" on="1"/>
        <pt x="202" y="647" on="1"/>
        <pt x="218" y="593" on="1"/>
        <pt x="291" y="398" on="1"/>
        <pt x="303" y="398" on="1"/>
        <pt x="387" y="586" on="1"/>
        <pt x="410" y="647" on="1"/>
        <pt x="614" y="647" on="1"/>
        <pt x="384" y="208" on="1"/>
        <pt x="382" y="170" on="1"/>
      </contour>
      <contour>
        <pt x="338" y="-32" on="0"/>
        <pt x="387" y="-82" on="0"/>
        <pt x="387" y="-127" on="1"/>
        <pt x="387" y="-175" on="0"/>
        <pt x="333" y="-231" on="0"/>
        <pt x="286" y="-231" on="1"/>
        <pt x="240" y="-231" on="0"/>
        <pt x="192" y="-182" on="0"/>
        <pt x="192" y="-136" on="1"/>
        <pt x="192" y="-88" on="0"/>
        <pt x="247" y="-32" on="0"/>
        <pt x="294" y="-32" on="1"/>
      </contour>
    </TTGlyph>
    <TTGlyph name="Ygrave" xMin="-8" yMin="0" xMax="614" yMax="918">
      <contour>
        <pt x="293" y="739" on="0"/>
        <pt x="161" y="781" on="1"/>
        <pt x="155" y="797" on="1"/>
        <pt x="204" y="914" on="1"/>
        <pt x="221" y="918" on="1"/>
        <pt x="328" y="855" on="0"/>
        <pt x="446" y="795" on="1"/>
        <pt x="416" y="716" on="1"/>
        <pt x="399" y="712" on="1"/>
      </contour>
      <contour>
        <pt x="390" y="0" on="1"/>
        <pt x="190" y="0" on="1"/>
        <pt x="200" y="170" on="1"/>
        <pt x="199" y="201" on="1"/>
        <pt x="-8" y="647" on="1"/>
        <pt x="202" y="647" on="1"/>
        <pt x="218" y="593" on="1"/>
        <pt x="291" y="398" on="1"/>
        <pt x="303" y="398" on="1"/>
        <pt x="387" y="586" on="1"/>
        <pt x="410" y="647" on="1"/>
        <pt x="614" y="647" on="1"/>
        <pt x="384" y="208" on="1"/>
        <pt x="382" y="170" on="1"/>
      </contour>
    </TTGlyph>
    <TTGlyph name="Yhookabove" xMin="-8" yMin="0" xMax="614" yMax="948">
      <component glyphName="Y" x="0" y="0" flags="0x1000"/>
      <component glyphName="hookabove" x="103" y="175" flags="0x1000"/>
    </TTGlyph>
    <TTGlyph name="Ytilde" xMin="-8" yMin="0" xMax="614" yMax="916">
      <component glyphName="Y" x="0" y="0" flags="0x1000"/>
      <component glyphName="tilde" x="103" y="175" flags="0x1000"/>
    </TTGlyph>
    <TTGlyph name="Z" xMin="24" yMin="-6" xMax="553" yMax="650">
      <contour>
        <pt x="263" y="148" on="1"/>
        <pt x="424" y="148" on="1"/>
        <pt x="547" y="157" on="1"/>
        <pt x="553" y="148" on="1"/>
        <pt x="537" y="-5" on="1"/>
        <pt x="359" y="0" on="1"/>
        <pt x="129" y="0" on="1"/>
        <pt x="28" y="-6" on="1"/>
        <pt x="28" y="137" on="1"/>
        <pt x="308" y="499" on="1"/>
        <pt x="151" y="499" on="1"/>
        <pt x="31" y="489" on="1"/>
        <pt x="24" y="497" on="1"/>
        <pt x="38" y="650" on="1"/>
        <pt x="188" y="647" on="1"/>
        <pt x="462" y="647" on="1"/>
        <pt x="538" y="648" on="1"/>
        <pt x="538" y="504" on="1"/>
      </contour>
    </TTGlyph>
    <TTGlyph name="Zacute" xMin="24" yMin="-6" xMax="553" yMax="918">
      <component glyphName="Z" x="0" y="0" flags="0x1000"/>
      <component glyphName="acute.cap" x="110" y="175" flags="0x1000"/>
    </TTGlyph>
    <TTGlyph name="Zcaron" xMin="24" yMin="-6" xMax="553" yMax="907">
      <component glyphName="Z" x="0" y="0" flags="0x1000"/>
      <component glyphName="caron.cap" x="92" y="175" flags="0x1000"/>
    </TTGlyph>
    <TTGlyph name="Zdotaccent" xMin="24" yMin="-6" xMax="553" yMax="903">
      <contour>
        <pt x="333" y="903" on="0"/>
        <pt x="382" y="853" on="0"/>
        <pt x="382" y="808" on="1"/>
        <pt x="382" y="760" on="0"/>
        <pt x="328" y="704" on="0"/>
        <pt x="281" y="704" on="1"/>
        <pt x="235" y="704" on="0"/>
        <pt x="187" y="753" on="0"/>
        <pt x="187" y="799" on="1"/>
        <pt x="187" y="847" on="0"/>
        <pt x="242" y="903" on="0"/>
        <pt x="289" y="903" on="1"/>
      </contour>
      <contour>
        <pt x="263" y="148" on="1"/>
        <pt x="424" y="148" on="1"/>
        <pt x="547" y="157" on="1"/>
        <pt x="553" y="148" on="1"/>
        <pt x="537" y="-5" on="1"/>
        <pt x="359" y="0" on="1"/>
        <pt x="129" y="0" on="1"/>
        <pt x="28" y="-6" on="1"/>
        <pt x="28" y="137" on="1"/>
        <pt x="308" y="499" on="1"/>
        <pt x="151" y="499" on="1"/>
        <pt x="31" y="489" on="1"/>
        <pt x="24" y="497" on="1"/>
        <pt x="38" y="650" on="1"/>
        <pt x="188" y="647" on="1"/>
        <pt x="462" y="647" on="1"/>
        <pt x="538" y="648" on="1"/>
        <pt x="538" y="504" on="1"/>
      </contour>
    </TTGlyph>
    <TTGlyph name="a" xMin="7" yMin="0" xMax="534" yMax="513">
      <contour>
        <pt x="335" y="71" on="1"/>
        <pt x="259" y="73" on="1"/>
        <pt x="199" y="70" on="1"/>
        <pt x="188" y="0" on="1"/>
        <pt x="7" y="0" on="1"/>
        <pt x="166" y="513" on="1"/>
        <pt x="390" y="513" on="1"/>
        <pt x="534" y="0" on="1"/>
        <pt x="346" y="0" on="1"/>
      </contour>
      <contour>
        <pt x="309" y="206" on="1"/>
        <pt x="280" y="349" on="1"/>
        <pt x="269" y="349" on="1"/>
        <pt x="231" y="206" on="1"/>
        <pt x="270" y="205" on="1"/>
      </contour>
    </TTGlyph>
    <TTGlyph name="a.sups" xMin="15" yMin="315" xMax="348" yMax="655">
      <contour>
        <pt x="253" y="655" on="0"/>
        <pt x="323" y="603" on="0"/>
        <pt x="323" y="555" on="1"/>
        <pt x="323" y="527" on="0"/>
        <pt x="320" y="485" on="1"/>
        <pt x="318" y="429" on="1"/>
        <pt x="318" y="413" on="0"/>
        <pt x="327" y="413" on="1"/>
        <pt x="335" y="413" on="0"/>
        <pt x="339" y="415" on="1"/>
        <pt x="348" y="407" on="1"/>
        <pt x="335" y="336" on="1"/>
        <pt x="308" y="316" on="0"/>
        <pt x="276" y="316" on="1"/>
        <pt x="246" y="316" on="0"/>
        <pt x="217" y="337" on="0"/>
        <pt x="208" y="364" on="1"/>
        <pt x="203" y="364" on="1"/>
        <pt x="174" y="330" on="0"/>
        <pt x="133" y="315" on="1"/>
        <pt x="79" y="315" on="0"/>
        <pt x="15" y="373" on="0"/>
        <pt x="15" y="423" on="1"/>
        <pt x="15" y="500" on="0"/>
        <pt x="96" y="512" on="1"/>
        <pt x="195" y="524" on="1"/>
        <pt x="196" y="529" on="1"/>
        <pt x="196" y="546" on="0"/>
        <pt x="181" y="560" on="0"/>
        <pt x="164" y="560" on="1"/>
        <pt x="124" y="560" on="0"/>
        <pt x="61" y="528" on="1"/>
        <pt x="53" y="533" on="1"/>
        <pt x="38" y="622" on="1"/>
        <pt x="107" y="655" on="0"/>
        <pt x="187" y="655" on="1"/>
      </contour>
      <contour>
        <pt x="139" y="454" on="0"/>
        <pt x="139" y="436" on="1"/>
        <pt x="139" y="409" on="0"/>
        <pt x="164" y="409" on="1"/>
        <pt x="180" y="409" on="0"/>
        <pt x="195" y="418" on="1"/>
        <pt x="195" y="463" on="1"/>
        <pt x="158" y="459" on="1"/>
      </contour>
    </TTGlyph>
    <TTGlyph name="aacute" xMin="7" yMin="0" xMax="534" yMax="796">
      <component glyphName="a" x="0" y="0" flags="0x1000"/>
      <component glyphName="acute" x="107" y="41" flags="0x1000"/>
    </TTGlyph>
    <TTGlyph name="abreve" xMin="7" yMin="0" xMax="534" yMax="774">
      <component glyphName="a" x="0" y="0" flags="0x1000"/>
      <component glyphName="breve" x="89" y="41" flags="0x1000"/>
    </TTGlyph>
    <TTGlyph name="abreveacute" xMin="7" yMin="0" xMax="534" yMax="922">
      <component glyphName="a" x="0" y="0" flags="0x1000"/>
      <component glyphName="breveacute" x="88" y="41" flags="0x1000"/>
    </TTGlyph>
    <TTGlyph name="abrevedotbelow" xMin="7" yMin="-231" xMax="534" yMax="774">
      <contour>
        <pt x="207" y="576" on="0"/>
        <pt x="122" y="655" on="0"/>
        <pt x="105" y="712" on="1"/>
        <pt x="145" y="774" on="1"/>
        <pt x="172" y="774" on="1"/>
        <pt x="188" y="744" on="0"/>
        <pt x="247" y="711" on="0"/>
        <pt x="284" y="711" on="1"/>
        <pt x="321" y="711" on="0"/>
        <pt x="380" y="744" on="0"/>
        <pt x="394" y="774" on="1"/>
        <pt x="421" y="774" on="1"/>
        <pt x="461" y="712" on="1"/>
        <pt x="442" y="654" on="0"/>
        <pt x="350" y="576" on="0"/>
        <pt x="278" y="576" on="1"/>
      </contour>
      <contour>
        <pt x="7" y="0" on="1"/>
        <pt x="166" y="513" on="1"/>
        <pt x="390" y="513" on="1"/>
        <pt x="534" y="0" on="1"/>
        <pt x="346" y="0" on="1"/>
        <pt x="335" y="71" on="1"/>
        <pt x="259" y="73" on="1"/>
        <pt x="199" y="70" on="1"/>
        <pt x="188" y="0" on="1"/>
      </contour>
      <contour>
        <pt x="231" y="206" on="1"/>
        <pt x="270" y="205" on="1"/>
        <pt x="309" y="206" on="1"/>
        <pt x="280" y="349" on="1"/>
        <pt x="269" y="349" on="1"/>
      </contour>
      <contour>
        <pt x="317" y="-32" on="0"/>
        <pt x="366" y="-82" on="0"/>
        <pt x="366" y="-127" on="1"/>
        <pt x="366" y="-175" on="0"/>
        <pt x="312" y="-231" on="0"/>
        <pt x="265" y="-231" on="1"/>
        <pt x="219" y="-231" on="0"/>
        <pt x="171" y="-182" on="0"/>
        <pt x="171" y="-136" on="1"/>
        <pt x="171" y="-88" on="0"/>
        <pt x="226" y="-32" on="0"/>
        <pt x="273" y="-32" on="1"/>
      </contour>
    </TTGlyph>
    <TTGlyph name="abrevegrave" xMin="7" yMin="0" xMax="534" yMax="922">
      <component glyphName="a" x="0" y="0" flags="0x1000"/>
      <component glyphName="brevegrave" x="88" y="41" flags="0x1000"/>
    </TTGlyph>
    <TTGlyph name="abrevehookabove" xMin="7" yMin="0" xMax="534" yMax="983">
      <contour>
        <pt x="208" y="901" on="0"/>
        <pt x="174" y="875" on="1"/>
        <pt x="145" y="922" on="1"/>
        <pt x="171" y="950" on="0"/>
        <pt x="238" y="983" on="0"/>
        <pt x="272" y="983" on="1"/>
        <pt x="315" y="983" on="0"/>
        <pt x="372" y="934" on="0"/>
        <pt x="372" y="895" on="1"/>
        <pt x="372" y="873" on="0"/>
        <pt x="346" y="835" on="0"/>
        <pt x="311" y="803" on="1"/>
        <pt x="338" y="760" on="1"/>
        <pt x="274" y="721" on="1"/>
        <pt x="220" y="801" on="1"/>
        <pt x="245" y="819" on="0"/>
        <pt x="274" y="861" on="0"/>
        <pt x="274" y="877" on="1"/>
        <pt x="274" y="901" on="0"/>
        <pt x="244" y="901" on="1"/>
      </contour>
      <contour>
        <pt x="215" y="562" on="0"/>
        <pt x="125" y="626" on="0"/>
        <pt x="104" y="686" on="1"/>
        <pt x="144" y="746" on="1"/>
        <pt x="171" y="746" on="1"/>
        <pt x="205" y="696" on="0"/>
        <pt x="286" y="696" on="1"/>
        <pt x="360" y="696" on="0"/>
        <pt x="393" y="746" on="1"/>
        <pt x="420" y="746" on="1"/>
        <pt x="460" y="686" on="1"/>
        <pt x="437" y="626" on="0"/>
        <pt x="344" y="562" on="0"/>
        <pt x="279" y="562" on="1"/>
      </contour>
      <contour>
        <pt x="335" y="71" on="1"/>
        <pt x="259" y="73" on="1"/>
        <pt x="199" y="70" on="1"/>
        <pt x="188" y="0" on="1"/>
        <pt x="7" y="0" on="1"/>
        <pt x="166" y="513" on="1"/>
        <pt x="390" y="513" on="1"/>
        <pt x="534" y="0" on="1"/>
        <pt x="346" y="0" on="1"/>
      </contour>
      <contour>
        <pt x="309" y="206" on="1"/>
        <pt x="280" y="349" on="1"/>
        <pt x="269" y="349" on="1"/>
        <pt x="231" y="206" on="1"/>
        <pt x="270" y="205" on="1"/>
      </contour>
    </TTGlyph>
    <TTGlyph name="abrevetilde" xMin="7" yMin="0" xMax="534" yMax="950">
      <contour>
        <pt x="107" y="805" on="1"/>
        <pt x="107" y="820" on="1"/>
        <pt x="181" y="922" on="1"/>
        <pt x="195" y="928" on="1"/>
        <pt x="215" y="925" on="0"/>
        <pt x="272" y="910" on="1"/>
        <pt x="322" y="897" on="0"/>
        <pt x="335" y="897" on="1"/>
        <pt x="350" y="897" on="0"/>
        <pt x="374" y="921" on="0"/>
        <pt x="397" y="950" on="1"/>
        <pt x="412" y="950" on="1"/>
        <pt x="464" y="900" on="1"/>
        <pt x="464" y="885" on="1"/>
        <pt x="390" y="782" on="1"/>
        <pt x="375" y="777" on="1"/>
        <pt x="352" y="780" on="0"/>
        <pt x="296" y="795" on="1"/>
        <pt x="250" y="808" on="0"/>
        <pt x="236" y="808" on="1"/>
        <pt x="223" y="808" on="0"/>
        <pt x="199" y="787" on="0"/>
        <pt x="178" y="760" on="0"/>
        <pt x="174" y="755" on="1"/>
        <pt x="159" y="755" on="1"/>
      </contour>
      <contour>
        <pt x="359" y="687" on="0"/>
        <pt x="390" y="733" on="1"/>
        <pt x="415" y="733" on="1"/>
        <pt x="452" y="677" on="1"/>
        <pt x="431" y="621" on="0"/>
        <pt x="345" y="562" on="0"/>
        <pt x="284" y="562" on="1"/>
        <pt x="225" y="562" on="0"/>
        <pt x="141" y="621" on="0"/>
        <pt x="121" y="677" on="1"/>
        <pt x="158" y="733" on="1"/>
        <pt x="183" y="733" on="1"/>
        <pt x="215" y="687" on="0"/>
        <pt x="290" y="687" on="1"/>
      </contour>
      <contour>
        <pt x="335" y="71" on="1"/>
        <pt x="259" y="73" on="1"/>
        <pt x="199" y="70" on="1"/>
        <pt x="188" y="0" on="1"/>
        <pt x="7" y="0" on="1"/>
        <pt x="166" y="513" on="1"/>
        <pt x="390" y="513" on="1"/>
        <pt x="534" y="0" on="1"/>
        <pt x="346" y="0" on="1"/>
      </contour>
      <contour>
        <pt x="309" y="206" on="1"/>
        <pt x="280" y="349" on="1"/>
        <pt x="269" y="349" on="1"/>
        <pt x="231" y="206" on="1"/>
        <pt x="270" y="205" on="1"/>
      </contour>
    </TTGlyph>
    <TTGlyph name="acaron" xMin="7" yMin="0" xMax="534" yMax="789">
      <component glyphName="a" x="0" y="0" flags="0x1000"/>
      <component glyphName="caron" x="89" y="41" flags="0x1000"/>
    </TTGlyph>
    <TTGlyph name="acircumflex" xMin="7" yMin="0" xMax="534" yMax="793">
      <contour>
        <pt x="102" y="643" on="1"/>
        <pt x="171" y="701" on="0"/>
        <pt x="265" y="793" on="1"/>
        <pt x="299" y="793" on="1"/>
        <pt x="369" y="723" on="0"/>
        <pt x="462" y="643" on="1"/>
        <pt x="415" y="571" on="1"/>
        <pt x="397" y="571" on="1"/>
        <pt x="321" y="619" on="0"/>
        <pt x="282" y="649" on="1"/>
        <pt x="243" y="619" on="0"/>
        <pt x="167" y="571" on="1"/>
        <pt x="149" y="571" on="1"/>
      </contour>
      <contour>
        <pt x="335" y="71" on="1"/>
        <pt x="259" y="73" on="1"/>
        <pt x="199" y="70" on="1"/>
        <pt x="188" y="0" on="1"/>
        <pt x="7" y="0" on="1"/>
        <pt x="166" y="513" on="1"/>
        <pt x="390" y="513" on="1"/>
        <pt x="534" y="0" on="1"/>
        <pt x="346" y="0" on="1"/>
      </contour>
      <contour>
        <pt x="309" y="206" on="1"/>
        <pt x="280" y="349" on="1"/>
        <pt x="269" y="349" on="1"/>
        <pt x="231" y="206" on="1"/>
        <pt x="270" y="205" on="1"/>
      </contour>
    </TTGlyph>
    <TTGlyph name="acircumflexacute" xMin="7" yMin="0" xMax="534" yMax="918">
      <component glyphName="a" x="0" y="0" flags="0x1000"/>
      <component glyphName="circumflexacute" x="88" y="41" flags="0x1000"/>
    </TTGlyph>
    <TTGlyph name="acircumflexdotbelow" xMin="7" yMin="-231" xMax="534" yMax="793">
      <contour>
        <pt x="102" y="643" on="1"/>
        <pt x="171" y="701" on="0"/>
        <pt x="265" y="793" on="1"/>
        <pt x="299" y="793" on="1"/>
        <pt x="369" y="723" on="0"/>
        <pt x="462" y="643" on="1"/>
        <pt x="415" y="571" on="1"/>
        <pt x="397" y="571" on="1"/>
        <pt x="321" y="619" on="0"/>
        <pt x="282" y="649" on="1"/>
        <pt x="243" y="619" on="0"/>
        <pt x="167" y="571" on="1"/>
        <pt x="149" y="571" on="1"/>
      </contour>
      <contour>
        <pt x="7" y="0" on="1"/>
        <pt x="166" y="513" on="1"/>
        <pt x="390" y="513" on="1"/>
        <pt x="534" y="0" on="1"/>
        <pt x="346" y="0" on="1"/>
        <pt x="335" y="71" on="1"/>
        <pt x="259" y="73" on="1"/>
        <pt x="199" y="70" on="1"/>
        <pt x="188" y="0" on="1"/>
      </contour>
      <contour>
        <pt x="231" y="206" on="1"/>
        <pt x="270" y="205" on="1"/>
        <pt x="309" y="206" on="1"/>
        <pt x="280" y="349" on="1"/>
        <pt x="269" y="349" on="1"/>
      </contour>
      <contour>
        <pt x="317" y="-32" on="0"/>
        <pt x="366" y="-82" on="0"/>
        <pt x="366" y="-127" on="1"/>
        <pt x="366" y="-175" on="0"/>
        <pt x="312" y="-231" on="0"/>
        <pt x="265" y="-231" on="1"/>
        <pt x="219" y="-231" on="0"/>
        <pt x="171" y="-182" on="0"/>
        <pt x="171" y="-136" on="1"/>
        <pt x="171" y="-88" on="0"/>
        <pt x="226" y="-32" on="0"/>
        <pt x="273" y="-32" on="1"/>
      </contour>
    </TTGlyph>
    <TTGlyph name="acircumflexgrave" xMin="7" yMin="0" xMax="534" yMax="918">
      <component glyphName="a" x="0" y="0" flags="0x1000"/>
      <component glyphName="circumflexgrave" x="88" y="41" flags="0x1000"/>
    </TTGlyph>
    <TTGlyph name="acircumflexhookabove" xMin="7" yMin="0" xMax="534" yMax="967">
      <contour>
        <pt x="333" y="889" on="0"/>
        <pt x="300" y="864" on="1"/>
        <pt x="272" y="909" on="1"/>
        <pt x="297" y="936" on="0"/>
        <pt x="361" y="967" on="0"/>
        <pt x="393" y="967" on="1"/>
        <pt x="434" y="967" on="0"/>
        <pt x="489" y="921" on="0"/>
        <pt x="489" y="883" on="1"/>
        <pt x="489" y="863" on="0"/>
        <pt x="464" y="826" on="0"/>
        <pt x="430" y="796" on="1"/>
        <pt x="456" y="755" on="1"/>
        <pt x="395" y="717" on="1"/>
        <pt x="344" y="794" on="1"/>
        <pt x="367" y="810" on="0"/>
        <pt x="395" y="850" on="0"/>
        <pt x="395" y="866" on="1"/>
        <pt x="395" y="889" on="0"/>
        <pt x="367" y="889" on="1"/>
      </contour>
      <contour>
        <pt x="111" y="643" on="1"/>
        <pt x="201" y="705" on="0"/>
        <pt x="264" y="762" on="1"/>
        <pt x="298" y="762" on="1"/>
        <pt x="361" y="705" on="0"/>
        <pt x="451" y="643" on="1"/>
        <pt x="417" y="567" on="1"/>
        <pt x="399" y="567" on="1"/>
        <pt x="281" y="627" on="1"/>
        <pt x="163" y="567" on="1"/>
        <pt x="145" y="567" on="1"/>
      </contour>
      <contour>
        <pt x="335" y="71" on="1"/>
        <pt x="259" y="73" on="1"/>
        <pt x="199" y="70" on="1"/>
        <pt x="188" y="0" on="1"/>
        <pt x="7" y="0" on="1"/>
        <pt x="166" y="513" on="1"/>
        <pt x="390" y="513" on="1"/>
        <pt x="534" y="0" on="1"/>
        <pt x="346" y="0" on="1"/>
      </contour>
      <contour>
        <pt x="309" y="206" on="1"/>
        <pt x="280" y="349" on="1"/>
        <pt x="269" y="349" on="1"/>
        <pt x="231" y="206" on="1"/>
        <pt x="270" y="205" on="1"/>
      </contour>
    </TTGlyph>
    <TTGlyph name="acircumflextilde" xMin="7" yMin="0" xMax="534" yMax="950">
      <contour>
        <pt x="107" y="805" on="1"/>
        <pt x="107" y="820" on="1"/>
        <pt x="181" y="922" on="1"/>
        <pt x="195" y="928" on="1"/>
        <pt x="215" y="925" on="0"/>
        <pt x="272" y="910" on="1"/>
        <pt x="322" y="897" on="0"/>
        <pt x="335" y="897" on="1"/>
        <pt x="350" y="897" on="0"/>
        <pt x="374" y="921" on="0"/>
        <pt x="397" y="950" on="1"/>
        <pt x="412" y="950" on="1"/>
        <pt x="464" y="900" on="1"/>
        <pt x="464" y="885" on="1"/>
        <pt x="390" y="782" on="1"/>
        <pt x="375" y="777" on="1"/>
        <pt x="352" y="780" on="0"/>
        <pt x="296" y="795" on="1"/>
        <pt x="250" y="808" on="0"/>
        <pt x="236" y="808" on="1"/>
        <pt x="223" y="808" on="0"/>
        <pt x="199" y="787" on="0"/>
        <pt x="178" y="760" on="0"/>
        <pt x="174" y="755" on="1"/>
        <pt x="159" y="755" on="1"/>
      </contour>
      <contour>
        <pt x="361" y="705" on="0"/>
        <pt x="451" y="643" on="1"/>
        <pt x="417" y="567" on="1"/>
        <pt x="399" y="567" on="1"/>
        <pt x="281" y="627" on="1"/>
        <pt x="163" y="567" on="1"/>
        <pt x="145" y="567" on="1"/>
        <pt x="111" y="643" on="1"/>
        <pt x="201" y="705" on="0"/>
        <pt x="264" y="762" on="1"/>
        <pt x="298" y="762" on="1"/>
      </contour>
      <contour>
        <pt x="335" y="71" on="1"/>
        <pt x="259" y="73" on="1"/>
        <pt x="199" y="70" on="1"/>
        <pt x="188" y="0" on="1"/>
        <pt x="7" y="0" on="1"/>
        <pt x="166" y="513" on="1"/>
        <pt x="390" y="513" on="1"/>
        <pt x="534" y="0" on="1"/>
        <pt x="346" y="0" on="1"/>
      </contour>
      <contour>
        <pt x="309" y="206" on="1"/>
        <pt x="280" y="349" on="1"/>
        <pt x="269" y="349" on="1"/>
        <pt x="231" y="206" on="1"/>
        <pt x="270" y="205" on="1"/>
      </contour>
    </TTGlyph>
    <TTGlyph name="acute" xMin="51" yMin="521" xMax="338" yMax="755">
      <contour>
        <pt x="338" y="647" on="1"/>
        <pt x="335" y="630" on="1"/>
        <pt x="193" y="558" on="0"/>
        <pt x="112" y="521" on="1"/>
        <pt x="95" y="522" on="1"/>
        <pt x="51" y="594" on="1"/>
        <pt x="153" y="670" on="0"/>
        <pt x="252" y="755" on="1"/>
        <pt x="269" y="754" on="1"/>
      </contour>
    </TTGlyph>
    <TTGlyph name="acute.cap" xMin="46" yMin="537" xMax="337" yMax="743">
      <contour>
        <pt x="337" y="622" on="1"/>
        <pt x="331" y="606" on="1"/>
        <pt x="199" y="564" on="0"/>
        <pt x="93" y="537" on="1"/>
        <pt x="76" y="541" on="1"/>
        <pt x="46" y="620" on="1"/>
        <pt x="164" y="680" on="0"/>
        <pt x="271" y="743" on="1"/>
        <pt x="288" y="739" on="1"/>
      </contour>
    </TTGlyph>
    <TTGlyph name="adieresis" xMin="7" yMin="0" xMax="534" yMax="758">
      <contour>
        <pt x="143" y="585" on="0"/>
        <pt x="101" y="628" on="0"/>
        <pt x="101" y="668" on="1"/>
        <pt x="101" y="710" on="0"/>
        <pt x="149" y="758" on="0"/>
        <pt x="190" y="758" on="1"/>
        <pt x="228" y="758" on="0"/>
        <pt x="271" y="715" on="0"/>
        <pt x="271" y="676" on="1"/>
        <pt x="271" y="634" on="0"/>
        <pt x="224" y="585" on="0"/>
        <pt x="183" y="585" on="1"/>
      </contour>
      <contour>
        <pt x="336" y="585" on="0"/>
        <pt x="294" y="628" on="0"/>
        <pt x="294" y="668" on="1"/>
        <pt x="294" y="710" on="0"/>
        <pt x="342" y="758" on="0"/>
        <pt x="383" y="758" on="1"/>
        <pt x="421" y="758" on="0"/>
        <pt x="464" y="715" on="0"/>
        <pt x="464" y="676" on="1"/>
        <pt x="464" y="634" on="0"/>
        <pt x="417" y="585" on="0"/>
        <pt x="376" y="585" on="1"/>
      </contour>
      <contour>
        <pt x="335" y="71" on="1"/>
        <pt x="259" y="73" on="1"/>
        <pt x="199" y="70" on="1"/>
        <pt x="188" y="0" on="1"/>
        <pt x="7" y="0" on="1"/>
        <pt x="166" y="513" on="1"/>
        <pt x="390" y="513" on="1"/>
        <pt x="534" y="0" on="1"/>
        <pt x="346" y="0" on="1"/>
      </contour>
      <contour>
        <pt x="309" y="206" on="1"/>
        <pt x="280" y="349" on="1"/>
        <pt x="269" y="349" on="1"/>
        <pt x="231" y="206" on="1"/>
        <pt x="270" y="205" on="1"/>
      </contour>
    </TTGlyph>
    <TTGlyph name="adotbelow" xMin="7" yMin="-231" xMax="534" yMax="513">
      <contour>
        <pt x="7" y="0" on="1"/>
        <pt x="166" y="513" on="1"/>
        <pt x="390" y="513" on="1"/>
        <pt x="534" y="0" on="1"/>
        <pt x="346" y="0" on="1"/>
        <pt x="335" y="71" on="1"/>
        <pt x="259" y="73" on="1"/>
        <pt x="199" y="70" on="1"/>
        <pt x="188" y="0" on="1"/>
      </contour>
      <contour>
        <pt x="231" y="206" on="1"/>
        <pt x="270" y="205" on="1"/>
        <pt x="309" y="206" on="1"/>
        <pt x="280" y="349" on="1"/>
        <pt x="269" y="349" on="1"/>
      </contour>
      <contour>
        <pt x="317" y="-32" on="0"/>
        <pt x="366" y="-82" on="0"/>
        <pt x="366" y="-127" on="1"/>
        <pt x="366" y="-175" on="0"/>
        <pt x="312" y="-231" on="0"/>
        <pt x="265" y="-231" on="1"/>
        <pt x="219" y="-231" on="0"/>
        <pt x="171" y="-182" on="0"/>
        <pt x="171" y="-136" on="1"/>
        <pt x="171" y="-88" on="0"/>
        <pt x="226" y="-32" on="0"/>
        <pt x="273" y="-32" on="1"/>
      </contour>
    </TTGlyph>
    <TTGlyph name="ae" xMin="-11" yMin="0" xMax="723" yMax="512">
      <contour>
        <pt x="712" y="0" on="1"/>
        <pt x="342" y="0" on="1"/>
        <pt x="338" y="88" on="1"/>
        <pt x="334" y="132" on="1"/>
        <pt x="178" y="86" on="1"/>
        <pt x="154" y="0" on="1"/>
        <pt x="-11" y="0" on="1"/>
        <pt x="227" y="512" on="1"/>
        <pt x="667" y="512" on="1"/>
        <pt x="677" y="499" on="1"/>
        <pt x="666" y="377" on="1"/>
        <pt x="537" y="383" on="1"/>
        <pt x="473" y="383" on="1"/>
        <pt x="480" y="302" on="1"/>
        <pt x="626" y="346" on="1"/>
        <pt x="637" y="336" on="1"/>
        <pt x="652" y="221" on="1"/>
        <pt x="490" y="177" on="1"/>
        <pt x="494" y="129" on="1"/>
        <pt x="572" y="129" on="1"/>
        <pt x="713" y="134" on="1"/>
        <pt x="723" y="122" on="1"/>
      </contour>
      <contour>
        <pt x="312" y="362" on="1"/>
        <pt x="301" y="362" on="1"/>
        <pt x="243" y="232" on="1"/>
        <pt x="322" y="256" on="1"/>
      </contour>
    </TTGlyph>
    <TTGlyph name="aeacute" xMin="-11" yMin="0" xMax="723" yMax="794">
      <component glyphName="ae" x="0" y="0" flags="0x1000"/>
      <component glyphName="acute" x="250" y="39" flags="0x1000"/>
    </TTGlyph>
    <TTGlyph name="agrave" xMin="7" yMin="0" xMax="534" yMax="796">
      <contour>
        <pt x="284" y="599" on="0"/>
        <pt x="142" y="671" on="1"/>
        <pt x="139" y="688" on="1"/>
        <pt x="208" y="795" on="1"/>
        <pt x="225" y="796" on="1"/>
        <pt x="324" y="711" on="0"/>
        <pt x="426" y="635" on="1"/>
        <pt x="382" y="563" on="1"/>
        <pt x="365" y="562" on="1"/>
      </contour>
      <contour>
        <pt x="335" y="71" on="1"/>
        <pt x="259" y="73" on="1"/>
        <pt x="199" y="70" on="1"/>
        <pt x="188" y="0" on="1"/>
        <pt x="7" y="0" on="1"/>
        <pt x="166" y="513" on="1"/>
        <pt x="390" y="513" on="1"/>
        <pt x="534" y="0" on="1"/>
        <pt x="346" y="0" on="1"/>
      </contour>
      <contour>
        <pt x="309" y="206" on="1"/>
        <pt x="280" y="349" on="1"/>
        <pt x="269" y="349" on="1"/>
        <pt x="231" y="206" on="1"/>
        <pt x="270" y="205" on="1"/>
      </contour>
    </TTGlyph>
    <TTGlyph name="ahookabove" xMin="7" yMin="0" xMax="534" yMax="814">
      <component glyphName="a" x="0" y="0" flags="0x1000"/>
      <component glyphName="hookabove" x="88" y="41" flags="0x1000"/>
    </TTGlyph>
    <TTGlyph name="amacron" xMin="7" yMin="0" xMax="534" yMax="732">
      <component glyphName="a" x="0" y="0" flags="0x1000"/>
      <component glyphName="macron" x="88" y="41" flags="0x1000"/>
    </TTGlyph>
    <TTGlyph name="ampersand" xMin="16" yMin="-13" xMax="724" yMax="712">
      <contour>
        <pt x="699" y="265" on="1"/>
        <pt x="687" y="145" on="1"/>
        <pt x="541" y="145" on="1"/>
        <pt x="479" y="-13" on="0"/>
        <pt x="289" y="-13" on="1"/>
        <pt x="158" y="-13" on="0"/>
        <pt x="16" y="126" on="0"/>
        <pt x="16" y="254" on="1"/>
        <pt x="16" y="378" on="0"/>
        <pt x="145" y="523" on="0"/>
        <pt x="260" y="523" on="1"/>
        <pt x="328" y="523" on="0"/>
        <pt x="398" y="474" on="0"/>
        <pt x="401" y="431" on="1"/>
        <pt x="568" y="565" on="0"/>
        <pt x="634" y="712" on="1"/>
        <pt x="649" y="712" on="1"/>
        <pt x="705" y="660" on="0"/>
        <pt x="724" y="592" on="1"/>
        <pt x="705" y="540" on="0"/>
        <pt x="544" y="379" on="0"/>
        <pt x="315" y="216" on="0"/>
        <pt x="203" y="161" on="1"/>
        <pt x="233" y="121" on="0"/>
        <pt x="301" y="121" on="1"/>
        <pt x="365" y="121" on="0"/>
        <pt x="434" y="193" on="0"/>
        <pt x="444" y="269" on="1"/>
        <pt x="457" y="279" on="1"/>
        <pt x="688" y="279" on="1"/>
      </contour>
      <contour>
        <pt x="183" y="403" on="0"/>
        <pt x="177" y="293" on="1"/>
        <pt x="214" y="310" on="0"/>
        <pt x="262" y="337" on="1"/>
        <pt x="285" y="352" on="0"/>
        <pt x="285" y="377" on="1"/>
        <pt x="285" y="403" on="0"/>
        <pt x="254" y="403" on="1"/>
      </contour>
    </TTGlyph>
</ttFont>
